<mxfile host="app.diagrams.net" agent="Mozilla/5.0 (Windows NT 10.0; Win64; x64) AppleWebKit/537.36 (KHTML, like Gecko) Chrome/131.0.0.0 Safari/537.36" version="24.8.6">
  <diagram id="C5RBs43oDa-KdzZeNtuy" name="Page-1">
    <mxGraphModel dx="1357" dy="743" grid="1" gridSize="10" guides="1" tooltips="1" connect="1" arrows="1" fold="1" page="1" pageScale="1" pageWidth="827" pageHeight="1169" math="0" shadow="0">
      <root>
        <mxCell id="WIyWlLk6GJQsqaUBKTNV-0" />
        <mxCell id="WIyWlLk6GJQsqaUBKTNV-1" parent="WIyWlLk6GJQsqaUBKTNV-0" />
        <mxCell id="a62uRSst5NXsYXS5A3J3-23" value="" style="edgeStyle=orthogonalEdgeStyle;rounded=0;orthogonalLoop=1;jettySize=auto;html=1;shape=flexArrow;fillColor=default;gradientColor=default;gradientDirection=north;opacity=80;" edge="1" parent="WIyWlLk6GJQsqaUBKTNV-1">
          <mxGeometry relative="1" as="geometry">
            <mxPoint x="272.98" y="260.5" as="sourcePoint" />
            <mxPoint x="430" y="260.6" as="targetPoint" />
          </mxGeometry>
        </mxCell>
        <mxCell id="a62uRSst5NXsYXS5A3J3-13" value="" style="shape=singleArrow;whiteSpace=wrap;html=1;arrowWidth=0.44177398681640623;arrowSize=0.3215790748596191;verticalAlign=top;rotation=90;gradientColor=default;gradientDirection=east;opacity=60;" vertex="1" parent="WIyWlLk6GJQsqaUBKTNV-1">
          <mxGeometry x="300" y="130" width="100" height="60" as="geometry" />
        </mxCell>
        <mxCell id="a62uRSst5NXsYXS5A3J3-21" value="&lt;h2&gt;&lt;font style=&quot;font-size: 22px;&quot;&gt;t = 0&lt;/font&gt;&lt;/h2&gt;" style="text;html=1;align=center;verticalAlign=middle;resizable=0;points=[];autosize=1;strokeColor=none;fillColor=none;" vertex="1" parent="WIyWlLk6GJQsqaUBKTNV-1">
          <mxGeometry x="129.5" y="110" width="70" height="70" as="geometry" />
        </mxCell>
        <mxCell id="a62uRSst5NXsYXS5A3J3-22" value="&lt;h2&gt;&lt;font style=&quot;font-size: 22px;&quot;&gt;t = &lt;/font&gt;&lt;font style=&quot;font-size: 28px;&quot;&gt;âˆž&lt;/font&gt;&lt;/h2&gt;" style="text;html=1;align=center;verticalAlign=middle;resizable=0;points=[];autosize=1;strokeColor=none;fillColor=none;" vertex="1" parent="WIyWlLk6GJQsqaUBKTNV-1">
          <mxGeometry x="498.5" y="105" width="80" height="80" as="geometry" />
        </mxCell>
        <mxCell id="a62uRSst5NXsYXS5A3J3-28" value="&lt;h2&gt;Propagation&lt;/h2&gt;" style="text;html=1;align=center;verticalAlign=middle;resizable=0;points=[];autosize=1;strokeColor=none;fillColor=none;" vertex="1" parent="WIyWlLk6GJQsqaUBKTNV-1">
          <mxGeometry x="284" y="210" width="130" height="60" as="geometry" />
        </mxCell>
        <mxCell id="a62uRSst5NXsYXS5A3J3-30" value="" style="shape=singleArrow;whiteSpace=wrap;html=1;arrowWidth=0.28966827392578126;arrowSize=0.4648537872314455;verticalAlign=top;rotation=90;gradientColor=default;gradientDirection=north;opacity=80;fontColor=none;noLabel=1;" vertex="1" parent="WIyWlLk6GJQsqaUBKTNV-1">
          <mxGeometry x="295" y="300" width="100" height="60" as="geometry" />
        </mxCell>
        <mxCell id="a62uRSst5NXsYXS5A3J3-45" value="" style="shape=image;verticalLabelPosition=bottom;labelBackgroundColor=default;verticalAlign=top;aspect=fixed;imageAspect=0;image=data:image/png,iVBORw0KGgoAAAANSUhEUgAAAa0AAAFuCAYAAAAyKkctAAAAAXNSR0IArs4c6QAAAARnQU1BAACxjwv8YQUAAAAJcEhZcwAADsMAAA7DAcdvqGQAALaGSURBVHhe7Z0HeFTV04d/KfTem4AgSAdBUUBR/vaCBUFBQVGxoIJIVXpHunQE6R0Bu9gVFRuKgnQpSu+9k/blvd71CzFld3PvTeG8PnnMPQnJZvfumTMzv5kJiYlFBoPBYDCkA0Lt/xsMBoPBkOYJ2NM6e/as/vjjD/3yyy86fPiwjh8/rrCwMJ0/f14FChRQ1qxZVaVKFdWpU0cFCxa0/5XBYDAYDCnHL6O1Z88ezZ8/X1u2bFGhQoV00003qWrVqipcuLBCQkLs7/qHEydOaOvWrVq+fLk2bdqk7Nmzq0mTJrr22mvt7zAYDAaDITiSNFqbN2/W66+/rvLly6tly5bKnz+//RX/iYiI0Mcff6x33nlHjRo10n333Wd/xWAwGAyGwEjQaGFoevfubXlVbdq0UaZMmeyvpIxvvvlG06ZNU79+/VS6dGl71WAwGAwG//iP0dq7d686d+6swYMH67LLLrNXnSMyMlLt27fX/fffr1tvvdVeNRgMBoMheS4yWidPntTzzz+vKVOmWIIKNxkyZIiuv/563XDDDfaKwXBpsG/fPv38889aufJXHdjxh7KFntGZ08eVK0ukTp7PrOw5culsTC6VKFtTNWvWVL169YIKzRsMGZGLjNZTTz2lkSNHKm/evPaKu7Ru3Vo9evRwxaMzGNISR44c0YIFC7R6+SJVLnpMt9QuofLFMylzeKIpZZ2PDNX67ef05S97tPlIYdW99RE99NBDypkzp/0dBsOlx79G64svvrByWXfddZf1BS84d+6cunXrZhlKgyEjcvr0aY0eNUIn/lykdg9foaIpOA/+fSBary/cqnJ1n1Hr519Q5syZ7a8YDJcO/xqtp59+Wm+++eZ/JOxugygDjwv5vMHgBqhgV6xYodWxH6fWrtK5EyeU88wp62vRsR/nc+VR5tx5lKtaDV1dp65VnuGEUOjHH3/Um0Oe0cBnMFbOva8wXr2m79Irg2ZZpScGw6WEZbSwW6+88oqGDh1qL3vH6tWrtWvXLt1zzz32isGQcqgtnD1zpjYtXqBrz5/S9QXy6rLoCG54+zv+S1TsgW1naCYtO3BYa/IWUo1HHtOjjz4aVJH8tGlTdeyPCWr/UKnYq8R/Z7BEx4So7/Stqtmwr1VKYjBcKlhtnHbu3KmKFStaC15TtmxZqwjZYHCCo0ePqnunTppw03V65JNFGpktWs3yZlfJqAtJGiwIi/365bHf90SBXBoRdk73LJmhQXVqaVDfvlaYz1/ef/99hW9/M9ZglYy9ct5gQWhIjPo+VVZbvu6vH374wV41GDI+ltEiNk5+KTVAAm9i8wYnIC/bqfZVeu6Xr9SpSF7ljoqwvxIcBWL/fa+iedTky3f1XK3q+vXXX+2vJM5ff/2lH5Z012O3F7VX3KVT09KaPuxpS+hhMFwKWEaraNGiVuul1IDWUBUqVLCvDIbgGPv669rY7jmNKJo7xcYqPoWjIzW2cA591Lyx5s6ZY68mzNjXB6v3k+XtKy+I0WvPXakJ48fY1wZDxubfLu9nzpyxvB6vQQZ83XXX2VcGQ+BwD+WfMVEt8mW3V5yH0GK7Qrm1d2APffXVV/bqxdB3M8ep75U1E/IO7yiQS9q3ZpHITRsMGZ1/jdYzzzyjefPm2VfeQEiDmpPcuXPbKwZDYPz555/6o9cruidXFnvFXZ6OtRALnn1CBw4csFf+nw0bNujGWt6EBeNTs3wO7dixw74yGDIu/xqtWrVqWSNHtm/fbq+4S1RUlNq1a2e1dDIYgmXswAFqXzSffeUNPUoU1LjX/1tbSIi93GWpU/hbuWx+bdu2zb4yGDIu/xotoN9gz549dfDgQXvFHaKjo/XSSy9Zv8ur7huGjMexY8eU87svlSk6yl7xBnJm+xfOse7juFBreOjYBfvKW/YdPms1uDYYMjoXGa3w8HBNmjRJffr00U8//WSvOgtDIxlz0rZtW1155ZX2qsEQOITjri+UOj35amTL/J9wHIKiX9f/N2zoBSvX71e5cuXsK4Mh43KR0YJs2bJp/PjxWrNmjeUNMZ3YCQgHTpgwQV27drX+n1p1YYaMA/Lyy7M6MzYnUCrkyWX9/riULFlSK/7OFfuZt11lIqNDdCi0mutNrg2GtMB/jJYPhBkDBgzQuHHjrNwT4/WDUSfR0XrQoEF64YUXrG7VjOJPLXm9IWNRpEgRHYjwNjToY8+Zc9bvj8/DT3bRRz95WzM1feluPdumq31lMGRsrDZO9ueJQiPdTz/91Pogjk8Yok6dOlZ9V65cuSz1H3JfJPMYKVozIeqgi0CNGjWsztRxW+G89957unDhgrVuMATL7t27Nf/menq6kPfq0/47D2rQn9uVJct/VYsd2rVWu//tUalCiZ4JHeOPv87rg23XqkevvvaKwZCx8ctoxYdWOWvXrrXUShgqegcy7wfjRTKYXFVy8fV169ZZHQzw6LJnd6++xpCxaXlzA42KOJJsiyYniQwNVa8SlTRh/gJ75WI45D3z2H3q3TRclxcOs1edZ83f5zXpm/waN2mO542uDYbUIiij5RSovxi//8ADD1g9CA2GQPnyyy+1p+PzujenN3VaMPnQSd29+MMkO6xzmOvZrbPqFFqp++o5LRYJ0YxP9mpftnv0atcexmAZLilS1WgB4cY5c+aoWLFiuu222+xVg8F/Xm3/sh5e8bXKhrjfieLXC9H6o0lLdejSxV5Jmo8++kiLpvRWp4cKq0rplPfY/HnjWU1cekqt2r2mG2+80V4NjlOnTlkRk/3791sHSCIo+fLlU6ZMmVS8eHFLDcn70mBIS6S60fJBp2pChk8++aQlvTcY/IWDz9ONHtDzB/9W+VD3budfI2K0tHodjXxzir3iHyhnOZj98Ol01Sp1Ws1uLanc2fw3sIdPhWjW0r+08VBh3fHgc2rcuLH9lcDgeVq2bJkWvbNI+07vUWiuEFW9ropy5smh3IVy/+uxnT5+WmdPndOW1Vu0f9tB5cuUX7fecJsefPDBdNe9hs4lP//8s377baVOHNyq08f2KjwkUqdPnVDefAV0JjKzcuYtrsvLV7fayVWrVs1SUBvSLmnGaIGVWJ8/X48//rgZCmkICDbkAb17qei7C/Rw3uySg7d1dOxmPuXQSWVr/bLatmtnrwbH33//rSVLlmjb+h9jrcM2FcpxRpcXz60c2bOqaP7M2nfkgo6fPKPte07q6PlYA5GrnCpUq2cZKryfYKCv6OujXtcPm5br6jtqqtzVZYkwBsSxvcf1zZLlynshn7p26pama8JojrBw4UKt+WGRKhc9oZtqFVPFklmUJTzxe+JI7MHg9y0n9flPe3Qme03ddX9z3X777eYAnQZJU0YLzp8/b+W5ateurWuuucZeNRj845tvvtGbXTrqyZDzutqB/ebrs5F6J3dhtRs+UldffbW96hxnz57VmDFjrCGohw4dsmT0nPQxUE6M7Jk9e7bmfTZH9z5/t3IWzGGvBk90ZIy+nPOVClwoooF9BypHjpT/TKegccHrI4YoZs+Hev7BsiqSx/5CgLAj/rzprCZ/eEj3Ptbd8jANaYc0Z7R8kAs4efKkmjZtahLNhoDBm/nojfEq8/dmNS1eSIUDGFeyMzRcC/cc0oEqV6nxC210xx132F9xh8mTJ+vZZ5+1r5yBkpL2ndsr/7W5Vb72Ffaqc5w9fk5vD35PE4a+oSuucP7nB8onn3yi96Z00IBnKih/Tue2tOVrT+nNL6Th4+eZ6E8aIc0aLWCi8ccff6xWrVpZ9WAGQ6AgMqAucN2PP+jcH78r56H9yqoYXZEnlxX6QZ6++fgpnY89GJ0uUlw5a16j6nXr6f7777dECW7D7yffRS7XKcihPdKymW5sXU+5C7v4vomW5vRdoDcGTk5V9e+woa+p8On39LhLgzfPXghRm9Fb1Lb3LNWsWdNeNaQWadpoAUXLU6dOVcOGDVW+vJfD9QxOQ13f77//bqnWmCbgu/VQqBFmQkLOR1iYe7VNgFKOD2TpGK4CBQpYNYMUzHutlmMIKs/FLbfcYq+knC6vdlax2wqpQEkP+jLGGq653Rdq0fQlqSLSmDx5kspeWKBbagYZC/QTbtUXRm1Rt5FLVapUKXvVkBqkeaMFPEQEGpx877rrLnvVkNahIwphuulL5mvF3+sVlTuLMhWN3VyyhOuConQhJkphIaHKpnAa6Cn6yGlF7DumioVK6bE7G+nRRx9ViRIl7J/mLqjMvv32WzVp0sRe8QaMJV6KU54KnWjGfjhK9ZvUs1fc5+yxs9qz9JD69vG2K8eKFSv0w/zWatfEGyMSERWiJ0fs1ay3v3f9YGVIHPf7zDgAOS02MLpu0IWeeL0h7UJIrtXzzyr/9ZX04ofjtCznAZ2pWlDnS+XSqczROhVzwTJYEBXzz/WpsEidKZRFEdWKaE3R8+qzaonKPHiDGtx7h+WduQ35ioQGO7rNzp07HT25jxo/Sjc0qmtfeUO2vNm0cscKy4P2kkmj++ilJqXtK/fJFBajdg/ksQ5ihtQjXRgtH9RR0D0DtdXevXvtVUNaAdl5vwH9dfld12nuyVW6UKWQTmUKrqHtGUUoolx+Lc9zRHXbNVWTFo9Y6jA3yZMnj+u/Iz7ktJyUVR+I3KeQMO+FS3UbXqcff/zRvnIf8t31Lj+kEHkbKKp9ZTZ9/s4E+8qQGqQrowVIguk6//7777s288sQOOSIbrnvLg1Z9a7OVSqg87YnlVLwxM6XzKUPY7aqyi11rA4OblG3bl1PN16nwVMsUMLbKc4+CpUqpD///NO+cp/ffvtN/7smdbp15A/fbx3QDKlDujNaQJuZ5557zjoVz50799+EviF1oNao3j236Mc8R3XGpRaA5xWlvRVzqM6j91inbDcgr+TlyHqeNye7L5w7d05Zs6fOTK3wzGHW7/cKBCwl8qfO9lWuZE6rEYIhdUiXRssH9TOEDEeNGuV5WMfw/zR74jH9XTrMMixuEh17ODlXvbBubd7I8uzcgEGKFLh7Ad0xLr/8cvsq5TCEcs/W1AmbH951xNNJ5Cg+T3pnIy9i/+EzVn7dkDqka6MFtJNhvMn06dO1ceNGe9XgFV9//bU+P7pBZ0O8GcZIuPBQ+ZwaNmK4veIsdGFh4KkXMPm4TJky9lXKQbCU5Xzq9M379cvfrC42XkEz3007zthX3rLveHia6gRyqZHujRbkzJnTynMxfPLDDz+0Vw1e0HPYQJ0r5O1GeS40SqM/mGNJ6p2Ghqk0bvaCPXv2BN1PMDGeaf6sNv7oXW4JoiKile98QWsorFfUr19fsz/dY195x8lzIcp9+a32lSE1yBBGCzhl0vKJTWDChAmehXguZei88NPODYrxWMEFoaXyaeXKlfaVc3Af8eFFop3nLzTU2bcgIfM/P9uqiDP+t61KKYuGva1XO71qX3kDfRkrXP+ktu2LtFe8YdjczWrzUkf7ypAaZBij5aNWrVrWGP9x48ZZE5UN7kF4K3PB1BlVEZMri2tqterVq1tFum6DcXSDKeOnamH/JYqJdP8w8cWsr9Xp8S6O5ub8pU2btuoz/6zOXPBmG/t85XGVuaG9496xITDSRUeMYKBFz4wZM1SxYkXdcMMN9up/QcBBDmPz5s2WZJgmvXhpJFqpnyHn4GsvZMYUXAzPWY3n7tPZYtntFe/IEZNJIxs85XijWaB4ne7o9Lx0C9qTLV26VM2aNbNXnIUD27MvP6OGHe9UzgIu5F9id43Fw9/Rcw+8YHWoTy0OHz6sl564TRNfLq1cWd3byr5bc1Kfba+pAa+5k0s1+E+GNVo+GMeOPLVFixb/hmJWrVqlRYsWWZNaMUoYNfoaYqjihmuYQ3TkyBHr+7/77jtLsXbVVVdZnlzBggXt77p04WCQtVZpRVXzLpfhI9epGH3Q4XXddNNN9oqzTJw4Uc8//7x95TzkX5GIo351Cw5fXbp21ql8J3TjQ9crJNQZz27H2p36aeEven3A6DTRD5SD58vPN1fHhtGOTIeOS4xCNHrxDmWv8LSea+3e/WDwnwxvtIAw1jvvvGONUOD/nAzp4h3MvKJ9+/ZZ877oyNGpUyeVLu1dG5m0SJ07GmhFwVOe57WyrT2k/cvXutb9n56AvLZubcp0nqeY2YtxFwhLBgzrr+xXZLU6V2TOkcn+iv/ERMdo8y9btXLpKrW8/wnXPMRgIQc5adIbWr9sgno+UU6FHIhaf73qpGZ9E6M2XYaa2X5piEvCaNHfrVu3btZE5Ntuu81eTRmcYkeMGGEl0/nZl2oDzU8//VQPjuqsM/kD3wiDJavC9OJlDTR8yFB7xXkIE7/77rt67LHH7BVncWOGVnLQReKNNyZq37l9ylY4i6peV1klKhRXeNb/hr1jomJ0ZPdRrftpvfZu2a/SucuoaeOmrnm2TsEcvi+/+FSnd32rhnXy6I7a+a2egf5y6GSIZi79S5sOF9EDj76UqqFPQ8JkeKNFHdHixYutAmQ6aTjN1q1b1a9fP40cOdIqeLwUuf2Be/Rd9oM650GtVmhIiAqtO6F1X/zo+vONCvWFF16wr5yFxs90dfEKQrmjR49WmzZtlCVLFiun9uuvv1rNiDHQew7sUVjmf0LjOTPlsjxY5P8Im9JLNIEcIeIW3yQI2rx9+MG7OrLzd2WL2qUrimdRofw5VSR/FuXKkUV7Dp7WqTMR2rrzqHYfyxL7h1+hyjUbqHHjxp7K9w2BkaGN1vfff2+NX8cTchPqhShwZu6Xk2150gtsejVvvUE7y2f5t3u7G4TE/pd17UH9POdDa0N1Gzwtck5uzNjy2tN68803La8hoyrf3n77bSsn3aBBA3vlvyBOIY/oUxXT/QTjlDdvXuvDkD7IsEaLG3PAgAF644037BV3OXTokHr06OHZ70troLy899EmWpv/rM5kcr7GKXNImPKsO6qlb873LL/g1owt7hV+7oMPPmivuMtnn31meU7k0DIizNpDcp9R/z7DxWS4Oi0fhOsICXoFasLbb79dy5cvt1cuLRAUfP/JV3rhipuV5c8jlpFxAsu72ntGDc4U0brPfvA0Ie7WjC16DjrZvikpKEs4ePBght3Qad9GWYsxWJcOGdJoMYSQKce4/17CrK9Zs2bZV5ce1LENe22INi1epgfCyivzpsPKER1cbVsWhSnLjpOqvD1EizoM06dvf6BChQrZX/UOwkZON+d1uudgYhC2RZjAANWMBgEiQqzXXnutatasaa8aLgUypNH6+eef1ahRI/vKO6jxckuCnZ4gcb9w5lzt+XSlht/0pK4+mEOZ1x5Q9gPnlCs6k7KHXCyIyRxroHIqk3Idj1bImn0quz1aXcrfpbXTl2rll8stbyG1hn5ygnd6xhb1gW7nUNjUp0yZYhVIu9V5I7VAsYtI5uabb1aVKlXsVcOlQobMaQ0bNsxSfaVGJ2aKUvG43Ejep2eoo2GAIx80ikW8Qs0biXDKBRirwWiLGjVqKHv2iztsoHxjk6K2LjWUbE6rCL0QYTBnDi8kLRT/OgmTnnk9OJSWKlXKXjVcSmRIo/X6669bJ8zcub3vizdmzBg98sgjqRLKyshg9BC5UGfn9UZM3oTX1IlwM283VKZPP/20veI8eIaEBsmxZiSojRw/frz1WphD4aVLhgwPcmInb5AakGQ3Bst5CL3SVmnZsmWujtxPCCdnbPm8S7egZRnPT0YzWHjmNMFu2bKlMViXOBnSaNWrV08LFiywr7yDMJaXI8cvNcjNUA/HSBIKY72CZslOzdjiMOVWR3Q8Ee77J5980l7JGNBbkLA73umlWsBv+H8ypNFCOQhU/XsJeQQ2VYO7cNqmEwnF416AseQDAUBKcVM5iPCCVmUZaRoBXdwpjMbLzpMnj71quJTJkEYLOnbsqLZt21o5BC/YsWOHNYPJyG+9gYGfFOnSxd8LEIg4MWOLMJcbAiEa8F5//fUZKjRNKHXmzJlW6ykz3t7gI8MaLYp96cLOh9uGy9cNY/DgwfaKwQtQE6Imo+ec21x99dWuTEp2AnJYhKYZm5NRoMk1oU4Onl7XWxrSNhnWaAH96QiXPPHEE9YJ1w1I0Pfs2dNStrnRkNeQNHfeeaclkaf3nJvw2mIgUwLhRaenATDvjabQNHnNKBD6xXPEYJn3lCE+GdpoAWEdJPBdunSxQg1Ip52ALgnt27e38iokiePXFhm8gyapKMrmzZtnr7gDqlQKnYOFfpjUozkF3hVyfDcnLHvN+vXrrVlmL7744iU77seQNBneaAHdn6nvwPNq3bq11ZOQE2owMHGWfBmztDp06GCtbdy40fq/IfWgc0WlSpWsTdwt6PjOuItgcVo5OHv2bGuKdkY5MDEmhW42jGzJaF08DM6RoUeTJAYdGegMvWXLFqvtEpsRsmbktIwWIelLqx3CQdu3b9eKFSssw8RTResYRjwwkwhYY3Q/U5DphGFIXTipf/fdd1bHCTc2vpSM4cfTZ+Kv795JCV999ZWlErzxxhvtlfQNh4Ft27ZlyD6JBme5JI1WXPjzfe2FLly4YCWAyT3QTQMPjQ/a4RQpUsT+FwmDsozCV0I1RumUupAT+fjjjy3j4nSIiVwL90MwBa5ODX7EY8Mwk6/NCPC+IfLh1agWQ/rmkjdaTkKei/BUw4YNM1zPt/QGh48lS5ZYuREnk/mM+WCTJSwXKE4YLQRFiH7Ip9IlJL3zySefWIdEM9be4C+XRE7LK+jc/fLLL1vS6A8++MBeNaQGCB4IxY0dO9bRLiXUQWG4AgUvPqVhQc6Xvs7tGcFg4bVyoDAGyxAIxmg5DHkUNsvLLrvM2jDPnDljf8XgNfT4o3sGPeucLHkIZsYWudGUdqh/6623rJ6CGWE0/MKFC61ayltuucVeMRj8wxgtl6AzRosWLaxQDoIPQ+qAuIbWWggonBrmSG/LQGdspbR9E70Wc+bMaSkk0zsIUq644gqrg4fBECjGaLkIPRDJPSDjZYKsIXWgZx2iDEaC0MsupSBbxwgFAjVaeN/BwCRujFZ6D6P5wpt0F6FzvsEQDMZouQzhwubNm1uhKmrFzp49a3/F4CUoOulhxynfiSnIlEYEkiujEDiYRrbkwqjHeuqpp+yV9AlF/Xi7SPQpLzEYgsUYLY/gdEmui6mr1KMYvAchBK2ByA3R4Dgl1K5dO6AZW8GKdKdNm2aFmakDTK9gsMkr4inSVcRgSAnGaHkI+RXChT/88IMl9TV4D2o1PC7UnSnJNVapUsXvGVuIcYKp3aMRMIcdN4dGug0zvhAkNWnSJMVCFIMBjNHyGKTKnJwpWsbrMkMjvYeC4xdeeMHqKhHscEfCvnz4M2MrGBEGHViYB4dHl17BWONhcb8XL17cXjUYUoYxWqkEXRUoUCXPhRza4C0YHFo9EeKj510wMArEnxlbf//9d0A9B1E5fvrpp9bMsPTKyZMnrUMZNWUZacaXIfUxRisV4c1MMfI333yjzz77zF41eAljazZt2mSFbAOlVq1afs3YQvjhr6eBYIE8FqPlMazpEVoy+bp/ZISaMkPawhitVIZQFT3k6HXIG50cgMFbEMggK2cuVSD4O2MLQ+SvAZozZ47VeDm99q88cOCA1cqM9lk0ozYYnMb0HkxD8IZH3vzwww87OnfJ4B802YW77rrL+r8/MO6f1yopVdzkyZOtUGRy0AQXiXtqd4kgPInClZwaLatQ/9EgmBEoZcuWtTpZJAS1aIsXL7byhelZ7WhI2xijlcZgg8BwlSpVyrS4SQUQZxw/flyNGjWyV5Lm1KlT1tTkxDqu+5ufQoLP8MPUqMfCONFc+JdPP5J2blWZ0AiVLZBXpXJnV9bwMNEn/0xUtHafPKPtR45r07nYLaPkFap44y3WAYsJCBg5Cugp4g6mHs1g8BdjtNIoTERG2UbOxZxavYX8FkaEsKE/JDVja9WqVZb3hPAmMSg4R7TQrl07Tzf8NWvWaMLAviq0fb2eqFpGpQK8zQ5GhWjmur+1JV9JFalWS/37988QjXwNaRtzh6VR6Mt23333acyYMdq9e7e9avACegsS7psxY4a9kjSILBgsmhD+yN1pbcThxCuDRf7uxZYt9GPHJzS64Hn1qhW4wYJCYTHqVL203igVppprv9bTD95nzTIzGNzEGK00DEWlqAspRGaGk8E7UAZSI/Xmm28m282CAwaecUKQE0pK8k1YrkGDBlbhuRfQB7Nbw5s1JOdxPVW+qEJjou2vpIDY5+eBy/Jp4mXShOb36sMPP7S/YDA4jzFaaRxO3775SZzIyXkZvIGuFxgUQncoABMDYcKhQ4fsK/8hdIh6tFq1avaKu5Az+7zT05p0XRlllQPGKh5hscZryNVldGR8P82YPt1eNRicxRitdAKNRu+++26NGjXKkYavBv9gAjWTqGlFlNSBIdAZWxg5vDPk7V6wefNmvd/tJb1avZTlGbnJo2UL6eDMUVq+fLm9YjA4hxFipDOoCyLXUrFiRdWvX99eNbgNB4UFCxZYcu74E4gxQITEKDTG69pzYI9CM4UoJDJUkRciVblyZWsUBx00mImF8Rs9erTVAzGl04z95cl7btcbZTJb3pAnhIToqV93asYPvxtxhsFRjNFKpyDNpv3TY489ZiTGHoFxYrQJSkGUnQveWqBNBzaoQOl8qlS7kgqVKqBM2TLZ3/3/nDtxXrv/3KO1P69T9HGpWI7ieqLlE0kqCp2EWVyber+oppcnXF/lFr8eO6edD7S22pUZDE5hjFY6hmJOxpbTkJRaGYP7MNbkzQWTVOP2aqp2YxWFhAfeaun8qQv6/v0fdWF7pHp07ml5Ym7Ss3t3dT+2WuHy/q3e4XhujZkz374yGFKOMVrpHNo+ES4kmY9U2+AOO3fuVNsubVT17kq68rpy9moKiZaWvfWdch3Lo6GvDXMtVNimaWONKpg60wRe2nBEE7760b4yGFKOCTanc9joaEzKGAhCV/6MyjAEBj0Jn+naSo16NnTOYEHsu69Bs/qq8NAVeuDR+y3D6AbRZ07Zn3lP6AUzesfgLMZoZRBuvfVWS56NupAehgZnoK5pwnvj9Givh4MKBfpDzgI51Kx/Yz318pM6evSoveoc2UqVtYQRqUFMITNHy+AsJjyYwSBcyGgLimOvu+46ezVh6OLAPCmk2qjjfB3mKWrOli2bqlataoUd6WZ+KcJz8kSHx9W8rzdzrSLORujDwZ/p7XlvOzqWBA+89rJ5ujK7t4Kd4zGhmlColnr27WuvGAwpxxitDApNWmnXg0jDJznGKNHUFOUha5UqVdINN9xgGamsWbNaoyQIL3Lapx8eCjlmfWHULrvsMj366KMBT+BNz3Ts3EFVHrtS4Vm92+y3rtyma3LW1b333muvpBxe95fq19L42v4PonSCvr/9rTbvfmVEQgZHMUYrA0PfOzqQ07Gc0zYdyelGXqNGDfs7/IdJtNQp/fTTT1afvIxeI4bhbtXjCT3Qzjnj4S9v9/1A7859z75yhmlTp6r0p7N0U6Gc9oq7bD4TqbeKX63eAwfZKwaDM5icVgYGrwgPiqa79DAcMWJEUAYL8MKeeeYZq5UU/fT4PCN35vjtt9909S217CuPyRPt13DJQHiqVSstLVhJf59zvn1TfI5Gh2jokUzq2X+AvWIwOIfxtDIohPc6d+6s5s2bq27duvaqcxByatu2reV1eSG1Rx25evVq/fnnn5bQhGs2dvJthDdpOEvHiXLlnFH3MW4k7JpoZc3jTceKuPy69De1ufvlJAdLBgOdODq3eUH3HN6kBoXd8bjWn4rQqJNZNXrmXDO52OAKxmhlQMhLMUxw2LBhKly4sL3qDn379tXtt9/uimHcuHGjFs6Zo90ff6C8h/apftFCqpgti7LG3rK5ov7xRKJCQ3U8LFwnYh2IHw8d1dqzFxRZubpufKS5FRZl2m4wTJ06VRcqn1aOAsH9+5Twwzs/6dWmPXT55e7koAgVbnpzhLrWKqucIc68/S8oVGP++Fsxtz+kV3v0dFRIYjDExRitDEi3bt0so+WU15EcjJLv1auXJdZwAkbYz+zZTdefPKz78udStqjAO9tvDQnX3F0HFN6wkbr07pPoiPjEoNnrFzs/VtmrvReeLBr+jt574wNXe/bhrQ7r10d5V3+np6qUtmZjBcOJmFDN27hTG0pUVse+A6xx/AaDmxijlcHAO0EdSGNXrzh37pxeeeUVqwlsSmDYZfcnW+rOgzt1Zw5npjWfivXCRuw+rMufb6d2HTvaq8lDeLVx60Zq1r2JveIRse/Gj1/7QvNnLLAX3GXfvn1WK7DfF89VZZ3WDaWLq1qerMqWyOiS87Ee1aZTF7R8+16tjcqsMnc+oEeat3DNKzQY4mOMVgaDke2EBb0e0T9o0CArv8UU32BAWj/r6cc1uFg+ZYp2vqvHmlhnbdZl5fX6jFlWp3V/GDBwgArckls58nsXIlz5ye9qVruFK+HWxCBXyIGB3OSKFSusOV87N6xTWFSEzh/arzAifXkKKDxrNuUrXfbfGkC3Q88GQ0IYo5XBeOmllyy1oNds27bN2vCaNWtmr/gPc6U+efIRdSycx15xh2Oh4eoelkszPvvSr4JpSgQat2ykRwc8rBBr53aXEwdOat2CTZo47g17xX3wKCdNmmSpSw2G9ICRvGcgUNSl1umXfNamTZvsK/+h397Ulo+qY5G89op75I2OVLfIE3qlzYv2StLgkU0a8abm9l1oNbd1k7PHz+nzsV9r9EhvDxyzZ8+2xtsYDOkFY7QyEIyET62Be/zeYJz2oT17aHDxfK5P0/VRIiZKVyz/Qn/88Ye9kjTkaiYOnKR5Pd6yDIsb7Fy3Sz+9+avmTZvvaViXFl4IJygXMBjSC8ZoZSDwDGjdlBow2yvQuiLyKPm//0qZXchhJUWzArn1xmD/OzVcccUVenvWu1q/YLM+n/mVoiOdMbAMh3zrtSXKt6+wpk+eoRw5cthfcR9Cn3Q3odGywZCeMEYrg0GNFkWkXrNkyRJdf/319pV/kMt6oFgh+8o7wmKNZMzKn+0r/6Dea/SI0er1RF99M/oHfTBxqU7sP2l/NTB2b9hjGaudH+zV3FEL9MLz3ik9fcyaNcuEBQ3pEiPEyGAQ9mK8OnVaXkFnChL548ePt1f8o3+/fmr9xduuqAWTY9Sew+q4elPQXRtoIrx48WJ9/v1nOhVzQsXKF1P56lcoZ76cypQlk8KzhCnyfJTOnDijk0dOauNvf+rE3pMqnK2oGt3TSHfccUeqdc+nBo23fUbvH2nImBhPK4NRvXp1rV271rWBggnRoUMHderUyb66NMibN6+efvpp3VznFi2a8LZ6tuijWlmvU86t+RS9Mkw739mvzOtyqODeYmpQ9DY9ecvT6vViH02dOFUNGzZMNYOFseVgYwyWIb1iPK0MCJ4PntbYsWOtzdVNaMJL3c7//vc/e8V/3nrrLZUfN1hlop1tDusPXQ+e0sRNf9lXwbF9+3atXLlSDz74oL2SOLzNxo0bZ/VrTE24J6inM30BDekV42llQDjFT5gwwfJ+/FXJBQp5MwqZ8eyCMVjALK939hy0r7wjMjRUIVcnPSDTH95//32/517Ri69UqVKWoUstaI917bXXGoNlSNcYo5VBYWN688039fnnn6tHjx46ffq0/ZWUw+bXqlUrtW/fXrfddpu9Gjh0zzhW/xZdCA2zV7xhwaGTer5rd/sqOAjBVqhQIaAwH42FP/vsM/vKWw4fPqwtW7YkO83aYEjrGKOVgeF037FjR6tLRu/evdWzZ09rMGQwMIpk0aJFevLJJ7Vs2TINGTLEkX5znfv116t7jvJg7RV32RUSpr9uvF3VqlWzV4KDw0CgBjtbtmwKDw+3Bmp6jSkiNmQUTE7rEoLNEmn6Dz/8oDx58uiaa65RnTp1rM/j5r4wUHwvHS6+++47S9SRL18+NWnSxJpZRc6M1j+33HKLNbI/pfB4PmrZTJ2LeNHGKbdmfv6lZTyChcdLMTXPXaBQR0efxYcffthecZ+PP/7YmjlWs2ZNe8VgSL8Yo3UJs27dOq1Zs8Yq8qXYlHEVGC+6MpB/wZO6+uqrlTt3bvtf/D/cNvPmzVPJkiV144032qvB8+2332pmKxrm5nVFAv9HZKy3UfJKjZoxK0VFvHQd8U2CDhZKA1q3bq2wMPfDohjJDz/80ArnGgwZAWO0DCni008//aexbOPG9krwWKNJnnpCdxzYobscHE0yfPdhlX3hZb3UoYO9GjyffPKJZdArV65srwQO4pgjR46oQYMG9oo78NYeNWqUNaYmSxbvJzAbDG5gclqGFEGRLP3rJk+ebHkhKaFEiRKa8ennKjryDbWLyaH5R0/rTKzRCYYtIeHqG2usxl1VXz1//t0Rg3XhwgVLzJASgwUoLt1SdcYFdSPiD2OwDBkJ42kZHAEp99tvv63nnnsu6BH38fnzzz+1YPZs7WLc/sF9uqFIQVXKnkVswbkjL1jfExkSqhPh4ToWGa2fjhy3xu1HV62hG5s11wMPPODYYwE6YCAZx9NKKQg5CK1WrFjRXnEWvFZUno8//ri9YjBkDIzRMjjG0aNHNXXqVLVs2VKFCjnbU5C5T3gnTGY+dOiQFZL0gXQ+f/78ltDAl5tzuhEsP5cc3rPPPmuvpAzq3ChJeP755+0V5+AtPXLkSEs1mlqdNwwGtzBGy+AoKA9RFt51110qX768veotdH1A6ODkhk2D2bvvvlsFCxa0V1LO/PnzLdm8kz8T8Ahr1KiRas+/weAmJqdlcBTyJ7QqooM7oy9Sg/vuu0/vvfeefZVy8OzAaeOCYV+6dKl95QyEacm9GYNlyKgYo2VwHIqa6W/HZo8YwGtKly5thSqdKuIlV+dPf8FAobyAsCfeqRMwlgYvy8saMIPBa4zRMrgG3cyLFCmi6dOnW3kWL0GCzwaeUnbs2GHlyxiw6QaEBxFlOAENiPm7U1I4nRBOtgAzGFKKyWkZXGfr1q1WgSt5Ji/l1wgnaOZbrFgxeyVw6MyO+MLNMfjk4FLa/X3z5s1atWqVHnroIXslMPD4vvjiC634ZYW27d2qU9EndSHqvLLmymp/h3Tu+DllyZRVecLyqnqFGlYfQwZ/4lkbDF5hjJbBEwgVzpgxwxqZgufiBefOndO0adOs4tpgWL9+vZUjIvfkJrSFwpjTfSQYUCKOHj3ammsWqAGhE8mchbO1L2KPrr+vnoqUKaTQTMkHYCLPRWrLb9u0+qs1ql6yhp5+6hldccUV9lcNBvcwRsvgGZzmURZSP+VEs11/+Oijj6zNNJh6KLpJIBunz6Cb8BaktVObNm3slcBA2XjzzTfrsssus1eSB69swPD+KnNjKVW7qUrsTmB/IQiiI6L1xZyvVeBCYXV/pbsKFy5sf8VgcB6T0zJ4Bl3OMQKEoRie6AV4SbReCpSff/7ZKiR222AB3hHdQHbt2mWv+A/eIA2PAzFYw4cP05j3Xtd9Pe9StQYpM1iAZ3b7k7eo+uMV1bLjY/rqq6/srxgMzmOMlsFTMAKMqSfsRvdxt/F1YycE5y94Pj/++KPq1atnr7gP7bACNa6oDun9iMTfH2iz9dRzT+p8uTNq8Ej9FBur+GTKlkmP9HxI836YrUmTJ9mrBoOzmPCgIdVYvny5Nd+rRYsWrifzCfUhdvCnszqDGumyUbVqVXvFG8i/IVf3V6nI999zzz2WQtMfXu3+qgrdlFeFLne23iwhli/5UQ/WfEh33nmnveIuyP2ZWMD9dOLECR08eNAaocPriIdPf0xez6xZ/19YYkifGKNlSFVoy4Tkm56Fbir06GPIBzL8pGCje+ONN1Ks5guGvXv3WobcHwUgOSm+31+RCB7ZJ1s+VM3batgr7jN/4CLNGTlPBQoUsFecBcXkgvlztGfj18oddlA3XFVEpYvlVNF8mZQpXAoPC9HZ8zE6dCJSew6d1bJfdunohXzKXbKuGj/0qDVPzpD+MEbLkOow82nOnDlW2JD8jFtMmDDBmrzMyTsxKCSuVauWZ0KR+CDIoB9hUrm0M2fOWF31A5np9cCj9+vBPvfaV95w9vg57fv4sHr36m2vOANh5UXTB6l+hQt66H8llCNLYNMFIqJC9dFPh/TxL2d0fcO21kRnL3KXBmcwr5Qh1SG8RQ0XzXaDESP4C10tMEqJgTEgrJRaBgtuuOEGy9tKCgx8IKPzN2zYoBJXF7WvvCNbnqz6ebP/ucTkYJL2Ew/fokxbh2lquwJ64s5iARssyBQWrQeuz69JL1+mq8IW6MnG11ltxwzpA2O0DGkCpgm3a9fOKkJ2a9YUI+cJ/x0+fNheuRgMWqNGjeyr1IFGt4T+EmPFihWWhD+QkBsTqsvVSJ0aqrwl8urYsWP2VfDQS3LawMaa+lJu3VLzv5O0g6V6mSya0amEfnunncaNHWOvGtIyxmgZ0gyIJPC48AyYBeUGtDlasmSJffX/MEmYIt20UGNUoUIFy6uID+NRkOLfcsst9op/4L3mKpDLvvKW4pcX086dO+2r4FiwYIGO/zZYg58rp9AQd7IZbRpdphqZ39egAX3tFUNaxeS0DH5B5/C1a9daH/TjY4NHCMDcLEaAMBiRzfaqq65yZPDi119/rX379umRRx6xV5wjobzVlClT1LRpU+XKlTqbe1zwBnk88WdtkZN79NFHrUa7gYCR3pFnqwqU8qYTSVw+nvqZJnadHPBj9vHrr7/qkymt1P2xMvaKu7y17KDCK3awDjeGtIkxWoZE2bNnjxYuXGip7th0brrpJit8hVgirmGiXuj48eNWGGrZsmVWXgipMRssUuNgwUDSZojef042gcXgYgAodAY8Eeq40lJ39Llz5+rKK6+0iod5HhCrICDhg+cerwu1JZ3sOTQQMqQNFLVl8Z8rFJpjPnxdde6rba94x4L+i7V0duDF3T6eaFJf014uIC/bGz7/+haNmvOrkcenUYzRSgXYNNkoCUlRUwJsPHRFoC9f7tzOxeyDgU2OuiY2TaYQByNZZjPF4FGki9GhuWowMDae8BA/w0kviK4N+fLls6Ydo9hDuehlM9/EIN82c+ZM6wCAKINQoD/j/TFieCXvvPOOdS9xYMCb9JEq6sFjZ7X/06Pq1bOXvRIYHIBOruythnXy2SvesGVvpL4+cm/sPfecvWJISxij5QGEe6hFev/jj/TNml+05fBuhRfMpbBM4QrLmdWS20acPocWV6cPHdNl2fLpmrKVdc//brfCFGyuXkCD2Z49e1qbJKEpJ7wbbi+MDh7ToEGDgvpbMIBIvNmIU9KxPS48Lgwzxa/btm2zinRTE5SLY8aMsQ4yr7zySopqmzgUMaaE57x9+/ZW2Jb778ON7+rqO2ra3+U+8/q/pXmjFwTdILlH967qc+cGhaVC5r3ttFCNm5q40tSQehij5SKE1/q9NlDzvluqmMvz6XSOUMXE/ucvOaLCFLH5gG4qXVV9OnVzta0QyfJXX31VI0eO9LvDQiDgCbz44ovq2LGjqlevbq/6D4Yfw8WokcqVK9urKWP16tWaPXu2hgwZ4lenDLcg/Dd06FANHjzYCqs6BcZrxIgRlodKp/uevXsod93sKlLWfbHJtwuXq2md5ta8sGBp+/SDGvNk4JJ2J2g7fo/GzVthXxnSEkY96AKcmrt0fVVl762nGUd/1ckq+XUqR0hABgtOh0XpQsUC+iLbPt3So5Vub9TQmk3lNISkunXrZo0OccNgAa2J+PlvvvmmlSMLFEJeGL3ff/9d33zzjb2aMhCX8HPpyZdafPDBB1q0aJH13DhpsABPGa8NcQz5u949++jP9//SjrUpU/Mlx7L536luifopMlgQEx1hf+Y9IYqyPzOkNYzRchhCTVfdcr3G/f2VzscanPMxkfZXggdjd65Ydn2VY7+qN7nF0RH29GyjswIjQ9jA3YT+goTk+vfv/28uL1CaN29uCT9SOpWYAANFvEjsqQFKDX777Tfro2/fvq52ZMBDJ9zbr18/vTnhTeXamU9fzPo61ig4G2SJOBOhuX0WqmWDp9TqqVb2avDkKFAu9nWyLzwmJquzBwiDc4T1icX+3JBCSJ7XfvgOHayUWxdcOKlhvCIKZde7ny9VwfPhjvROI/dBPqd06dL2iruwOTPtFo8LoUEwoJTDcGG8EVIEs+EjxKhSpYqV76EbAqITL4UY5A979Oih119/3TLmbkNpwtGjR7VlyxZFRkapXKErtXTWpzpz4bSKlon1rlPwEKLOR+nTGV/o3JoovT5glGPh29Nnzun4zh91WUF3D1PxOXBc2h5dL/Y+De7+NLiLyWk5BCG2qrfW04EquRTtwVOa5a/jWjpgsjX8LyUwSZhu4V7DwEPyLSkxFIw3oeaKZruB1IbFl7wjfsDboi+hV0ycONEaR5KSkoBgoGEwBwafoAV154w507Xn/C7VbXidipUvpjA/JhdfOB2hzSu3aO0361Wr7DVq9WQrx9tfEbZ9ukltTe1Y0l7xhi4TN6v7uO+Dri0zuIsxWg7x6JOPa8mFja54WIlRYN0x7VmxIeju6NRW0dGcvIfX0K4JiT+eUkqgRRCFuI8//rjf3SzeffddSwwS12DMmzfPEnk4pU5MDiT8CEu8hkLjMmXKXCSHBzxXvM9ffvlFW3Zv1vGIo7oQGaGsef45VEScj1BoVJjCY//Lmymfqlesobp16wZdyuAvTJ4++usANb/VnVxrfH7acFq/nL5bL7Vrb68Y0hrGaDkAyrtyD9bXhSvdGcGQGDnOh2j0Xc+rVavg8gdsUGz6KU2YBwO5P/roNWvWzF4JHjZcDADy9fLly9urCcPIf0QP8btNEK7D40Rl5zYoIcljDRgwwF7xDuoDMU4YeX+gDyKeaWqO8Rg6ZJDqF1imOpVS3mklKbYfiNKwT/Jr/KSZ9oohLWKEGA5AQWf4ld530T6dJUZT355nXwUOMm+EGKkBv9cpmTkhRsKNdLVIbkIx4US6vceH7gfk9SisdhsKpsnLpQaoQ//++2/7KnlQWLo558wfurzSTcuP3KxpS/fYK87z5e/HNWZZCY0aN8VeMaRVjNFygLWbNuhsSMpVgsGweX/w8mXEB6jXUgPaEyGCcArEDHTvQGyQmBoQr5JNODFZPwMVAx15HwyEIMnHpQbkXgnL+ktaMFrQucurKtVgoJ4ZsU07DjpXonD0dIg6jN+i3blaauToN/xS0FJzSEPn4cOHW545BdzkVTt16mTVIaJIZYgon5M/xFs1AS3nMOFBB7j/0Yf0fsg2+8pbsq49qLOrd9hXgYP4YPr06faVd/DGHjt2rCsye8KOFOzyt/mUeYQFyd0xAuX06dPWGl+jfozHgEGjrgmjR6gQhWODBg0cU8LFh/AkYgyvYYIxxcb+FqqzOZMD81owkhiEgsePG6ttP0/Xkw1LqdYV9AcMfAvbvDda097fqsyl7lWHTq8mK7ogMkBN3WeffWYpMQlF04czOQEQTaUJw/O88zsIh1erVs3+qiEYjNFygJ69emrwtk8UGeN9kWq5WEdr87cr7avAwSuhtdKNN95or7gPXeIJ0wUyeTdQyJkhicfoIPoghMgYezYafxSLBw4csHrfffHFF9aGTd6Qzcop6MKBUfV6FAq/k9ydvzJ7pgSzyV522WX2StoAD5DH9tbsCSqSeadqlMttjdsvUSBUWcIv3tIio0O050iMft1wWD+vPaRjIWVU//ZHrDAxh5jkIPzPvURxe0pyexhcWpr99NNP6tChQ7L5V0PCGKPlAGz8zaf10emc3kZbw0NC9Ui2apr1ZvCSdV5+NrLRo0e7OureByIEwnhMKU5q7H1KoXksfxOGCpl3Sop38cKGDRtmPV4MLd5ZSkG52bVrV0t67xXI26nTCmTqMfc2KkF/jCs/m1AYs8AQb+zZv9vygYoXLm55sYSjOTQ4FRbG80Fmj1HdvHmz1S2FWWzcYyeP7LR6FmbKUdTyhshX0gW/atWqfhtsvG6MC2Uh9evXt1dTDo+Pe5OcLqFFQ2AYo+UAhA5KXVdVeyq4q26KT5btJ/TrG+9Yb8SUQHcKwlXE3wOpdwoUniek3oSbGHNCiMrpnn/czjTmJW/FZuNkpwm8r86dOwfdPzE+hIwQRZAPcRtmk9ERI1AjSYsp1KUJhc983s7bH72tw1EHVbJCCVW8poJyFcyp8KwXN1uOPB+lU4dPaePKP7Vzw07lVX49cFcjq7A9mBEgiFkIXfqrggwUBDmvvfaaNQHAiUNKQnCwolzDrTB5RsUYLYfA7X9yen+dK+jNDJ5sMeG6K6SMlsxdYK+kjEOHDlmbce/evV3JXyAAoJiXFk78fEbq00aJDYEiWyd6HnKCJVfG6ZhuF27A24XNnzqne+9N2agPvAOS+dQ6YWDd4q+//hKNbygLCLSYm7lejRo1uugwQ85v7Ngx+nrtl6r/4A0qUSm42rZ9m/frmyXLVa/cDXq53ct+heqAomM6iXA/ubHZ817gHmJEjL9eWbAQKudv4cPgH8ZoOchLHV7W1B3LdSaLu09pppAwld0Wqd++WO6oZ4QnRKdxQjtdunRxJHzn6z7Bm5PNPv7jJUxGcpshhzR2JRQVrPdFqIXNpmRJ9zsoYATuv//+oIujMbCMIuHxkjcj78Zz73TIlGLilStXWs99MKNmEOngzfhek6VLl2rMnFFq+MJdyl3Ymflmpw+f1gcTP9YzjZ6zDGRy0HqMQ0O5cuXsFWchXI6H5WbUIS6MkCEH+8QTT9grhqQwRstBrPDXi89r/o4fdTafOzLhbNFhKvV3hF589CnrJndjPDyhFzwAvCB+RzA1RRghEv5Iu30znZKDnAR5F/4mvK9ARAp0tKBLOoo/L+BtQ26O8E4wkvBZs2ZZLbh8AgfG2DCehI0YbzGls8xQULLxYnAYJBks/H0MyOTv7T+wv/Zn36PrGrpTaPz756uVfX9u9evdL9GDC3kzyjTcmjKN908YOKFaPjfhOaY7TUpf90sBY7RcYOq0qWoztp9iqhR1pMs7hIaEKPPuU3qoXD1NHjvBkm2TJCdn88ADD7jSJ416FE7qqJ3IO5DwrlOnjqWiwyPAqDGGhQ/697GZcKpnaCM5H0QQwSjuED4wtBDDx4ma35lUbopbmPCa19J9RqwwJuWZZ56xV/yDxspsvnhq8SGXgqHAE2PoJZ6cv0YRb5ZwHnmy22+/3dp4UxreIs/J39erTy9lqxWuEhXd7X5+4K+D2vflIQ0fOsJe+X983imHICdzlXFBIUiOya2fnxjktzgsJnRPGC7GGC2XIPHdtXcPzV/1lULLFdJZBWe8UAhmPnBWlaPzaeyAYdYGHhc2eCS5vIwYr2CnxPoDuREME8YMz4BEPG9uJh37jJrTdU0YwZ9//tlSNrIRJ2QECa/wWG699VZ7xTsC7SGI7JlwKSrEpAwKYVXaLWEUMWQFCxa0phljwPB8qf/xHRY4wFC2gCAHYYOT0nyMFgeiHw9+p6tuTbn4xB82/LBJFUKq6ImWF4fL8E7xGgMpjg4UioIxWl7D/Yvwg5yyIWmM0XIZ+hLOnTdXb76/QLtiTipLifw6myV2U0qipitXdCZFHjihTEfO6dEb7tITLR5PtjEpCkAawXLz33fffZ7X/7gNxhm13cGDBy3pMsbbt+ljBJo2bZqiEfXBQu6Pmit/PRpCphgWf4QnyMepFSMMiVECDBTPAZ4unp4vPMxBIthRL0nBnLV3v3lbj/R5yF7xhgUDFmvJpHf+zfGtWbPG8iBTKn5JDgrQeT1Tg3bt2llSeEPSGKPlIbj/hAFW/PKL/tz1l7bv3W2FDzl9Z8+aTSXyFdJlhYupztW1rbBYIDUlPti8KITk/7zBvepa7iU8h3hfbOTkvhhxMnDgwICfKyfgVI7B9OeQQM4OD5x2UUmBlzVnzhzLY8LAJQYqOgw2IS3yV/RfdBpyLRUal1WRK7w9BB3dc0xZNua08nt0M8F4sqm7/RqjSCQE6TW8lt27d7e8LUPSGKOVQSF09MEHH1gFkhTXprWOBk5AaAzlId012LwJoXkNJ3M2muRyILwehBGT6wKCioxwL+1+/AmDUUeFh4WAgNo3pz3s2+66TY+Nbmpfecs3r/+gqROnWQarcePGnry+GEkEEV5DRIY8rpulDxkFb7ONBs9ArosHgHwXr4RNPZDu3ukB8nds7mw01H2lBoQt/Unaz549O8lOFJwdEb2g+kNo4G/eBq+NAl8KgDHgThOdOXUaQcORc0csERDtjrw6kBB2RijjNbw/yUkbkscYrQwOxaScUlGAkSMZN26ctm7dan81Y4DMHdWc1yBM8aczBocGpOyJ5dxQSY4cOdIKB2OEA1GuoeAktIRAg7wmnztJqsZhYv8UQsEpnc4dCM2bN7dadnkJxcyEPd0UUWUkTHjwEoN8CSdzvC5O5xUrVrS/kr5B7l6pUqX/qCudhvwjHeQxRBMnTVDdG+vq2MljCssSptDIUOXOlVvZw3JYYhHk6oRlGTqJKi0h8I4IDbVo0SLgbhU+GOyIh0YfPrpV+NvB3R/uuPsONR/lrQjDx/S2c/X+4vddqUVMCmoFv/vuO0tk4zbI+H31fl4VM6d3jNG6RKEQmhg6rYQYM5/S/oVpAUQZtN4pWtTZgZwYAjpWvPfJuzoefkxV61RW8fLFlLtQIptp7Dvq2N7j+vP3zdq26m+VzFlajz3y2EXqPmrZMGYY2dq1a9urwYMHzWwnxp0gzAgWDjXUe/FBLRl/d81HqqpMzcvt7/CGnRt2K2p1iHr16mWveAueu68np1uQ56TvJL0yvejiklEwRusSh3DS119/bXkPjCcJti1RaoOAgZqujz76yNronOifyCmYE/D7P7yr/zW7UUXLB9cfMSYqxqo9WvP5er3cqr1V90SuxsmOJvzteIF4bYTTkqvV4m3vM06EOVHo+bpQ0NCYruh8YFjf/mKxHunvrbc1pfNMfbXk61TtEEG5AUIXusM43V6LTvgYK5SvqSEgSs8Yo2Ww4DagSBdZNgMQnTj9ewkyZTwNcgMUaPryQ8FC/q9z/066+4XbVaCkc7mGdd9u0NqlGzR7yhzHcxjI7wkz0h+Q3IwPCsEJB2OgUFz6Omwg9sC4Y5wS67SO0SYfN+OrKbq5hTctsr5d9L0aVrk/1YUJ5NOYZE1dHGF0CslTOpWAn0UfSNqa4cWl9OddihijZfgP33//vTVt9dprr3U0P+IWGBi6yMftsUcnCQp5EaAEWnRLH8N3f1mihq3vin2H2IsOEnkuUvP7L9bIXq87OsV24cKFVl4MD4H8HrAp4nVheMh5+dtJ3Yev9+Abk97Q1pBNqtbAne75PtZ/v1FRG0I0bKi3Yoi4EA6mTo5OL3RhgfXr11slCzyfqECZC+ZvzRg/jwgA+Uu6mWCsvM7TZSSM0TIkCmIDktKICtj4U6N41x8Y65BYWyQKrfE88CooAWDzTkqdx+bywdp3VK+Ru4IO8l5z+yzUlKHTAs5nILMnHIr3hOdEFxS8p9y5c1stn6jXwnNKrouKP/h6DwKy/Q9/f0/3PHenK8b802lfKMvB7Jo2NfihpikFuTvGBU81oZo3QrAImXhfMKGA5xwFJwMufaFMXhO8Ww5SQPeTu+++22oYYEg5xmgZkoV+g6ipCLmRL0lLxouQJqqr5Mags9GzGWHAyE/gcXDrxz3xkts5ELJXj3Rzp4N4fGIiYzS/52J9uPCjBHM3iDUwTBgowkqIZ3ju6QRCSA8DHD/EiGGhmBxvMSWCDB8+T8sH4eOeg3vouoevUelqzogHdm/cq+/mfK/yxSpYOZ7UyGORv+Q547mlDVogYLwo4sdYcV/h7XIQMaE/dzBGy+A3FPASeiIeT3Pa1H5TsomTx0muy4QP1GAU8FJw7QO1HJsNp+pnX3hG9drUVmi4d+WLezbtVdHDJS0VIfVzNMIFNlGfcUIY4a8iktM9PRoxboS2UtKP0ddOKqE5T8y0mvnODJWrW0ZX3VJDYZkCe84w2KuXrdGm77fokbsete4lwtHBjMFJKSho8cgfeeQRa7yNIW1jjJYhYDZs2GANLmQzvfPOO1NN4UUoD2/Dn1ldwEma2rSElHUU+LYb1kZ3P3uHveIdc7stVI92vSwDRR4lpSB7p6CccfRsxMGCJJsmzIxISQwOMgvemq8Nu9YrJnu0qlxXWQVLFFCOPDkUniX2UBPrlEeei9Lp42d0eO9hrft5vXQ6ROWKXKlmDzWzQs8YDfKSjLLxEg49GF+mH/N8pdXwt+FijNEyBA2bDad6QiHE7N0YfZ4Y5BYIXfkbAuP7KUCm5VNCoBJbdeEXFa/ofYPhd8a+rwXDFwVdXBwf8looBXl9fIrKYCDkheFr0qSJvZI0dKBnkCWHCDxFHgMlFQhAONiQ9yHEHFc+zvf5Jjh7aTQYTrp48WJr5hiHL0P6wRgtQ4ohF0SuiI7ydCV3YvPllM8EWUJ6bGbkngjh+boGoJRDmu9vI2CKZJn1lVj9FmHGbNeHKXNOdyZOJ8Xvn63Ws7e88K/izwkwBAgxEJ0EW76A90mnDX/HgaA4hUB+H3VghDG9Csux3dGQmLo0hDmpFSUwBI/pPWhIMZxU8XjYrJCZU5DJpuAvnMYZePhK11f0v4fuULFbKuiyB6rphh6N1GjMs3pg9DPW56zxNb7ng48+sDwJf85cfA+GNamCY1RgF85G2FfecvLYSev3Owk9EVEQ+gxJMPhUif6CYCcQhRyhRQprvTJY5Avp8VilShVLHWgMVvrEeFoGx0Huy1gUNmKUWInVBvF9Q0cO19urPlXWqgWkEtkUHeLf7RgWe96K3nFa59cdVuNad6lLh06Jzg5D+YgsOaluH3SoeH/j26pY70p7xTveGrJEH0xZ6mh4jHwNIz2Y+Ezo1jdEMhAQhhDio81XcmDgZs2adZHSMCn8HdXiFHjaKDAxVoEYYkPawxgtl0G2jKLLF98H3jScLqnfcLo9TFqC8B6qLMKFdDfwyct5TgYMHqhZv7+nvA0uV0RolLUeLJmiQ3Vs2XY9UauRur/azTJQcWEaLAMEk4Lcyr0t79GjfbyRu/uIjozR8rE/acrEqfaKc+Dx4lUw9ZdQWKBQUEteizBscnAwoD2Vv8XSGFRyZW5Pm6aDOgpISjUw3HiefBB2JgeLsSXkTD4Oz5T7gL8DgQhqRjdH+xuCwxgth+HNwFDCXz77RFEb1qrAkYOqUCCf8oSFqoDdKmffmbM6HWvA1h45rhOFiipr9Zq6/s67LK8ksXY66RmM9nvvvWflV9jUmnd6WiG3FVZEZmdvvUznYz2VLw/o3YkL/lUUsmFzwk5qvAWhQ+qPEJVUalpO+S8L3CsJlmULvlPHxl0s45ISkKfT7Z3p2Gy81A6xKROyIwzGsMpAPTkUffzc5GrggHlQdHrw53dQmEuXCH88uJSAwpUQJFvcn3/+aXnadE0hTJxUuQZ/M14mDaW5fwi1osI0o0PSBsZoOQSbw+SB/ZVn1S9qUaKQSkYHNjxvk8I0d/dBhd50q17s3sMafJfRYBN4bPCLyn1XWUUzLMkFQmP/O/XJ33p7wD8d1H3dz+N2waCpLEaK8CSQk2ND4yTepEVj3d/9boVndT/fsW/Lfp3+5YL69u5rr/gP4T/ygJ++87aOrVyhnPv2qEa+XModuxkXyf6P9x4Z+z1bT57S0fMR2hjrzGapXFWl6zewejL6I61HhMEhKrmZYYT6EMbErX9LDIwpno8Thc+JQSE5ylKKsnlNCUEm10A4KRCkUPTMz8JjNyNEUhdjtFIIG+DAzh111dqVejhfDoWm8OmMjN1c39x/TAduul29hgwNKheRFiE8Wu+x25Xt3tKKoYeRi4TE/nfug+1aNGSGlXzHeGGkeK0AxSFGKiEBAOGkps88rOb9mv5TZ+QSh3ce0e/z1mjmlFkBeUA8vhGDBunoh2+rUf5cqp0pJKB77mRYJi3cd1gbilyme17uaEm+E4MR/gglkpu5RqcRDL8/By1Umk52t48Pj5naMsKar732WoKtmIKFe6lr165q06aNX96nwR2M0UoBjPSY98wTGlQ8nzJFpywvE59ToeF65eApdVmw2GrOmd75X6PbtadeqKJC3PGw4hOOUGPhTr3U8nmrjgwj5W/hLuHMZ9o+rfqt6jra4d3Hr5/8pgubojV+zHi/u4oQshoWa6wOzpqiDiUKKGdUysfgr4iI0azQ7Grz+pgEh2dSo4UxSm7MC6FBvNnkwNNGGEKuyGnISTFLjYMJuWK3BB5sl9Sikeuio77Be4zkPUhIcv/+YisNK5rbcYMFOaMjNa5gNs1pfK+V5E7PMOJhW+4jnhksiFS0TpUPt7rU33///QF1mkAcsGj2Yl1YGaNFQ9/R+VMX7K+kjEPbD2t+r0XKvCO7bqh7g6Ww9Id9+/bpsQY36r7P31avonkcMVhwbayXNi78nL578hGNGzPGXv1//JG8E+7DECUHeUX6KLphsLi/pk6dauWcqMVzU5GIV0x+8NSpU1bOzOA9xmgFAQP3fu/WUU/lD2zMQ6DEusHqHrtJzXyyhfWGT6/MnDtbWaq5qxJLiJy1isb+7ln2VWCQAytapKhebNJWy8f9rIWDlujvVdtjj9r2N/hJVES0Vn7yu2WscmzLqw/mfKRu3bpZmzi/A2UjasrEQFzR4cZ6Gh12ViVinD8cxboOeqZATlWcO1nd2l+82ftjtBgBQ1f5pMA7IY/FSA8nQcxB7orekRxMyCs7/TsSg84qKGN9vSIN3mHCgwHC09W8ZjWNzxVqGRUviAoNU8dshTTj08/tlfQFxcA7r0ud26z0L+H6cuFS+8o/fDVEdIKgzyIS+vr161vhsveXvq/dx3YqOmuUylQpo/xF8ylrtizKmjOrzp06pxNHT1o99nZt3qOsEdl0ZckKavpQU8v4kMfh5/jw5V74oCsELY7iQoH2E/XraXyOGIVHuWCw4rHsbKQOt+6gVvYoEqIJ9GpEAp4Y/oQGUY7SIzKlCsm4MGmbcKNvhEjnzp3Vt29fT0USKIWHDBmigQMH2isGLzCeVoAQ0nk8yz9ekFeERUfpul1bLQlyWoUwEWEsPujrxmP1fRw4+c9codTg0Omj9mf+wcmZhrMtW7a0Om6gnmvQoIGVe8KwjBs1TnPGz9O91zyggseL6MZCN6uyaijP9oI6teK8royprFuvuFMfvPmRFs1YrIH9B1rqOwp8EaMwr8kHtWv8bA5CeO8o8OKeIYfGboYDsntjsKBBtnBtGNzXUstBcp4W3mJyqjyMNfeGUwYLOT+tnyhTaN++vWWwOGQg6/da1UfxPLk0HpMT0B+TQxKTFNhnyNFhmLlOz5EWpzGeVoC0ebSZBuxcb4VVvARV4ej6DdU/gFMdyXvUZj74nDUgJMWbHdicCLH44HNfTQqnSTYDNgXeVPx7X4eLuN8HbGA+YQFehW8T6Tq4lzZfc8763GuqrM6l92Yvsa+SBgNLDRFdHZjTxfNy11132V/9f9hQqDdDNccIdh8MTET2zaaaWGcIDCIeXNyeiWx6hM/Il+B1oa6jxqpLjUoaVCxxL8cNToSF6806t6t/rAdBg+HHH388UbEInhhGNzHDRTE9AzqRiTvRMolDREIjRHzlC/S99BoOGldddZXfkwbiQtkC3jvNmnlv4dHys8i/UpCPcpj7AQk/Bx68S963PN90pc8IAq1gMEYrQJ6rc42GhJ+3r7ylXbbCurnF45bh4ITnS4DHNR4kiDkd+07IGA5fXztyKHE3GOTMvs2EEFj8ThJO0bd/Py3I9IMiwr0TYkCmiFA1j6mvHt262yuJQ8NfjDhdGjjZsjkk1iiW2i+KVOn4ETefQ36lVatWVmjxueees1cvho2KPBbGLX45A4KCuKKb6xbPVOUQb7ysuHQ5HqHJazb+ZwBkfJILDS5YsMASXiSnPkwOnjOMA/d0QiNEmJHGIYIu8l7DQQfvPKHDTWLwfqUHIgdCaubq1q37n78pKTBwhFwRgtDrkdfIiUNBesEYrQBpXbWCBudNnd5lXTPn18SvvrGv0g+EDK96soFy3pLyWVGBcOrLHVo94xtLAp0YeAN4FISvkH1///33VngssfolClYZ/cHplwnBcRvd0gkFI0ZnDQxeYrVIGEc2fAps47fxIpRGWAjDOebgVuWM8dbQw8CdBzVw8w7rcfhG7ceHsB/Ch8Sm/OIVsaGndEaWb4QIxooRJwlBbRbbWNx8oVfgJXEQpO1TcmB8MVYcdnr27OlIk2SeZ+rRGjVq5Hc3/vSOyWkFSglnRowHQ9Yr0meXDKbuNq16lzKdthc8INOp2E0sXw3LgBBW8fV9jAte6ahRo6wpzBisn3/+2QozJVVwizEhJMYpOf6mw+ZFnoewzerVq+3V/4L3i6f1xhtvWBtZXPCeX3rpJWXJlElZU8FgQd5M4dZzkxRJqQYJdxLG83cOV0JghPCgMEhI2BMzWEBoLiXd7FMCv9cfD4/av6eeesoyLsOGDXPEYAEF3UxW4D7CEMa/nzIixmgFSLHa1+lUmPeu+I6QMFW57r8FoOmF4YOGqsAvEQqPCqz/XTDwOwr+GqV5M+dYJ33yAuSbaNLKyZjwDJ4C14RWmBiM10C/uaQ8A8KybMiEYhISKBBuJW/IJoo3lhTUguE98LgS4vY779SB0NQJ+eyN3RYINycVskqqPmvu3LlW3imQkFdcCLfhkaCmRB2YXAE2hwUELl4HjTgIUcycXHcP7gkOIuQzUVG6AaIecqH0f8zowTNjtALkmRde1MTdB+0r7xi376j1Bk6vICx4d8Yi5f7qtDL9o/9wBby5vMvO6N2Zi6zfSfiNsBE5Jj4YtMjJdMCAAdbGjCqLMBbeWFJj5eGHH36w8g9skAmp4XxGC6Pmz4mXhDsd1OfNm2ev/D/MJlt+NPH6LdeINTRnyiTt0ROSSmzzxcPEiAQ7I4sRInjHbdu2DUjcgNqT0flekpTgxgeHHFSOHE7cVjdeccUVluilX79+9krGxBitALHejPc9pJ1yry9dfH6LiFGNth3T/RgTNvXvP/xa9Q+UVcTaI7E3n3NeF2O4ItYcUaUNuTWq97BER15goAipEJojCc74DQQH1ER9/PHHVhgnMXwdv+kcnlATWX4nXhxw+k6qaNgHAgKUhHiAccHL+KFIKcUE6a0EyzdnI9W0Uxfr88RO7ITsbrjhBvvq/yFXR2uzYFR8GHtCtRhyPIakpPYJceONN1qvC93cvYB7gY76yXX4wLvq3bu36wbLB4cpcrgcwjIqxmgFQd+hwzQkSz6rP6Db7AsJ0+LyNfTiSy/ZK+kbvJ/J497Q/GfHqMDX5xSz7VSKjBf/NnrLSYW/s18Lnx+ntxcstjbP8ePHX2SACO0RDsRA0D0BCO1gWFAD4oXxhkeCjEgCEQJeg69EgE3VZwgxcAkdIFBn+jys5PJacWHDRRFGTi0urQcM0uSDJ+wr9zkbGqZFOQvqjjvusK4TCu9hyPj7E9qEZ8+eHVRHCmqRGIHPa5BcR/mE4LlD/UnNFoW+yYVmUwrGkUNPjx497JWEwcvCeLgVEkwMFKw8voxKWJ9Y7M8NfsLmdPP9D6jjkvdVOfKc8rrUtfz3WA9rSsmKGj1jZoaTtNLE9unmT6pmrvI69M1f2vDzGmXNklXh2TMrOizp5xMpu3ad0akf9+jm0Gqqk6+KZk2eboVHgCavGCBUZ9S3cPLkTUwS3NexHBUgkmHqrHybMzka/h2hOb4Po4YHhBSdMSAUF2OsCI8lViNDbgwlGaFHnyTZH/h9fD/GwGccMbDrw7Pq8M8/qnQmd8+X0bH3dPsDpzX6k8//NUj8LfEfP5swzxN5wLgQOkXCT+8/f0GBSdiMTR3lGweaQMDT4TXGe+Y1Q3bOgYTXmpxlMAYwOVCachjBOCaXs0OkwT3puy+9ghwg9yvdTILNK6ZljKcVJBQC0lZpSb3bNfXwKUXFvumd4kJYuEbsP641zVpp0sK3rELDjApexow3pmr7x2s069Ghej7H3bp2fREV/ilSWT4/oqgv9in6y/3W5/m+Pasrvgu3vmdW82HWvxk7bJS16cVPhlMAzYmTjZScAgMHfQW9yKgJBXKyT+xNTScM8le+XBjXnLAHDRpkCQUoaPV5YQnhb14rLuRlyOfE7Wf3bOvW2vzwE5pzxD3pJQXFLx6NUO/3l1oh3KTAG7zuuuvsq3/A+GA4UFX6C/Vo5PJQUWJw/AVPDwOJd8xjefjhhy1Zvs8wcKBERUcYn+fTKVUhv5OfR2jZ34GamzZtCsiIOwmKRox6RsTUaTkAeZERXTrr2u2b9ED+XMoSZBfuk7Gbx1sHjumva65X5wED/3OavdQgd4LXgXiCYmp69WEI8Jh8RoqiU6TXyOrj89NPP1miCXIkJPiRo2MkMQzUSLHB+QMnayTuCDrIf6GMw+NgnceD10hug/AUnoOvtolNOX4tV3IQUhozZoz1M+L+O7ywua1bqXuJ/CroUJf32J1X7x89pWVlq2jUnLn/eZxx/xbgb+Xvx4jHJZAZWUjpZ82aZeXyAqmrQq3I60aNE+UJ/s6zomsH4Uc8WUKXcYvrk4N6PR4reTLydCj0AoHnhd+ZVO9Gt6BcgPdNahlNNzFGy0HYyBbOma197y1RrdBo1S2YT6WiIxId0kcj3G0xIfr+0FH9kTmHyjVppkdatLDCWwZZtT6c6n3FweSkCHlwgiUUhKdD94mEujKwWdHhI26nAvq6MYEWWbsvb+MPhJt8XQf4nA7fceFEy6mfImrCjhhVHjePE2FGoEWvbOz8rQwbjOtlW3Vlw4bp6NxpalWikIpHBdfzLjIkVN+cuaB3wnMoW/WaiW7I8Tti+LyWuJ4RrawIhfpjRAiz4rHQGsrfjZz8FLVxhGV5LYMd6oj3St6MewAvCQPL4457MERJSnmET0DDhs9rmVRxelJgZDGS/oaInQTxB9MEMmKUxhgtlyDvQQjp1x9/UFTsCf/Yrh2WB0a8+WysR5WnWAllK1lK18RubuRAOK0bLgYxBF6NT0nGRs4p39c+iBAfocG4E3PxVPAQkJLHzTtxQqd+CEOA8oviWIxX3B6ACYGowzdKnjAYOS5Uh4mBIID6HQwYozPIixGeTMgTTAoe7/z58636nvihKB4HuZwf58zUZTu26YYiBVU1c6iyJeGB7Q7PrJVHT+rH0+eU7ZY79eBjj1sKQIwth4OEOpXHN1oYbDwvX90Uj5F/m5zsm+eB3oooA8kLJgc9HxHE8B4ix4gn7UZOl0JyfheHDoY6ssEXK1bM/mrw8NpjALnP8O4xHl5DaJwZYxkRY7QMaZb44SmMBx4SoT4S9xg1NnUfnJKpwaLeKu7mg4qQmpq4ngteGnU93P4Yr8Qk1vwu5Od0ZCC5jZFLqgMCuR0Mp88bwbPDsLIx8rsxpHz4IzrAa+N3JmUUCJvxOwjt7Vq9Sru3b1fU3l2Wl5kpT17lvayUQvPlU7Xa11rTmwnLxYW//9VXX7XCe4ST4hLXaLG5EyrzXfPvkKhTzEq+LzGIPhCeY8pvcqE5vCEOIrw2N998s+equ0BB7IHQhw8OEoSb+eDvJFrCPYPCcPjw4QFL+FMCYWue9/Rc15kUxmgZ0izxjZZP/ECIyBc69NXJbNmyxTIwqAHjyrHZTDhxksNKaHPltI3xwjNLSBBAwh9jB4QieTxJJeHZyDhh+8KScfNabPyIOdhUkGlzuufxJ3W652/mb0usUwfeDoYtrveHPJ/u6hjJjh07/tuVPzEIm/E7mEkVl7jPP8IJQno+o5fcjCwMN387IbikeuKx/ZB7ZDQLzwOHErcaNwcDjw+jhMfsM04+A0TYEAEIUZLE8nl0WSFCwIh+L+B5RzDCASOjKY59GKNlSLPEN1rkdNgsOUGyzteBDZX5SiS94xoUxBO+nFdyxZ3kTTidsvn7FHSoDDFAGB1IKJ8VH4wRHiF5G0AIklheC8+CPBGGjo3Q54XFP5UTKgM6y8cHCTY9/uJvmrytCYdiEDDY8b2ouBC+69Chg/W8sjFjXNmk8fQIzWH0MLZ4DTw2vsbzlVhNFsIFxrfE93jjwmtDzgexA4ePQBSEboDIxGeYCO1Ri+YLg6JEpFM94c3k7qOEIGTMa03Izk14zQmfo57MyOkGY7QMaZb4Rgs4tbKRYhhoWUOOidN8/FwJBs5nZPw9uZO/YpwGMnnqfQg/Nm3a1NqoyFNgAPxRkMV93HiG/rb7wUDihbFhstnjheGNAcISPBtCfD5QVJL3SupnkxcijIdR4AQe16hjMBfNma3jy79RnkP7Vb9oQRXLnEn5w0OVNXYTj4793vOxH4eiYrTz7HlLMHSqSHFFXVlZHV999T9eFhs/rwuGLaERIuCUsCJYeD0wTHxw0OF596lIMUqE9Njwne4+w+vEa4FBScpTDxbuBQ5nnTp1+k8IOKNhjJYhzZKY0WLjwUjRIofTa/zN0zf6g1BhIHJzH2wueHR4Td27/zOLi1wLv4eNLTniP25/PLT44IFgVDj9c+LHAyNfhnrSN58KQ4aYIqnwIvB3EC4kt4cogL9t2YghuiM8RrflzhrwZGSERO8fOanvs+fVwz37WJ5oUiNE8NwIYeKBocjj0BFoIXGg8Dt9xgmPMS7km3gd+fBSXceBhPxWr169LhIPpRQ8OSTudI/nAJfRMUbLkCbBUyLEhHowLoT7gPAScLKMC6EuWjhhzFJSH0PIkXAheQEeA6G2+PVJiRHfaAVTrxUXjDReGEaLeV+EGinkJYdH6M9fyM99M36MOuTLqkqhzrztvz8fpdnhuXRN44cslaQvpAaExPCE8WYo7nZyo/bhU2gS0sNwAlsaj8MX0sNzcttI+gvPBTlWXk8OVRxGgoF7AoELni1hXQ4zlwrGaBnSJJyQqamJX09FNwI2JE6rFBvjcflOl3gUbMwo4RJrmOsvGD7CLSTeCe2wMTJszx/iG62k8lqBwt/IaZ2QFuE4lGpsfIQNk/Iaxo4erfNvjNLTBZwXORBGHLTvmOoNGWXVNSGjpyYLmT+vnz9Fx8mB9+wL6fk6PfD3I67Bc8IwYaDiGs20DK8jhw6KxmmLxSGE0pfEFJaUUWCUqXNbsWKFdZjiuU6ocXFGxxgtQ5okvnQc8LwQJbDG6RLlH29g8kx8LwaLdX/yJHhRGCLUdxSTcmJnw8AbwkPjaz4xBad4RAPkDRA9JBcijF9fxqmYx8bj5DEDyX1yZcHkdPAyyefhdZIf4W/h+WJj529A2BD3MQ7s01tXf7RIdbK4u6EvPn5Wq2+6U4/FPm/JdT9PDDxsnntUd+QRgdeW14W/yffhRl4otSCUyWtIzpQQKl4hpQwIYMhvYvQxWhRwczjx9c+8VDFGy5AmIQdCtwIkxdyihNjITeD9kDvxhep8uSuMAqKJxPI7nNLxmP7ctklZc2RRjVrVdUX5sipYqIDCYzeJ8PCw2M0xUgf3H9TBA4f0w7c/6NTx0yqQt5Dy58tvFRfj0fG72UTpeZeYZ0POCANHDoPNh00HRSLhKp8ohM2Zv4c8E0aTTZnTNmGe5KTKyODZ2PmbCA/G3cCRu5ML42vAiT7PlLG6P3fitVRO8vqBE7pnzqJkjRZ/M4cBngMKcHmNMe6IYHxeU0ZWwBmCxxgtQ5oE44DEGxUX4gs+J5+DsfJ1xgBi+oRNkFcn1N2CzhfTZk5VhWpXqvEjjZQrd2DhschYQ/bZR1/o2y+X66Z6DazQI94Zv5eGung1PjAk9JvD4+Hx0CPP3/6GnKQxNhhnPDRqwxLrPcnv4OsIRggX8ZgSgsfRpkZljSyS8vCc38Qa0LYRWTT7p39aPhFexTjxgUElpAd4sxgmRBvJCUkMhrgYo2VIk5CsRrzAjCa8HJrnkrthk0OWfvfdd1seDPkdTufxZd94Gj1791CDO2/UHfc6k6TevHGLJo2aomeefNYSFmAQqV+idx+Pl3AfxbxJdYjwB7wjxs3jjXXp0uWisfZs/nhwvplgvp6Hvuu4ED6sPWuCyigwdWBK+fxMhP645yHLKPmME3knr+XtXoLHyD2HB+kbBEqolnsCAYqvdMGQcozRMqQqhM9I2pOT4fNju7Yrs2KsgtuDUSFWohljhVeBCAPonoBnwv8RYqBQI2zog7zXvMVz1Xtwd4Vncr4rwIKZbynqtNS5U2frMdBGCeEGxtNJ8FJoU4XhopUU4GXiWcUNTfL3sznSwT4uLzxwrwYd+tu+8g6EGcPr3qlBHnWBSA3wqufPnattX32usK1/qlKWTKqUO4eyZMqkoqExilaIDkTHersREVp//KQ2REQr7MrKqnjn3VYYO9gmvAZjtAypAAqweXNma8cXH6pM5CndcHlxVcuTVTmYmR+PyNg3/1/novTdjv364/g5hdeoq9sbNbbkvvS9ow8goUQ2bE7y1FP9svYnPf3iU/ZPcIc1v6/V3MkLVbxYcWvGlr9hwEDBOFMrRiEuhuujjz5KsBMFYUWKSuMWlj5Xs6qG5EgdwULXvCU18cOl9lXGga72Cwf1V8W9O9S0aAHlDrDT/uGwTJq356C2X1FJT/Xqo3r16tlfMfiLMVoGz0AhNapnV11zcrcevrKEcofEHkUDJCr2FP/NgZOaumG3GnUfYJ1aSeQTqmNTHzt5tHoM7Gp/t3vs2rFbk4ZP1ZQ3p3iiZMOTpCMGodLEPDqKmAmbEo6D1tUraXDu1Ok/1zVXMU38+DP7Kv1D+cXgNi/o/mP7dHO2lD+nMbH3zLvHz+r7MhXVa+z4f18zQ/IYo2VwHXI03du30xV/rtBTFYsrzKFb7tdj5zR+91n1nDzDqnf5+defNWhMX4WEum9EOrfuqhlTZ3pWtIqyjtzZkCFDLMUhzyn1SoQQ8cb4P29lJNO+3omHf/9VU7MEN3MrJbAhtylaQbc3bGh5v6guqZvj/+mxYwPdJn585WV1K5Yv0dl4wRIZ66F333tMTSdNtzrbG5LHGC2Dq5Cb6tL8IQ2rkE9FMjlvTKJDQtX11606VqWuqtepooeaN7a/4h6rVq7W8V2n/9Otw23oyoFHSZ0OykBUhoQlqfNBJs81ua7ffvvNCieu/OUXPfH9JyoU7dCkYz9ZGfvrTrzSzxLSYGBpScX/+UCkgKHH0PqUhNQjIVqIa+DSSqf3KZMnK9O4Ya6XDEw5fErlB49KUFBjuBhjtAyuwem/zV3/05tXX6ZMMYGHAgNh1JodKtK+o26543/2insM6jlYo4eO87z7Aps8TW+p56LbRNyPuLVdzBWjSS/f2+ua6hpQ3FmBSHK8dDxSM1av8zvPhwH2GTWfgfNND45r4AiLYtD4QMiAgXOzdyAHhB+fa6nWBb0pGei/75ieeGdphm94m1KM0TK4Rst779KokmHKlYDAwg1e/mWrHps5VSVLJz2NOKX07tBPb76ROlNhKSZGqZgcqNtoExQV64VdOWeSrnW5G4aPRcfPqthro/4d5+IkHILw1OIaODqZ+PAZOJ9hi2vgAs07WgeEGlU0Lq93PQsJq7aNyaE5y3+0VwwJYYyWwRWQYYdMHaRbCntX2HpeoXr5VDb1nTjMXnGHfp1e0xsT3rCvvIWiYrp/+AM9Dykl+PHzz/Ts5lUqFYTwJRB+uRCt3+9/VF3szvipBcXfGLe4Bo4Qatytjlo6cn++cKTvw8dbb72lwiP76yqPdSwfn76gy8ZMcaRPZUbFGC2DK7S65zZNKpOFltv2ijcMXr1dDWfPUOEiSY92Twm9O/XXmxOm2FfeEojRArrVU+P22bvvqOnuzfpfNnc8hzlHTuuv2+5VlRo1rLxMXAOQFsGTQnXqM3AYNv5PmJU2Xd++87bGnfynMa+XUOM27Lrb9NrwEfaKIT7uFJcYLmk4B+U/uNNzgwUNyxfX6pWr7St3KFy8kI4c/afrgZcQHqPRrr8QIqRjByNC2r7yqk6/3F1d9x3X0TDn3IddIWFqd/iscnTuqZJlyuj666+3auWmTJliGYS0CvlIcoHVq1e3coTMAaMzPyUF9LLMceSg/Z3egjrx2IZ19pUhIYzRMjgOm2WFvKmj/ro8W2Zt2/KXfeUOj7R8WCNHeH8SZpBjchOQAWNB5wy6hrMRU5xM1/RratdWo1gPcUi5muq9+4i2hARpvGK9gdXRoeq095g+f+Axvbl6vbXZk29DuUhe6cEHH7Q6k/A4MJrpjji5Mq+JOXPG/syQEMZoGRyHfMHpCxfsK285HRHpqqIM8hfIr7PRp7Vl6xZ7xX1oCowxSKp/H54YPRDpFkLXjIceeujf8Shc04uQprVvTJ2m19Zt1p/Pd1aX3CUsA/beyfPaFZ5ZF0L+uyWcDQ3T32GZNe/oafWINVRdi16pE10HqG63Prrrnnv+/R0IISgDYIYW8nwa4fJ7CVFS+Ez5Q3ohtGTCzYq9IFv5CvZnhoQwOS2DK7x8bSUNr/3PWHgvWX7wpL6odr1e6BjYePtAObD/oFo/2kaff/a5I0MOk4LGubSsmj59eoJjS/j622+/beVp8HDiNtgFjN20adMsKTWNh/HW4n8PRcuo7DCOiBZO7tyuA7EGrkLt66zfWalSJatwuXPnzv8WVLN14EnR/5GxK/Ghaz2/j9AbP5t5aHiBFEkn1sE+rTD0tdfU5JNFyh9gm6aUsiUmVOue7WCVKxgSxhgtg2MwsI4u5Js2bdK8N8ZreplMyuJBd4q4dPhlm87WuEFlK5dWy+f+26PPCVb9ulrvz/9IvXv1sZrZ9u/f3+o+7wYYkR49emj06NH/6SZBVwymN9NoGGPl64QRF14TDAviCDqtM+dr4sSJatu27b8eKcaO74nbdBjiT2BG0LFlyxarcNkHBhEJPr8/oU7mdPKgNySPlRlk5JLon8gwTH5OQsYuLUCtW79rqqt3sbz2ijd0PBj7+qzZ+K/3avgvxmg5DG9STpd0/97y/Xe6sOVP5Yg9rUWdOK5cISE6HhqmTDly6FTW7MpZvaYqXFPbavaa3goKqZFhA2MkA8Wh1MEQFmRoI5shkuFyq77UU+WL2v/CfQ5FhWhy4VpqH+sN4Dn8tXOrXnq1jWN1W2dOn9HYYeN1ZelKVv4GeL0Z/c/4CU7HTjXOxZDMmTPH6nk3YMCAizwsficbP22cMEaJjb1AEYd3Rr4prpoP1RzhOzrI83i5X+lAcdVVV9nf8Q/xjRb4ZnnFrXvi8fimRic2Lh4Pi3uicuXKVrsiFHpLly618p+EE3n+0hrDBg1UvQ8WqIpHNeTfnI3U8bav6PFE5qMZ/sEYLYdgmuycyZN05otPdF/+nKqRNZOyRyXfPudweCb9ePy0vooKU9nGTfVU7CYRiELMbQgV4T1xyiahzmZDeIhTPRsNp3fGYvhgKOHGjRut8RndO3dUyyPrVS67+8UukSGheuq3PZr06TIrXMdEY8JgeBC/rflVTR9/SNVrBXcw2Lt7n+bPWBD7ZITplS6vJLgxI0Bg477vvvus8JcvhBYoGID3339fixYtsmZzMWLdB14NXcZ5LfgdSXkpHCb4Oa1bt05wvhed9unXiFHiccefgAwJGS3md0Hc4ZeAJ8XPadWqlTVDKzE4zNFpgpAhIUL+3k8//dR6vExtTkuj5Nkan32oiboc2KpC0e7OJNsWE6r5NW/QsHHJF45f6hijlULYQIZ3fVVXb1qtxvlyKiwFN/epsHBN2H1IYQ8+oo7duiX55ncDQiKE9jBSfM7Gy0mc7uKEv5LrRM1Gy4ndFz5ik33qgXvVr0iMimd2L0zI+JK2P29V17c++ncjp7iZsSVcY2jZGD/6+CNFh0Wqao0qurZubRUrUTTBeVv79xzQhrUb9MN3P+n08TO6vs4NatKkSbKvB6G3wYMHWyE5fiebMEYHaXVS4LVi9HjMPOe8JZnRFRc2eg5G5I/wVpJixYoVVkd9PKykOkFQeIwRYdQ/oo34JGS0eGwYJ8KL8cHj5rBA/o1+gomBoXrnnXesXBxd+jn04FliRLn/8MR888NSG17LDk89qYe2rVUtF3pnwpdnIvRTvVs0ePQYz1uDpUeM0UoBNNPcMXygXiqaV+GxG7RTHA/LpN57j+rZGXNdmbfDpkGuhNMtmyGGlw2XzZXx9hgeX76DEBNvJDYVcipswrfeeqv1fT7YoNngGNhI3Utc8NRebddWdx/aqAaFnZfBH44K0ZPfbdQrE6bqpptusldjDwC2OOHxxx+3V/4fBAUYADxCNtpzF87F/o2hiok9bxDyxIvBk2Dj9Ndj8nkaPpEDzzG5HKYM8xzweHhOMeQ+Q8I6zzUe67XXXms9dxgR8HkyPjEDIeSrr77aWksKq3VT7Gvlb+PVvn37WmHBhL6fWquEJPaE9XjMCYX0yK/x7wghJqfiJExJyJDDBQYeeH6+/vpry+jyesYPWSYH9yKvLR7hmo1rdDLyhE6dOaXwbP8Yg4izkcqVPZcyx2RWjYpXqVatWtZzHzdakBBjR43S7nEj1K5EQWXzI4LiDydiD6lDdx9Wnd4D1SKBGWmGhDFGK0g6Pvesblm5XPWyunQyit3YJh48oZLd+qlFAhuvv5w4ccIyShgo5M5swlT+kyshT0I4iw0xvposIdhk+XcMHOQESvKdjZa8CfmMpDwK8jPfjx2s7jVKq6gDTRkiQkI1bs0OHapRX8WvKK+SJUtafx/Jfp9HxKk/vrggOQgnPvfcc/aVf2AkyPU8+uijF0nSkXivWbPmIuFCcvhyRrRgwvPAUPnT0oe38cyZM1WhQgXVrVvXXk0aHjd/L8o+POn4RjEhTwswDBgmPKqE4HWYNWuWlTNLSO0YH4wMhuqBBx7411Pm7+FAhTfIYShumDQhfvzxR817a562Hd2iq26urtKVSylr7qSNZsTZCO3auEe/fb1KhUIKq/F9TXTnnXcm6p0SHh/Ss4fyfvOZHiteSAWCVBbuCQ3XzN0HFd6oqTp26/4fgY0haYzRCoLX+vXVDUsXq5r7qRq9eeikrpk4Xf/7X9Ldy3kZ8Z4I7eEtAJsLCXg2JDYzNqmRI0daXlL79u2TPV0mBb+PzgcYLH6WPx4hXs2Y10dq5wcL9WDpAqpfKJdCA+z+/vf52M153d86Wr6m2vfuZwk/EBWw4fH3EaIkp9WoUSMtW7bM+tv9TfLz/K1fvz4gI8PzgHHEU7nssosFH3hfCxcuTNDbSwgOF+QE8VbI7eB9JBXe88HvwfjwuP39W+H777+37oGaNWta9V10huD59JGYpwXz58/XLbfckmjdGBs8rwUG2B9xCp7pe++9Z/3thAzjhhfxNH/99VfLGMfPpWHwBo4YoNI3lFT1m6ooJCzIEF7sLrht1d9a8fZKtX+6w7+eX0IQzuV1/WPBHBXbs1PXFyukapnDlCMRD+xkWCatPh+h7/Ye1OEy5XVd88etcHNiwzwNSWOMVoBw+tvw4lNqljf4DT9QOuw9rhG/rv73JieUR4cDjBOnWl5CQnhsmmw6iCPin3A5iVKrM2zYMEdzZYRzOJGz2SD/9gceLwblvflzFfnnHypw9rhuLFtCebNkVvGs4f9ucofORehUZLR+2bVfG09HKqrkFbquYSNroyT0xKYJhIK49oWSUKSRM2HjR1qNKMQf+DcYXzwPf2FjJ4yVmLFIzFuJD14ZKkGUdPfee69fHgqQe8TgoFxMTLmXGHEFGLwmeHnNmjX71xAl9djx4BmOSN4sMThAcbBBDOKP8QXC0RgE8qjk7+JChw8+ateurTp16qhn7546lGO/bngw1rMM0lYlxLpvN2j/z4c1ftT4JHNzwAgVQrrkJHft2KGQQwd1khZfsfdwzjx5FFq0uBUFIARZo0aNFB0UDf9gjFaAPHHrzXr9/CGeOHvFfQ6Hhmt4hWt0dewpkxMpiXM8CHIBCdXmxIdwHqdDPCK3IHeDx8FHoMlkjDA5DF/zUjYCvCUMESFH+uehSou7gZALwXtkI6ATBKo6QoNxYTPh8VAQ648qja4NbLD+godHqUL8PF5ckjNa/M0YS+pyCN22aNHC/kry4BmStyOcGehmyP3w7bffXiTAIPyL4aL3Hs9/Up4W8HVCokn9boQVeEq8foHAa054lPA1BiwuPO4Bwwforna3qkBJd0Jr506c15LB72nK61Mto2NIOxijFQB4Nx/fe5ta5E/69OUGnQ6e1pRN2+wr/+ENzinw5Zdftlfcg+eHMNXQoUPtFWdgc2YTwwOJC7/r7rvvtjaVxHJRbHz8e0JohGQSC2fxNsDAsGH7A0W9eGTJ5Y8SM1oYWgwOxopQJkaYx+dvdw1eU4wyxiCY2rDZs2dbz2d8r5sDA+2eyEcxSDIpg4sXSziTx50UHGg4lJD3DATCvYQMOcjgASJawbN/9IlHdHO7G5U1l7vtuqIjYzS/xyK9PfudZD0ug3c4Uwl5icAb79oCyQsW3KB05HkrFBQIbEBsTl4YLCA0Se6NDd1JqOfB8MQHL4C8CQYgMeg6zqZOiBBJOYKQuIMDfaAo9DcfhFfHBuqv4CEueJU8BrwrhCx4VoTO2KD9NVjI96mzwqAEY7D4XdwbCYWJeQwYF7zO5EJ61BPisfHzkgJvGG8JIx0IeOw8R3xwHxNqHDxksK5pXtN1gwWh4SFq3O1+vdy5nb1iSAsYoxUAbJxFPW5L5OPKvLm1Y8cO+8o/ODEjafYSxABOGy0gT8dGHRc2NcJ5hKkIJSL0iA+iE5SO/B9BBHJ9cntsgHGDDCT0ESQkB54FP4+f4w94Ughi8PTwpjBY5GqefPLJf40GEnI8xuTg8fLvCcdRnBss5ACTMriEZFHRoWAkZJgUiDfITyYHAgpUcjzvgcK/Q6lITveb9V+pcJnkQ+JOgQIxsvB561BjSBuE9YnF/tyQDCTLM/30nfIHqHhzgi+OnFCD9p0Dyl0gO6brttcQwmFjp8u3UyAyoQYpvmEhD8Qpno2fzTYh2T3eDQaN0CAeEol8NmNyUhgz/g15F6TVSYH8GvFLcuGwuHDQIYyHgABDR+Fs3FATXgriHp+oJDF4vHg/PEZ/6rWSgpAbuaKkPClUp0QWELXEbTHG5k3IFRHGe7Efqz7/TEsXvaUfv/1G3//2m2X88WT59/HrtMjD8vzxPuIQEii8/uXvLqMsOdz3suJSulIpfTjlY915+532iiE1MZ5WANCJ4LejJ+wrb9kW+1L5I7rwwcaR0AbuBRgFTulOgrHGY0GIEh+MESEkjFBC4FX42g/5qFKliiVMQX1JM9qEQoZxYbPG+Ph7CMArIoxIdwpUfdSLxZfEA14K3kpSoMxEIIGxTGmbI4QfPF/+qPk4DHAoQGXYpsWjevGKkvr6wbtUccJQtf1iiXr/vkw9//5DszKdVb+/VqvTsvf0yPtzFNW9vUZeVVGtrq6hwYMGXRTaxRMnzI0RD5S1G9cqd2F3O+onRGh4qHYfTT9jVTI6xmgFAOMZvssdazj8lO86BXUeRRo3s6/8g2aq8VVXXsGmGGgo0x8wPoTnEgLvAw+Gfnvx4cRPeC4hzRHeD3kvjBY1Z3SuiA9/C97FU089Za8kDfOjMIQ0skUokVRXDYw7BjQx8EoIfxIGdeIQgiGNLyVPCJ8H+FH3LrpyziT1375WA4vlVdO82VU66oI1YTch6LdZOyxaLxcvoBHZotX808VafPuNeuaB+6wOJMABA9EOnmsgHD6VOtOE4Wy0GcyYVjBGK0Ae6d5LH586b195w5CdB9SmfQf7yj/YMNkYUgNO827IhJGW02EiMQhHIkygJi0+tGQi3JUQFBSjliNkhrdG+MwnLuBv8cnKk/NOKIBlujAhR8QvGCO8Y7y5hEguj4ZikpAYP8sJ9RphW+qrkqvT4/c+FuslNf7hc40qnFPXhlsyY/urgZErKkKtCuXWa4e36/0H7tSrL7W1PGbEHiggfYbMH3Jm8d7L8pEp9j9D2sAYrQAhYb76pjv1V4w3T92SE2d1y4ixARW8Ap29U2vMOWG0pLyHlECuJDEjQAiRnBGhvLiJc5RyeFqEuZhN1a5dOys0SP0Wn+NF0SeQ5wvjxGMfM2aMNS4e1RqhvaRqz/CWRo0aZeXN+LlxWw5RU4ehSIik8mj8blpm4WEFWveWGITkKMpNCjpdzG/cUONzhaqqgw1iw2Oi9WzBXHrs9+/U8uabtG/fPkuMQng0vsAmMcqUKKuIc870/QuIWHudP+v/j3YxpC6mTisIOIW3friJntyzVZXD3Hv6Fh8/q7NPvqC2HQLzsnwMHz7cKv70etQJmxGhNjegYwLj5KnbiQ+bMoYL4cDAgQOtrhLkU/A66a9Ic1SEGAnB95F/IveF8aGND2E+njuUegkJB+jniCdEkTPfj5fHv6UuiUa3m7Zt1IlTJ3Qq4pSlIuTr4VHhypUjl8pcVtZaQ7YeX1yD4SAUmFzrrkBhWCMGODGPEdXn/p6d1DTP/zdDdoPzoWF66VSMpn33g+WV8rh4jpO7TzFuPd/sptufSFq04jQbf/xTDYrd6ldY1eA+xmgFCU/bkAEDlGPBdLXIn9PRDhnnYk/WA3cf0Z2jJ1odx4MFD6NDrMGjwNUrqIVCOUjBrFsktvn6WgDh+VBzhcQ92GakhK7IJSF8wIBQC+ZrxkueidwZxpDXB3EIxuu9T97VyczHVa1eVZWqXFJZciY+ffb8qQvasX6n1v64TjnO5dIDdzWyZOYoPjGwTo/mIMyJVxO/a4gPQqTT77tT3Yt6U4d4LCxcAwqU1pS337WeP4Qmjz32WLJio6efb6V6z9dWeFYPGn9C7Nt6Yc+39dFbS+0FQ2pjjFYK4XQ+tktHNT51SA2yZcKa2V8JnMjYk/isgyf017U36JWBryWoNgsUNipyFORs3IaTMG2T6G/oJnhAdKWP2z6JfI3Pu2J4Il6ME/A39evXz1IN0pII74o+cogJ+F10jVj89Vv63yM3qmj5wEK4cdn75z59OvML3X1dQyvE6FRI0Ae5OgxsYvmsZxo9oMGH/1JY7PPoFe+fPKdyE2da/R594VvfaJfEoDtG02cfVouBzTzRQy0a+o6Gdx5pedOGtIHJaaUQNrDZy75T9kGj9WqRcnpt71FtCc2kKD/fURdCw/RLpNR1/0m9VrWe7lzykcbOnO2IwQLk1GzgCATcBIHEa6+9Zg1BdBtUhHHFFkioUfbRHbxr166OGSwgLEioE08ED44cE3OgGHd/T7O7dbTEAT3S66EUGSwodmVRPTGwhVQ1Qnc3vcvRYlYMOrL5xAwWgp0KG1Z5arCgYe5smj74NetzFJ48t0QFqKtLDDzn0f3GaG6fBYqJdPG8HfujPxi/VG0fbmcMVhrDeFoOg2Saqv9ffvheR39fqUx7dynLmdPKEmvE8oSH6XhklE7Gbg7RefIptEw5Fbm2jrUJk7/wt7O3v/j62/FzCWUtWLDAmoiLOMAp2BDpMk5o7pVXXklWYecUGBKMFH8bBovC28TyVU7B64pYg3DhpHcnqHHHB2LfQfYXnST2HblkxLt69v7nUxQe9oGBx5AnVpRMl42r3hypy4KcD5USuh84qfF//m1f+T9EkhDtsy8/o7va3aY8RZy7n4HQ7aLX3tawHiOsFlSGtIUxWh5Bnoc+bfTRc3tj541Pbzsgt+QLt2BYMFr0l0M1F0h3jfhw29ADjxwSY/gxWCn5eYHC2Ask7F999ZUVDsQoewHzyD7+9UM91udRe8U9Pn7zM730YPskWy75Q3ICjN49e6rtsvcthZ/XjN17RG1XrrvIC0QdimqTkf5JHeQIKb4+6nX9sGW57n3+7iRziP4QHRGtT6Z/rlLhl6vrK93MvKs0ijFaGQiEFxgrEtsYq8TedCjl8FQwog0bNrTmQfnjpVBfQ10N+RFCOPwOJOYYQ6bmxp086wXI1zFWiU3QdQPeLvc3v1dN+sR6WR4wp9cCzRu3IKBuKHEhlIlhxytNDMK6T33ylrI4NEY+EIbuOqSeG7ZZKsK40EGeMgR/hkiS5xo3fpx+3vSjqjSopEp1Kyosk3+Zj+jIaP39x3b98slvqlCwotq1fdk6WBrSLsZoZQAwIMiVfao9apn8BZk44SPyGiT/uR3wzHxCAPJFbBoYLIwgLZroIhHfqyJMiFSbnEMgk39TArOgMKBO5rD8YeGihdoQ8ofKVg+8f16gnD95Xjs/2K9+ffrZK4HB80NtYVJeAyHkkqMGqHy09+HBVw6f1aQN/0zajk8wQyS5l+n6sXn3nzp64Ygy58qkvIXyKm/+fzy5M6dO68Dug4o4E6mcsf+VLlRGefPktaIPlIcEqzY1eIcxWukYjBTdGyhexctJbFZUMNCgNRhjQFcIFJXkmShwdhNCXqgVvebIscNqO+xF3dHSv07vKWXBwEV6b8qHSbaDSggOEuT6eJ6SAk/5tWuvUo9iSXfKcBpKO4ZVqqMRsY8xMfDsad3lbwut+PAc0IaLQxf3NJ1F6JwSP19GLppQN8b9/vvvd1y9aXAO0+U9HUIsnzAgp0rGs6MQdHpIXbBvWgpEUdyhAuPz5FoGBQsF3mxm/o4IcZJsWbNr5vwZqnx9yprX+sv5Mxd0Rf7yAYcIKZSmnVZyRbt4zV9s+1tX7d+pLB6eYSfuP6an35iSpBfI34yXRYeQpCZEJwb/lnuQ6AOHOj5PKE/GAY3ic/5PqJvnJNhej4TfOQhQasKBksMlBw6vIwIZFeNppSM4LX7wwQdWCxz65Dkli3cDjAqhKd74bnUS6NSpk9X1w2t4yzzQ+t5/1IMesH/rQVWMrPqfyc3JkZwAIy7khdrUr6tx+bMk2gzXSdZESsvvbqKuvXrbK0lDGJs8F/VxXkCIkTEq5AKTCrcTPie8uvqP1Tpz4bSy58ymIsUKq0jRIsqbL4+OH/vHaP219W8dO3xMmcOy6LLiJa3IiFutzjI6xmilAxBWUBeEzBfhRHpKFHPapzEsrZ2SkjAHQ2qFB3fv3a2eU7qqQdMb7RV32bbyL91a8q5k533FBQEG3klC7a4Sg1q00ffeqddK5FNotHtKwr8VqoklKmjSwrfsFf/4+uuvrW78XuVMaclFyJB8F0YmrofGY5m3YK7yF82nh1s0UbES/ntl586e06cffq6fvl2hq2tcY/W7dPq9kZExRisNg7GiLRIJaZLpXirznIQWQkiYEU4gj3cKOlWgLvM6eT502FCFXxOjgiW8aaL62Ywv9Xr7MdZcLn/By2VzD/S5IYfU96EHNSTW48rtgpqQCQlrb71X/YYMDSoEjTADpWFyM8ichK4ohOOppSTMN3TEUN1ydwPddk/KeyDu3b1PoweP1S033qaWLVvaq4akMEYrDULy2FJAbd5s9aOjj156h3AhhoscS3JTev2FvMHQoUM1ZMgQe8V9zp47q4efa6KHurvXW/EiYt+d7/T7UO/MfddeSB5/BRiJQelEr/Yvq+jyL/VUwdzKxINIIbtCwjXs0Ek9MGhYivtSEo6j1IER/l5CtxVljVabjs8rJNTZWstVv67WO3Pe16jXRzuen85oGKOVhuClIKRDmIau4QydzGggnqAo+IknnnAkMT158mRr2CX1Ym7D69OiZQtd+0xN5SvijdJu7bfrdUvJOyzBjb8QksWLiTsiJRjotfjyYy1U8/BeNS9RWCUClMRHhYbp69Pn9VGsd5W1wW0aPXasY2IEPEmaCnvVsaL/gP668qqyqn+z/yHaQDl+9Lh6deynKZOmJtl/8VLH9B5MA7AZ0tiWabfMzaK5bUY0WEBzVEQkzKsiR5dSnn32WSuESld2N+E16t69u5VUj4ny5px34sBJnVx1JiCDBZQdJNayKRDoudf42efUZeVa/fxEG72at6ReiX1MUw+e0KqYMP0ZkkmHwzPpSKbM2hsarrWx18vOR2vAzoPqeDpGPcrWULExUzR90zZVjjUwgUr2k4IhkvydgQyRDBbaXJWuWMJVgwV58uXRwNH91OalFy1v2ZAwxtNKZehYztBEulIkNcU2o0G+DmnxFVdc4Uh+glZOnLwRfDgNCXlCbbS+4nc0bfmwbnnxJuUq5F6vQwzWF+OWadHsxQFt9rRAYqhlIAKMpKAPIJ3X40L/RbwwcpUYcV9NH0pRlHY8R4gW6NrO1GXA+2OrSW4IZSDw8wiDkru7/PLL7VVnoWvMgGF91bXfK/aK+2zeuEVrf9yoF1980V4xxMUYrVQCCS8fKMJSGsZJz3z77bdWR3PChUn1mUsMNum33nrLqg0jtMp1ly5dVLlyZfs7gofTLu2uUD/27dv3X+kzpQftO7dX7prZVbHuldaak2z6abOOrTyl14e9HnA4bd68eVYe1ClxCvV2DKoMBorMUfsxH4xthplZTo/I4TXCOCLyoWjYaXr26qkWLzRTrtzuNmOOzyttumv65BlBvScyOiY86DGENHxjQjiFXsoGC9jQUEYyrp4TvL/gqSFHpm4N1RWnbbwhNi+Krgkb8nW8gEDhcQwaNMhqH0RXj+uvv/6iWh08n3Gjxqlm9tqa/spsHdp52P5Kyji655jm9V6kGlmv1vjR4wM2WBgGOvs7qab0t31SQjC2Z9WqVdZrwM9BUIS4yEloMcbrzgQDDixOs/vATs8NFjRqep++//57+8oQF+NpeQSn9W+++cbKNdSvX99eNfjAe2GgIpOCk3t+EHNwiqfQNL6EnlM3MnjAO6I7ATUwJLYxkHSHoAMDCi1ufTY6wn8cJpiXxcmd8BbGz2eoWKcuB0PoMyT8Wx4vIhAKSz/98WOVvfZyXXVzdYVl9l/KHRURrVVfrta2FX/r9jp36rlnnwtarEAIjk2c/pBOkVB4MBDIWy5fvtwKV/Ia47kFq2pMCn+HSAYCPT37D+ujl7r8cz95yeGDR/Tjp79Y95zhYozRchmGIxK2uuqqq6y8VUpOrpcCdCTH0DB6PX5ohA2Qzt9syng/CUEvRtrxIK2npodWOoxNYcNEtUgHA5oL8z28FtT80N4H45NUhxHyN4zCpwceBo9cCrOu+Hc++F1LlizWn7v/1Ino4yperphyxp7SC5csaKn58Dj2bT+gs6fPau/WfcoTlldXlrhSjRs3CapFUXwC6YDhLxitVq1apehnkrvEm6bODI8IpaeTfTJ9YGQmTpxoPQdOjMnhPnz30yV6qEVje8U7Ii5EaPa4BdYkA8PFGKPlEhs2bNDnn39u5VaoSzLGyn8wToT2WrRoYakp8YQWLVpkeUyNGzdOUphA41MMGzkyarhI0D/88MP2V/8h2DwNogNUjzweZj0l1wuQ30/YknoyPDi8ILw3Hj9Cht27d1viBYpWk+q/5w/8Dmr7HnnkEXvFGTDUtDJKSccGni+8UowJNWC8Pm4IZoDwKENJkxsi6Q/UFr78ykvq2q+LveIdO//epW2rdzj+emYELrmGufRYI0yHxJx8CHJp/k+4iZMyGyY3e7B5AWL2JMM5WRMS4SRuDFZgMFmZMCqnckJeq1evttroUEyaXBcFQmvktDASnOYxDHHzhnha5KyCEWrws3h98Rh4TZPr7oGXjTeG4UQowv8xwhg7wqB4jBgrDjcIUthwKZoNJvmO94g03ulBnBhXHntKDABGGqOKKAMPGLUscvpgw6BJQQ6S3BmGi+c3uVlcScG/5fB0693u1wDG57MPP9f119UPqAvKpcIlYbTIgVADxRsbo8QbhmmwFPDyRuc0jOwaA0MXaGTohDTef/9965SILDu5jWTbtm1WwSOnM05HV155ZYreMJc6NCulyJq+b2yYGCx/n0+CB7TdwZtig4xrtGjJw2sZaDspfg6JcQZOYlB5bOQpE2t6ilQaA5lcvR3DN6tVq2aJFjC0S5cutVSlCE1Qw/nzN/P3cs8SfnYaXgceR0q7NPAe4v2B5J28IiFztxrG8ljpz4mXiOEK9NBI2zQOseQxT588rQJF8qtgYW9adgGv5+zJ8/Ts0yaflRAZNjzIn4XHw41Hwp5O48GcYMmDENpg82zfvr3lBcSFuPeHH35o5UM4VQfzOwz/D94GHhbPJ3kQNm2eY0JKjz/+uF8nT4pB8YrIZfHacYjweQpslngOgfRxxBvn8BK/wzgeIAcijGP81518Gt5cMM2NuXdR3bFxsuFywMKwJQbfBxg+p+FvR5jixEQBBC3MtuKQSKNjRAZuvl84oHz66adWQ9rEDBe5SrxJPjgo8Hj4Wzl0co+w9shjzfT65GEKDfPmEDp7ylydPxZpeeU899RvOu1Bp2cypNFiMxkxYoRVDOpEZwAgvIEajVM7myceG54YOQlGRgRSAGr4L2wOPJ+Eb8mhcEiIC+qwadOmWQKKpHrO8boQauO25hBBiI48ki8cyGmf3nf+bAL8DAwgRi6xDuuMy2Bic3zVGkINJPMpBQEJ4U4OT3hleFPxDaEbAgwfHPoI6cUVnKQEjBX5RrwZDhZEO9wk7hBJZlvhIeMxM6l727atypwrs0LCQpQtd7bY50/KFJ1Z2bNlV+lil1vGgoMA9+SQ119T32G97J/qHr/8+Ku2r9tt1bMRtfF59ORTef3Zz4gUufFapxcynNHCuyKk0bNnT1deWNRthB0o4GTzS2my1/BP7RrhLSbGJucBcXLmdEwbn4RCZ9R70UmA0By5IsKAbFqE6Vjj9I0wht9D/igxUPpNmjTJ2lTJPyUFqjW+F5GIz6BwzQnfSRCZYJD5G8iL+QQ+TgkweN+Q612/Yb2OnjiibDmy6vyF88qbL6+1gZ46ccp6zkNjwlSkYFHrAMFjYDP1F0oMiExguBC1OF1s7INNnqJ1PhBFYaROnz2tk2HHVbp6KVW+tqLylcibaOPbqPNR2rNln9atWK+zu8+pdP4yOnb6iPoN763wTO54hx++s1T7/zqknj162isXg4iF9wp/E3BvE/4MdDhoeidDGS1O0Xg88dViTrNz504NHDjQOk0bggdBBGE/Ql+BtHJi06bTNxtf3KJfDBon07/XrVHU1vXKd+aoqhUtqJK5silL7H2RK9bGnYiK0cHTZ7Xz+CmtO3ZGF4qWVrFa16npo82tkBD4FGg+9aI/kI/CE6SBK5sIG0ugPQMDgXlZHKDwGvACCaUGYjx8HD9+3Hrcq9f9rprXXaUbb65vDTFMDiTZf235W+8t/kBnjp/T/ffebz0GfyD8y2PG28LjxfilBLx0csqEH8klEuJjH+D1xKiPnDBSBavnU+07aiksS3ATuc8cO6uP3vxEJ7adVM+B3VS5unO9QU+fOqNh/Ubo7lsbWoIjfyFsTmiYewEBCmUTvJcy+kE6wxitX375xeq5Zo0P8ABcdk7ytAwyBAYqMowVG0qTJk2CepNxkqbFEuEbPKZh/fro3E9f6slqZVUzd2Zie/Z3Js9phertrXv1/YXMqt20peXRENoLRnyAEhXRBt6e28ov3rqE2wiD4oHxuMmBkANLLlxNuJWw4qa/Nqht5xeVv2DKJPc/L1+hRbPfVutnnreKuJMCL5Z6KrwsCoIpHwgEDBSHAkLBvjwUITOMlO+Qwfor3V7R8dxHVL9JPcdGiVw4dUETOkxW+cvK6/mXn9OVlYMfG3Ty+EnNnjpXF05Exu4jr6TIY+I5JRSOApr3Boc53huEtjMaGcZoUffBJuYlCC9Rk/l7Gjf8I4TAG6LjBPnAlMDG+8IzT6vElt/Vvnop5QpL+cb0+4nzGvP3CT09YFjQajxynyjuKMoNZtChv3BQw8OLm+Nj00J9yNuaTYui9vhhckJlr/Z4RV36dFSJksXt1ZTD7/zw7aX6a/0ODeg/IEmRBeFgJO94RngHiW2ueOOUGWCkfAaKsBgGKrEmuXgerdo8pVtfaKC8xdwZ8bHm63Va/+Gf1lj9IpcVUv3/Xa9KVSsqS9bED2DRUdHatWO3fv5+hX77eZUqX1nFCnM7IXKJDzl4Dk9EJYCcJPl4r0ae8N6ktIh7dN9fv8a6qjsUpghlCzunLJlDdfx0tMIy59S5qCwKzR174KhyjXXY8afIPkMYLd6kJMTjq7vchtAKfQQvsVK3oGCjpFsFYcCUhoOAU3aXFg9rSPm8KpbZ+dzl9M37dOzmJur8amCeO7kfwm2EBvEmUcgFE7bzB7wsDk0J5W7Z4NkwUCESOiIcR/0SHtncRbPVc1A319RwbMyvDxhjzYVKylsl/4jyErEL+T/eT4T4fAaKDw42SOMxakkZQR9slo0fe1AP9rhX4VndUybCgb8O6eA3R9X91e5WPSHRl81bNytTljCdOXNW2XNms0J/ObLn0Pmz51WwQCFdc/U1lpjC6ynkPKfcD3jj3A8cZnhe/XlOA4G9eMGcNxV65Ec1va2UqpfJrqyZkh+zcvhUiL5ddVif/XZGl1W9V62efjbRBsgZwmgNHjzYUgrSksdrCAMRZjEkDIotCjQJfTBHywnPg1h+nwfv1Pg65ZRZ7s0dWnX8vBbkKa/h4yfaK8nDpovajP6J/O1030AN6fRpmpM0ObxHH33UXkkcwrEYKzatv3ZvtcQEbnPsyDEN6z1K06ZMS9CoUkKA6AORDM+TTxhDmA/jGux7+cV2L6pK0/LKWdCbJrdrv1mva/LUcT2P7iTcDxxm8Mo5GPC844UlJUxKDtStowZ31V1Vj+n+6wsqLDR4s3LyXIhGLdyqqCL3qH3HV6za2bhkCKNFt3RObakBtVu+ru2G/4ewFSoxwjts2vFvvGDhpPjMHQ007aqijoyBT47vDp7S+vpN9KKfeRfEQBhnn2SfTYH+fYTwnJyXhpjh1ltv9TsPwtu8WfOmGjFpiGf1RpvW/am1P2208oN42oSFUX5yuic0iIEihEVOjlASpSQpAfVj/5m9dctj/7NXvGFer0X6aO5SV0PBbrJv3z5LlUj0ggMG5SF4g/7Who16fYRidsxV2wdLp8hYxedIrPfVeeJmte427aIaxAxhtFLTcBij9V+okyN31bBhw38VeU7Ru1tXtT78hwq5G/m5iH6//aXWS76wOjkkR2L1WUuWLLE2AQprUwpvWUKDgQwJJDSrnFGqXdeZukV/eaVtd91wbX1rI8RIxW+Ui4ybMhU2S4wWoatgebnTy7rqycoKzeSNUfaxY+1OVQ2tGZDyL63CYZPDBZPAEXQQ3iWcT8lIfI+Z723b+nG1rHtAta90q/g5RMMW/K1S13dRs2b/lHVkCKNFY1IaZKZG1bgJD/4/nKJpbEt4hw4kTkMYqdet12l4bW/zAacUqqHZymvQ8JH2SsKQT2EDTqwZLKEwOi8w/8vfllQJwamY3FlSRdbxafXMU+o/2v2wYHw2rt2koztPWjVsiUFROZ1mUL/hoRL+ZcP8a/8uZQoJU/nSZS3vzOcBJNaC68EnGumBbvfYV94REx2jzXO3W+KTjAaRDe437lvguec14PDRvWsnPXbVBlW4zP3GCiPf2qHrHhpj5WYzhNEixECi0euOyOQuMFgUMl/KILfFk6B7AxJ2tw4PeAul35mgqjk8dLNs2q3arfHfr7KvEoY3N8TtdRgf5Nps0gg04j9PGGXuZU65hGrI+/A93GeEV8lFcPJFsEDIlZCJv2HXZ15opb7D3e/oEB/quWaMnqvevf9rMPl7qbd7Y8FM/bprk7IUz6+wAjl1JjRSUfFCv1lijVfmC7EHg91HlPlUpO6+6gY93aKlNebEF5Zr2OpuPfyKt2IsH1+N/E4z3phpX2VcaMNFbpQuLTcUXqH7r3du4GjShOiZ4X9q1OyfM4bRAtq0UBCaUNLXLagJ69Sp00UFrpcaSJfZZDlJuyHdjcuwYcP07N/fKoeL4ovE6PfrFnX/9o8ka8oouUAYkVzdGZ05UBgid0aCTHNfcjqcYlFXouxKSnWHF0ISneJiJM3MFuP5T0ylSBin/asv6ZU+ne0VbxnSbYRGjxpjX/3TFaNX/76a+u17ynxlUZ0Kj7K/4j+hse/z7CeilHnnCQ1q3cUqL3jwmQfUpGvqhOh+GvebJoyZYF9lfJ5oUl/T25NP9c587D4So4Wbbsg44/YRY/Tq5d1JklAPksxL1WARwkH8QkId5abbBgtOxHoYWUNS54yVJ0smK1SSFIQH/SmUZhwJUvX+/ftbhx5yBrR96t69u2WAkitqRllHaJBD0+TJk62QCf+WSQZ4vfEhFHn29Dn7ylsiIyKVL+//n8bHjhun0rddo+mHV+hC5UJBGSyIjj1rn8oVqiOV86rj52+qbN0aij6dOvdGxJkIlS3lbcg6NSFnfVdNnmtvn+8S+UO0ecWCjGO0KErjzc8J1m1QKdEk1a2+aWkZNm48CtrHkEcMJK+SUsqVL6+9F1JnY9pxLirJAwqCgvhNfhODJq6EBzH2hJeT622YHIz9wGAhBMDjYFOJT1RE6jxvf2/dbiXx8Q4ffuxRvfrZFJ2pXEDnYiLt70g5p7PEaFeFbPps5S/au2W/veod3yxeniFEGP5CWce1sa9halA8z9mMEx70Qb5g+fLlVu1WSpLdiUFehdwFBcVpUeJKHoTHR25k46YNCssc+m+hI/LrmNiDLYnjPLnyqnKlylb+BYOfXFiV24QxFfSLoyYlNTxMGp9+2+ZRtaroXBcHf+AN8vzOaE15/+N/FhKAOijk575u8olBGQD356BBg1y5P3mdBgwYYKk2yXv5eOutt5S7eHZVr5X4iBM36Nmhj8aMGKcmjz+ibzLv09nQ4Dwrv4i9r685Hq62o7ybQxUVEa1lry/XzCmz7JWMz2uvvaZ2dVYoW2bvTcf8rw5mPKMFiDJoaEuey6nBeIxRIJxD1++klFCpATkLDMqHSz9UePZQ/e/Wm1StZlVlz5G0IGL/3gNatXK1vvtquYoVLKFmTZslOLeJkxWFrHR5cGtwnz8go580qK/mVMytUA9DE5/tO6HMz/e26qISgyJi7rekDjJ0C6Cg9tVXX7VX3ANJPBJzurAD90izFk01cvJQV4xlQuBl/fDpCh05fkyj13+sM8Gr2f0n9rVqUa+2bnvMg2nDsbfg3N4LNX3kTL/KITIKdDCpn2uxSqVCc/kBMzdnTKPlg+alqJPYbHHfA60B4alho6FglCQ54cCU1JG4AcMGZ8+fpUeebKpa1/63z5y/XDh/Qe8v/lBrV25Qpw6drJM6XRc4odPjjVEsXopc4sP4D6ZJE478osNT6ljV/Rwa0Ez3pe0XNPPDT+2VhElufhYKQIZSYty8gvuV3+nrdMDhY+K08erW/xXr2k1OnTytfp0HatCA11S+0Y26UNE7zzxs6xE92/Q21bnH+aGYPtg1Fw97R71b/zNj71IC4dX2L17WA54pB/+fF0Zvz9hGywf1H2y+bByEcPC+yCMgIiDMxWaMjJgkNpJOxj3grXEiZdwCJ2yne3SlFOTC7dq3010P3qYb/ne9vZpySJxPnThDpw6dUdUqVa3Gtm71zgsEukrQWzJ//vyaOWOG8r03RXcXd7f5Z1TsffH0Lzs1+uOvrd+bGNSnEfJLqvclITvEF16GVck/8nsJlfvAY/7k66Xq2ONl1zyug/sPaWC3wXrzjSnqO7C/Ju75ztEclj9kXntAd9W7Sg++fD9qaUc5f+qC3hr4tkb3H5NsODij8kTjuprewdtG4QeOS9NX1740jFZcyPkgF6ZYjuQ53gSgyKJbO0atTp06aVoVSEucbr1eVb8RfZQrtzsGZe2qdXpr+hJNGD/RMu6pCa8V4gWGRPqYMG6cIt6eohcrBd8vLSmORIfo5dV7NWDOomSbmxKa5RCUWNdxQnO+MRxew+gc8q9xa8LoE9f/tX7qMairChRy9rT8zRff6YcvftbwYcMtJWWVm+tofbEI+6vekTkkTC8Uul67Du1U6RsuU/X/VbW/EjwxkTH6bNaXKhhRRP1797cKoi9ViGDl2DlWt1/jTdd4eOH1P/XalB8uPaOV3mFA4XMvPqMRbwx1vYfc/j37NXX0LI0b6/1m64Pbc+TIkerQocN/wpPUiE3v8Lx6X1VKJRzq9M6bYdH2Q/ohfzkNmTg5Wfk5JDelmIJivPfHHnvMXvGOjz76yMq3xO97yIFt1OhROnLqkF7o0Fo5cqasIHzd6vWaNmGmWjR7zOol6CNHjdI6UzV1Jus2CaugRbPm6euvv9YbMycqtLB0U+P6yp4vsGa8B7Ye1Ddvf6fLspVWp3adLLWmQer48vNqc9MuXV7YfUHapPd364pbB1maAmO00hm043l1YKfYTSbwAYXBsPLn37RvyyFrhERqgFoTyXRiPQzpEjE2dvPdvWSWWlcrrXJZgzPkESGh+nDHYX14LrOe6zNI9erVs7+SPMkZLYaFUpuVGrkPZlEhgadTSUIQ2nxj0hvaun2Lbrqtvm5ocL1y5kr+3mLb2LNzj95d9L727Tig22+9wwolxw855qlZVicqp2zAZLC0yFZds6f8/4w9ZnfRZuzn1T/p6IUjyl8qnwoUKaDCJQv+K6A5e/qsjh08oe2btivmtFQoWxHdetOtuvfee1NlikRaBjVy66ceUvu7zqtyKfeiMW/EGqzM5Z9Vq6f/2YOM0UpHIGP/cfVyPdjM25qQri/10JSJ05Kdhus0hG7pFvH000/bK4mDUIPv/XbxfBXeE7sBlymuq/LnUL5Euk5HKUTbL8Ro+Y79+v34eeWod6uaPNo8YMNCkTUNRpNqhEviGuOAmMVrmPNESPx//0u+8zn3F97rps2bYp+fCEVFRylv/ryxHu4/woNzZ88pKjL2K+cjlT9PAdWoXsMSOSU1obnmbTdoVeGz9pV3ZFGYBtR82CreTgzuL+bw8X+6lGCUEFohXME79cfLvtTBfAwa0EfFzn+iJ+4qHvuucs6cnDoXolfe+FMPvTDuovvXGK10RJu2L+rVQZ08Gy3hg6anh7cft07SXkLhLc1nA+1lSCEr3gUF0FvWrlHmyPM6sX+vQs+fVXTsZhsVHaO8ZctbY+kJm6Uk3ENsn44U8buXxwVBBJMAUqNHJc9ho0aNUiTJpnCZYuhgPI3+Awdo8LoPdCbEWyFGlp0ntWLcYr8m4RpSDirrN0Z2U/P60q21yHMFb1bOR4Zo3JK/tS+srrp07fOf95YxWumIZ55vpb4jvG96ypjwSUOnWXVqXkGBNApJGqI6BcMoUYMyAA81oBM1Z8lJ3X0QXiWM6FWNlA+MPh1MUgJ1OdQmBmO0yMEWb1BDZ6t4l9cKCwlV/eMF9PUHn9grBq9Anfr+omnKH71Oj95RRuWLh/s1Y+tsRKh+WHtc7353SLnL3KZWzzyf6GHS23eQIUWEZU6dDhx4dkeO/aOy9AJKD5CQO2mwgE0XL4wCahR0KQVVoL9G6IknnrCMppcsXbrUEe8YFSB9FYOBLvSvv9BN2Y7+tyeiW2Rdd0gTh6XOUNhLHcLF46cs1CtjftL68CfU48Mr9OKks+o8aYc6jVunvtM2xn5ssv7/8piNajdhl9pMC9W4FXWUqVovjV2wSoMGD08y+mGMVjoiKtL77uY+smVNmbosEEiWJyYcSAk+o8VGigeQUpDi03XCH2iES70gwggvYLQJp148y5RCnidYowXPPfucHr/iRmU/635QJ8vWY1r82sQU93M0pAxqO/HOBw8ZrgmzPtXwWb9pxPzN6jl5nVoP/Fp9pm7U6IUbNWburxo/9W2rNIP6WX8aGBijlZ7wNi3wL4cPHlHZMt50sfaN/Haja7zPaPlIaWT8999/D2iEPoW+Q4YMsRouuwnPIV3fhw8fbq+kjJR4Wj4mjhmnjtXvVdbdp+0VZwkPCVWudUf04YBJqSJ4MfgHKs2iRYvaV8FhjFY64n833az1f2ywr7xj1puzPeu3uHjxYtcEH3GNFoXAKP9SAjm3QApMCSWS15o1a5Yl4HCDzz77zBJ90EHEKbWnE0aLg0i/Pn31zqujVHzTGeWIcG7ryXbgnOoezas17y1Lsj+kIWNgjFY6gu7qU8ZNT7GHEAgnjp9UVOw+T7cQt6EhLko8t6T1hLl8RgtVGZ1RgsXf2Vnx4aTZr18/SxFJnsuJ3BoQdqRhL0rFESNGOPocOmG0fOAF/f3jHxrS4AkV2nhS2Q9fsIQTgZJV4cr893HV2p9dH3Ubp28/+lylS5e2v2rIyBijlY6g/2GHlzpq3PCJ9oq7oBpktESf3n3sFfegzopWTW4W4Mb1tBjguXfvXuvzYMDYVK0afGsgNm8mbaOSpDAZzyi5IZPxof5q9uzZlhydKcZ4cUn1PwwWjBZF3E6BQX3xhRd1YOWf+qT7BLXMWVOlt0cqZO0+5T4Zo1wRYcoZklmZYrenbCHhyhH7WZ4LYcp+8LzVU7DomhN6tcI92jT3C6384ju/atAMGQcjeU+HoELbuudPPfHc4/aK81y4EGEVFQ/sMyjZ3ntOELchrltgpCigbdiwoXWdXCeLpPB3tL6/0OqJps6MwOEtSfgSz4HwI14uI+oRjxDS9IU1qV9BsOK26IDiaX53IF1CggGjzWGA3pp0W2B2Gx4pfycDNsuVK2cdFHg85O1M7urSxBitdApDB6fNmaLeg3soS1ZnNk4fO7fv0uv9x2jUyNEpTpr6Q0INcd2AjZeWSr6cGR00UPUlVRicGP7WZwXLwYMHLe+TzZkNnHwY43HwFr0I1caFiQcYe563tDLtgHlhhFcDLTw3pH+M0UrH4DkMem2QSpQtquZPPaKw8JTVcZ08flIjB43WlZdXtLqSe9G2idsvsYa4TkNeBi/18cf/8VBR8eG1+AYl+gvNZpmQ3bx5c3slY0AIEKNO6yfaGvH680E7ozx58ljje/CGoqKiFBERYfVTZL4ZTUyd8jj9BaNOHVrLli3tFcOlgjFaGQDG0E98Y6Iu6JweerSxKlXzP1wUcSFC3375nb74+CuVL1NBbV5sY9UxeQUNcQlv+VvvlFIIQ/p6GXLrM5SRnFAg0J/PqY4aaQGMFINOMTwtWrSw/i5/PCoMF+E8/i0F4XSxr127tv1V95k/f77q16/vSnmEIe1ijFYGAk+C0+cPP/6gI8cPK1vOLMqVJ7cuL1M69rScPfbrFywhwl9b/9bxo8cVHpJJRQoWtZq9MkPMawJpiOsUGKm4HeuDyWth+GiPlNRo/fQAhx3k8cjEyY2lpMUU3UHIyS1btkzt27f35BCCoSRMS1TAcOlgjFYGhwQ+IR3GMpAPIbFPV+600MGaZq7kJbx8LPGN1rx586yxEyT6/cXtfJYXTJs2zbonOnfu7Gieivzba6+9ppIlS1qvrdt88803Vl7LSw/PkLoYyXsGh0nMKNHIPVCbxOdpwWAh9SYsmNqPBTVaILVSHAJ4TtMzr776qsqUKaOuXbs6Lqzg59HNnpBdjx497FX3oPUPAzYxloZLA2O0DJ5DLoSGuIEKINwAw4ly0V+YjVWrVi37Kv3BmJH77rvP9domQo6333675U27DX8PwhjDpYExWgbPIffhRkPcYMicObOVG/GXv/76y/JS0iOMZCFv5Xa9lY8bb7zRyrOuW7fOXnEH6giPHDniSBNkQ9rHGC2Dp1B3BGlJ8YXh8rdNESlgt6X5boHo5Pnnn7evvKFt27aaONH9Di60OOMwZMj4GKNl8BQa4rLBpCUqVarkV4hwx44dVoFveoQaK6YXe10cTJ1XgQIFrEJpN0FgRJG4V6NfDKmHMVoGz3C7IW6wUJfkjxgjPeez6DqSGmUNcO2111pdNdwGFeiHH35oXxkyKsZoGTzBi4a4wYLc3Z9mtfv27fOkrZUb0NMQGXpqgHfK73cb6ubIo3399df2iiEjYoyWwRPoXtCsWTP7KvVAiEAhbHwSW/cRyGj9tAjNdxGRpAY0A/YqrHr11VdbXrNTo1QMaY+wPrHYnxsMAcFmxEiMFStWWO2YKPTkg04LeFWIFqhpIs9AJ45Apvy6BY+LbuHxQ5QozzBM5F8SgvAabY6oc0uP4E3SdzE1xnjMnDnT6uDvVVgYA/nRRx9ZdYmGjIfxtAx+Q4iP+U2tW96r9o9U0bJpj6ha9AzdU/R9dblplXrd+rt63LJKTcp8rgZ5lmj31+3V/cmqGtK9Zayx2KCdO3faPyn1iD9y30e1atW0Zs0a++q/BDpaP62RM2dOyzAHIu93AjweGvHyvHsFs9Jo6kvHD0PGwxgtQ7IcOHBAnV5+XoNevFbXZX1LE58N08g25fXkXcVUvniYCuaKVtZM/3QDCw2J9a5iry+LdVjuvjaPBreuqKnti+rZWj/r3VH369nH7tYvv/xifW9qkJjRQnlG5/DEQH1Hp/P0zIsvvqjhw4fbV94wePBgtWnTxr7yDsaooFQ1ZDxM70FDonBrDB82WMc3zNOrj5VTjiwpv1WiY0I09/O9+mn35RowdIKrQx8TgvAl0u/y5cvbK/9PYs1z8U7mzJljjbNP7xCqo/fk3Xffba+4B10qGOOSWiNcPvvsM2v22JVXXqk//vjDCg3zWu7Zs8f6OgcV+hYS8kUVGkj/SUPqYYyWIUHwLNq1bq4u90erUsnM9qpznD4fohdHb1OHfrNUo0YNe9V9yL9lzZo1wXwHcmk2L4xaXAgNstnRvzEjMGTIEKuLhG8YphsgvME4dOzY0V7xFrp/LFo4V4e2LlORnKd009WXqWzxbMqZLVx5ssdYEYGjp0N17kK0tu09o+9+2639p3IoS+Fr1KhJc2s4qCFtYoyW4T+Qg2jV7BZNaFNIuV1MRcQoRB3H/amne7zl2WwqTtyEBxMyQAyEREQSf4w73knTpk0tY5dRePfdd/XDDz+ob9++juabzpw5YzXKvfnmm9WwYUN71TsWLVqkTxYO1x21Mum+6wspS3hg21tkdKg+//WI3vvhmK65/UVrBI3XBdmGpDFGy/Afnn+6ufo8eEqF87jfrohw4ZNDt2nUjK89CRWiZKRmqEGDBvaKLIEIXecZKU/XC8JEbFQYbzot8PW6deta4y+uuuqqDDPiHU9o6NChuuKKK6xBmCmZPozggpEtGH7GnSCG8JLVq1drRN8X9Pw9OVSnojOvz8ZdERq6YJ9athtx0f1iSF2M0TJcBFN5D/3YTQ9cn7D02w2OnQnRyGVXqv/AIfaKe9D7EJUghbb0qmMQJaFCNiU278RO1YRL6YhBTozNnvARMu6MkAehW8WsWbOsEft0TKdzhj+iE54TvLUPPvjAKhV4/PHHE8wVug0z0bYsG6weLa+I9d2d384mvb9bZ4s0VfsOnewVQ2pijJbhIp5u0VCTn8/kyps/KbpM3KyeE360PBs3YbLuqFGjrHxO48aNgw75UaOGZ5E3b161a9cuTcwoSylsBT/99JM1fn/r1q3WCBmk8syq4u9EMo9Rp/SB/1PvRpg1tdpDwfTp05R7/zQ9WN/dGWc/bzyjz3ddp569+9srhtTCGC3Dv1Bc++rjVTTkefdHpcfn503ndbp0J9dmbBG+6tatmzX0EY/AqVH51AIx9BAjeNttt9mrBi9gJtuKxe3U/iFv2lMt+faQYsq1c1XAYkgeU6dl+BdyNxUvd9fTSYxyJbK51lSVcB5y9U6dOlmJdacMFiCpnjx5svXcDRs2zF41eMGbIzt5ZrCg8Y0F9eXCvlau05B6GKNl+Bec7tRqr0c4Mqnef8FCI1yEAdOnT3dVHIBRpJv5uHHj7BWDm3z66ad67GbvBTEdm12uWbNm2leG1MAYLcO/0LNt/bbj9pW3bN17ThUqOB+WxLsaO3asNejRbW666SYr1/Ptt9/aKwa3+OqLT/S/q7yPCpQrFq41v3xuXxlSA2O0DP9CF/MjMWViPS57wUPe/mqH42NLaBeFIfGy60br1q0tr87gLqcPb1VoKg2Qjjnzz/RtQ+pgjJbhIpo/3UVLfz5qX3nDibNSSLE7LIWak8yYMSNVpiQjG0eBZ3CPmOhI+7NUICbK/sSQGhijZbgIRle890chHT5pL7gMXTHajd2qDp26/rPgIAgunBRd+AvPIe2iDO6Ro2D5VIkIWGS7zP7EkBoYo2X4D6MnztJLE/Za/QHdJURdJ23Wy31nW01cnYRegfny5bOvvAWPkc4QBveoe30Drdj03279brP7SIzKV7/JvjKkBsZoGf4DbYrGTl+qFyed0da97oRhzkWEqtWwzWrcZprVGslpGDhIH7zUgFlOXs6PuhS5//77NfmjQ/aVdwyft1WtWj1tXxlSA2O0DAlCW55p85ZqwfpaGjhrm2VknICQzuJvDqrd9GgNnvyVJRN3g5CQEKtzQ2pAq6jUaGd0KYFoqMnT/TXrs332ivt8veqEqtz8ktUlxJB6GKNlSBTyQT169VPLHh/plYW5NWDmVu06HFwi4dS5EE3/eK+eHntCResP1uSZ71rzjNyEESOHDnl/Gp82bdp/OsUbnIeZYAdzNtLytafsFff4c3eElm6pqGeeedZeMaQWpo2TwW9oqMo02F+/WaQ8IbtUu3J+XVu5oHJlC1W+HP9fGIyBOn1eWvfXKX3z604dPJdPxSvdoWaPNPfUA+HxDhw40NNpvQw9ZNyH1xOCL2VGvT5CWfYtUOv7StgrzvLe94e18lgd9ek/OFWEPYaLMUbLEDR0S1+7dq327dunEydOWB3TCSuSTypRooQ1MZYBj6k5yoPu5Tyme+65x15xDzp6tGzZUqNHj/Z8IvOlDo2QZ45+WT1alFTZog71lTwu9Zu+RTc37aMmTZrYq4bUxhgtQ4anV69eVriuXr169orzIL5o27at9VGpUiV71eAldKWfPHmS1i57Q4/dUUJ1KmUPalrB6r8uaOZH21WoalO1e7ljhujgn5EwRstwSTB+/HjLsLz00kv2inPgYTKepE+fPta4DkPqwuv8xRdf6KN35ijm6G+qcnk23VSrmIrky3RRGBuOnw3VoeNR+m7VPq3Zekpns1bSbQ0ftTzzlAzFNLiHMVqGSwZmRU2YMMFqteSE18W4k5EjR1p5rO7du5sTeRoFNSeTqf/66y8rjH3k0H6rq0X+QsWt0HWZMmWssgtz4EgfGKNluOQYMGCANQblxhtvVNOmTQOePrxu3TqrvyA5LDys0qVL218xGAxuY4yW4ZLj999/t0JIiCUY1b53716rCzwDIjFABQsWtMbNU5zM7KQdO3ZYhurAgQPW+Jb69etb/QWDnXpsMBiCxxgtwyXHxo0bdfDgQcv4xIVhkVu2bLEMGoaKIlKUh7RlInRkikoNhtTHGC3DJQd9ATdt2qTbb7/dXjEYDOkF0xHDcMlBX8CzZ71vtmowGFKOMVqGSw5jtAyG9IsxWoZLDmO0DIb0izFahkuO8PBwRUam4uRbg8EQNMZoGQwGgyHdYIyWwWAwGNINxmgZDAaDId1gjJbBYDAY0g3GaBkMBoMh3WCMlsFgMBjSDcZoGQwGgyHdYIyWwWAwGNINxmgZDAaDId1gurwbLhk2bNhgjR45cuSINcW4SJEiuvzyyxUWFqayZcta87SYo2UwGNIuxmgZMiwMd1ywYIE2rfxIubRHNa/Mq0pl86t4/nCFh4cqe+YYnToXomOnIrTvyAV9v2qPdh3NqtC8VXRf4xa6+eabFRpqghEGQ1rCGC1DhmPlypWaNKq3KuTfpZZ3l1GBnIHd4tExIfph/Wkt+GKvStV6RC+1a2812TUYDKmPMVqGDMOhQ4fU69U2qlNiu5rfVlShISm/tfccidHA2X/pxge7qVmzZvaqwWBILYzRMmQI8K7G9X9C49uVU7bMzt/Sn/56TF9ur6rXho6yusQbDIbUwRgtQ7rn119/1dvjntSAp69QSIi96AI7DkZr4LtZNGn6W7G/x8VfZDAYEsUYLUO6BrFFzxdu1+SO7hosH3/8dV4fbKutHr362SsGg8FLjDTKkK4ZMrCnxrxUzhODBdXLZFGWg+/rr7/+slcMBoOXGKNlSLfs2bNHBSNWuJLDSooXHyyjCWOH21cGg8FLjNEypFuWLVumR+8sY195B0by7N4f7SuDweAlxmgZ0i1//rlJlxVInVs4f7azOn/+vH1lMBi8whgtQ7olMuKCI7VYwZApPFRRUVH2lcFg8ApjtAzplnLlK2jfsdSRnh88mUnZs2e3rwwGg1cYo2VIt9xwww16/7ud9pV3REaHKjpXFfvKYDB4iTFahnRLuXLltPrg5YqK9tbbmvPZbj39Qmf7ymAweIkxWoZ0zctd+qvn1C32lfvsORKtVUeq6KqrrrJXDAaDl5iOGIZ0zwcffKADPw/QU3cVs1fcgTEmrccd1rQFnytLliz2qsFg8BLjaRnSPffee6/y1uyiHlO2WWNF3GDTrgi1nXJB46a9ZwyWwZCKGE/LkGFYv369Bvdopbb35dY15Z2Zf3UuIlQjF2xVyGWN9Gq3XmYopMGQyhijZchQcDvPnz9fXy0ZroduyqOba+ZVeGjgt/j+49K0D7Zpb0xNde7WX6VKlbK/YjAYUhNjtAwZlm+//VbvLp6jyIM/q8Jl4bqpVjGVLpJZObNE29/xD9Gx74D9x0O0ZusJfbNyj45GFVPVuo318MMPq1ChQvZ3GQyGtIAxWoZLAkaYrFixwgohXrhwQYf2bVfWTFGKzlRQuXPnVuHChXXttdeqWrVqypw5s/2vDAZD2kL6PyYZ26uF4orzAAAAAElFTkSuQmCC;" vertex="1" parent="WIyWlLk6GJQsqaUBKTNV-1">
          <mxGeometry x="60" y="160" width="209" height="178.31" as="geometry" />
        </mxCell>
        <mxCell id="a62uRSst5NXsYXS5A3J3-46" value="" style="shape=image;verticalLabelPosition=bottom;labelBackgroundColor=default;verticalAlign=top;aspect=fixed;imageAspect=0;image=data:image/png,iVBORw0KGgoAAAANSUhEUgAAAasAAAFsCAYAAABy/JZhAAAAAXNSR0IArs4c6QAAAARnQU1BAACxjwv8YQUAAAAJcEhZcwAADsMAAA7DAcdvqGQAAMFrSURBVHhe7J0FeBRXF4a/uJCE4O7u7l4KbSkUd3d3Ly3u7u6uBYpbcXd3lwBJiHt28+83zPKnaWRlZiLMy5OHzI2t3nOPfcciQgcMICgoCHfu3MHVq1fh6ekJL28v+Gv8YaWxQsa0GWFvb49ChQqhfPnySJ06tfhTKioqKioq5hOrsfrw4QM2b9mMo9ePIcA+ALlK5UKqHKlh7WKt+0nxm0S0QVr4ffDFq1uvEPQhEKUylUKr5q1QtmxZ8TtUVFRUVFRMI1pj9fTpU4ydNhafkn1G0TrFYOVkJX7FCDTAm8uv8fGiGwZ3GIzffvtN/IKKioqKiopx/MtYhYWFYfgfw3E35B6KNyoBmGCjouPTnY/4/M8nLJu5DNmyZRNXVVRUVFRUDMNS/B9ubm6o07wOwitpULypdIaKpCuaHkX6FUOLYS1x/PhxcVVFRUVFRcUwBM/Kz88PddrUQbmBFWBhEyUZJTE3Nl/HuJZjUblyZXFFReX74OPHj7h8+TKuXruKS/duwjPID14+3gjQhsLF2h4uzi5Il8wVlYqXQYkSJVCxYkWkTJlS/GkVle8bwVg1at0I2TvkhJWjhO5UDFjo/p2efQq75u1E5syZxVUVlaTJly9fsHXrVizftQkP/D/APktqBNkB4dCK3/FfbC2sYBeoRfBbD5RMlQPdm7dD06ZN4eTkJH6Hisr3h8WxY8ciVt1djcxls4hLChAG+P/liyXzl4gLKipJi4CAAMyYNRMzdq+BRYF0CLAIF79iPE7hukPko88Y33EAevfqBVtbW/ErKirfDxb1Wv0Wka9nfro8inJl3WXsmLgdadOmFVdUVKSFVa1XrlzBjUuX8O7yZQR4e8PSy0v4GquKLFOnhmOKFMhcrhzKVqwotFlIUQB08eJF1OvZBkEFUiHQUiOumk8yndFK+dwfB9duR+HChcVVFZXvA4vyrStEVO5ZRbxUDt+XvvgtRV38+uuv4oqKivmwN3D9unU4u3IlMrx/j/x2dnDx89NZp5h73yMsLeHr5IR7wcHwzp0bNbt3R6tWrUxqbl+5aiX6rpiCkNwpdH8y5r9pKpYWFrB76IlNf8xGw4YNxVUVlaSPxa+/140oUKegeKkc2mAtMt3OgEGDBokrKiqm46XzmKZNmIAnixfjB53xsQ0KEr9iPEGOjmDNarmhQzFQ95EsWbKvX4iDv//+G81mDUFIZmdxRT7sn3njxJwNQhGGisr3gGV4qOmxdLPQQI29q0gC2yGaZc+OzEuX4ueQELMMFXEIDEQ93YfTjBn4LUcOXLt2TfxKzLx8+RItx/RTxFCRkDwpUKdHa6GAQ0Xle8DS94Ov+Kmy+Lz3Rr58+cQrFRXTmDd7NjbXq4emvr5mG6moOOoMVnMPD0yvUgWbNm4UV6NnwrTJCC+kXP6VIcbQwmkxd/48cUVFJWljmd0+G2KpopWNB8cfoFy5cuKViorxsCT82ahRKB8cLK7IgM4o/Kj7/Ye7dME///wjLv4bX52h3HT5CEIjpCumMIQgi3DM3b1OltyYikpCw3JI7yF4fOyReKkM4f7hqJGzOlxcXMQVFRXjePLkCbZ16oQichqqSFQJCcHUBg3w+fNnceX/PHz4EHYZ46d5N9TFBm/evBGvVFSSLpYlS5ZEVr8sCPosbQglRnRe3JVFlzB08FBxQUXFeGaOG4efwpXNt/6m+3vzZ80Sr/7P8+fPYeFiL14pi10qF7x48UK8UlFJugjagHNnzMXLLc8R5hsmLMqFRYQFzs4/jTUz18DV1VVcVVExDm9vb3zesQOWYfK+XqPCnNiVhQuh1f47bi70CobET6GSJjAEadKkEa9UVJIugrGytrbGznU74b37CzweugtfkBptoAbnZ5zD2glrkTdvXnFVRcV4GHbLbx8/nkwWjeY/YTcWCgV//NpsrDRBur+bO3du8UpFJenyTXXdwcEBa5evRXltOZxbcBYaf2mSxfSm7u25C88dHji88RDy588vfkVFxTRYJh5fvkRmOzvh70cmS5YsKOyQARYWysrAWFlYok6BcsKUbhWVpM43Y6Wne7fuOLL8MJJdcMB5ndH68uTLV20aIwnzDsPVDVfweuVLTGk9GWWKlRFi+yoq5pIuXTr4KmwY9HiGhwt/PyoTh4yC/Wdlij30WL/yxrjhf4hXKipJm2gnBevhMMYjR45gx74deOnzEjbpbJG9SHY4pnSEjaMtLB0shXH2Wo0WwV5B+PDkAzyeeyC1ZWr8UvFnQSk6smTN3r17ERoaKqyrqJjK+/fvMTxHDlRVOGdF9lpZ4a+AANjpPKyodO7RDVu9biLQWv5eEMfACAwqWhcTxo0XV1RUkjaxGquoUNLm3r17QvVRuO6E+e7dO2HeDkvQmeRlLiqu+Pn9+/cFxYGuXbvC0dFRXFVRMY5GFSrg58uXY9X8k5oIa2tcrl8fq3fuFFf+DQ93Pzaog2vJvBFoI5/BcgyKwC+O+bBjw2bFQ48qKvGFUcZKKljNtXr1ajRo0AA5c+YUV1VUDOfEiRPYXa8eikqsWhEbp3Xe1Mhr12JVPOchbuDQwVh17ziC0kqbS6JhsnvjhxG1WmP0H3+qhkrluyJejBVh+e/GjRuRIUMG1KpVS1xVUTGcof36IdWqVUgZGCiuyMcbBwe4jhmDIcOHiyuxc+DAAfQePwIemW0RIIHNSuavRbYv1lgyaRaqVq0qrpqGv7+/ECH59OmTcHBkxCRFihSwsbFBxowZhepGvi9VVBIS8Was9Fy4cEEIDXbs2FEooVdRMRQeeFr/+iuKnDmD1DIarDeOjvBu1gwL16wRVwxDo9EIB7LZ65fhUfBnWOVIhaAIw/uxHGGNsKefUSJlNgzr2heNGzcWv2IcfJxOnTqFv3fvQLifG9I4WaBaucJwdXFChtTO3zy0L74B8PMPxtW7z/DgxWdobVOgbJVaaNSoUaJTm6HSyOXLl3H9xnW8cX+Dz96fobHQ6u6fL1KmSAWrcCukc02LQnkKCbJvRYoUESqiVRIu8W6sCBPmW7ZsQbt27dRhjCpGwY14/J9/4sPs2SgdEiJtDsvSEmdsbVF2yhT0GzBAXDSNV69eYdeuXTh+6SxuvnqETyG+sEnuCDt7e2jsLGEVokVwYBDCfQORKVkqlM5ZADUrVBUMFL0dUwjUGfB5c+fg3cPzaFqrJCqXzAVLIyOHr9x8sG7PGXiGu2LAkN8TdE+Xu7s7tm3bhn0X9iMifQRylMwBlyw6I2sd851mi47HM3c8u/QMeRxzo3n95qhdu7Z6cE6AJAhjRUJ0Gw3zWGXKlEHp0qXFVRUVwzh9+jSm9eqFUq9fI0tAgLhqOk903tRz3Wn7j0WLUKpUKXFVOoKCgjB//nxh+KiHh4dQDs+TPQ2TFKNzNmzYgAuHN+GP7r8iQyoncdV0wjRaLNz0Dz6Fp8GY8ZMMnvGlBD4+Ppg+azrOfTiPEo1K6g4BNuJXjES3E3o+9sST/Y8xqO1AwaNUSTgkGGOlh7F+Pz8/NG/eXE0gqxgNvZctOi/L8upVVNRt+o5GGC5OC74QGgqH6tXRbtAg/PTTT+JX5GH58uXo1q2beCUNbA0ZPmQgfivlimqlpfeCPH2DMGDGHoyfsQS5cuUSV+OPw4cPY8zKsajUtTKsnKzEVfP5fO8z3I9/wtpFa9VoTwIhwRkr8vjxYxw6dAidO3eGs7Myw+xUkhYsHmBf342zZ/Hh/HmE6zwuG60WGezthRAPy8w/6Lx5jZUVbHLmRNYqVVBK91G/fn2h2EBu+PeZz2KuViqYI+vSvgXGd6mCTGnke9/onCz0mrgZI6csi9dq3qnTp+JiwCXkrS3PXLyI0Aicm3cWS8YsRokSJcRVlfgiQRorwhlBq1atQt26dZEnTx5xVSUxwr68mzdvClVor3VGQ/+SY8UZw0ksBeeHlc5wyAkr3/jB8nIarFSpUgk9f+XLl1e8+u3Zs2fCY1GzZk1xxXx+HzEUHWqkQ+7MqcQV+aDB6jhmCxav3RkvxRfLli/DmdBzyFjCtHyewehequfmnsG22duQNWtWcVElPkiwxorwprHwgifdX375RVxVSegEBAQI4bjDpw7BB97InDcT8pXKCyfXZLCxt4aVnRUiNBEI8Q9FSFAIXj98i8fXn8A21A4VCldEy5YtkSlTJvG3yQurxs6cOYMmTZqIK8pAI0mvRCrP5M6dO7i8dz46N6okrsiPh08Qlhz9hDFjx4krynDlyhX8seVPFGtSXFyRGQ1wddZlnPjrhOwHKpWYSdDGSg9LUG/duiWETKRIPqvIA0Nvk6ZOxJuQ16jeuApSZjE+nBbiF4qzu88h9J0Gw/uPUCT8snjxYvTq1Uu8UoY1a9agbdu2klWd9e7eCXN6V4a1lbJ53kEzdmLiwm1wcjK/iMNQ6rdugHy98uucHuW2ri9PPPFTstpo1qyZuKKiNP8Rsk2IsA+CahesnnJzcxNXVRIKLB+fPHUyek3sjuIdC6HRgN9MMlTEztkWP7b7AXVG1sKyo4vQuUcnodpLTpInTy7734gKc1ZSlkfbhn5S3FCRlnXK4eLFi+KV/DCfrcmuUdRQkZR5U2H17tXilUp8kCiMFWFpb//+/fH333/j0qVL4qpKfMMcUPO2zWBX0hL1+9aFtb1EG7Bu363YsDwq9CiDpl2aCIoLclGhQgVFN1ypYSgzRzyN1c+VNS2ePHkiXsnPjRs3kKN0/BR1+Fj7Cgczlfgh0RgrQjmY7t27C6fgTZs2fUvUq8QP7BVq0bk5fhpaE2my/19dX0psHW3QemJzDJ0xWDhVywHzRkqOhufjJqVaQnBwMJI5xtNYfRsr4e8rBQtT7FL+V/FeCVJmSSkIGKjED4nKWOlh/wtDg3PnzlU8fKPyf7r36YaGw+sKBkVO2G7X8vem6PN7b8GTkwMOMGRjuhJQzSJ79uzilflw+OOjF/ETHn/x3lPRyd+s4NQGx4934+fpJ0yZUIkfEqWxIpR94ZgRJqofPXokrqooxcmTJ5GufGo4uCqkp6YzWE1GNMCceXPEBWmhasrVq1fFK3nhpOEcOXKIV+bD5nmv0PjxrPafvCGozigFRXa933iJV8qi9dEmKOWO741Ea6wIK5CYx7p9+zb2798vrqooweLVi1CkaiHxShkcktvj+usrQmm81FDIlILKSvDhwweT9f5iommbrjh+SZ4waUyEhGnxOSwl0qdPL67IT5UqVfDwyEPxSjnozVXIXl68UokPErWxIjxVUpqJb36WICsVyvmeoVJCSLIgwdtRmtK1S+H69evilXTwdcQPJRLofPwsLaV96zE0vvmfZ/ALUm568rDZOzFwyAjxShnYutK0UhMEfpR/LExkrmy6jIH9BopXKvFBojdWekqWLCmMy1+4cKEwwVhFPhjGypovfrr502dPJ1v1WdGiRYXmWrmRS/Ny7qKV6D15B8I08hcezdt4Ag07DJU092Yoffv0xYstzwQ5JCX4cP09OlRuL7k3rGIciaIp2BgopbN27Vrkz58flStXFlf/CwszmKN4+vSpUPpL8VyvAC9kTptZ6H9hTkEvAyRlP0xSgI/ZggNzULpOSXFFOQK9gmB5205yAVhCEViqlVOTUi4oI3bw4EG0aNFCXJEWHtSG9++KGQN+RfqU0udXtLrdYvjsXfihcU9BMT6+8PT0RL0Ov6HCgIqwtJfvzP3p7ieke50WM6ZMF1dU4oskZ6z0cOw5y0zbtGnzLeRCFYzN2zbj8ssrsExtiRzFc8I1s+tXteZIh12e2ML8wvDp6Ue8vvUaKbSuqFe5nuC5pU4tT4l2YoIHgsZ9GqDxoAbiinK80j0f1dL9iGrVqokr0rJkyRL07NlTvJIe5ldZ6s1qVrlgKPyPkcOQ08UXXRpXgZWxQ6xi4Or9t1i08zL+nDQ3Qeh18sDZoWcHpK2bDi7Zkour0mCh+3dr5000zNcAPXvI93pQMZwka6wIw1W7d+8WRhnMXT8XKUulRs7KOQET5L3CvMNwa99N5EQOjBk5BtmyZRO/8n3SuG0j1P+jzr+MvBLsmP4XNs/ZJpsaPzX7+NzKtRlTCZ5NyEqMnWDByNzpE1AqhwNa/FoeLo7GS5VpdK7U6WvPsOXITdRq0F42j9BUmGNcumwpNp7aiHIdKsDaxfwoyMdbbvA47Y4Jwyaos/USEEnaWL19+xZdB3ZFqqqpkbGURMKo4cC1rVdRJX1ljPljzHcrbHnkyBGc/ngC+Sso12ND4duXf73F5IlTxBXpYTh4z549gm6fHMgxwyouqPqwbOkSIPAjsqe1R9UyhVA0byYki0ZtJFwTgRcfvuD05Qe49/wjrF2zo0Hj5rJ5slLBOXhHjx/F9Xc3kLl8ZmQpk9WoQ2m4XzjuHLwNR08H9GjVI15DnCrRk2SNFfuAfl8yCpX7VDHJk4qLQLcAvN7xCusWrxMaFb9HWrRrjh/6V4W9swKKArpX6YZRW7B12XbZH285hW2XLVsmqLAoBUO28+bNQ58+fWBnZyfkzK5duyaMbKFh9vz8Afa2VuAuYGHrJHisLONnwVJiiR4wB8iiFf1kBsqx7d23Fw/ePoC7xgPOGZ3hkjI5kqV0hH0ye/i4+yI0MBTubz8D3kBmp0yoVKISGjdurGgZvopxJEljdf78efy5cTRKtZHXhdeGaHFt3lUc3npIUvmcxAI3uyYdGqHF2CbC2A/Z0L1Cd8z4C5P7TxM2UrmhZ8WckhwzrpT2rFasWCF4CUm1ku2vv/4SVCWqV68urvwXFp0wT6ivEqZaCY2Sq6ur8KGSOEhyxoovyCYDmqLqwGqKKDMzfPB5+0dsWr1JXPm+YCVl175d8EPPqkiRUfo3viZEgy0Td2Dy0KmK5Q/kmnHl4eEh/N5GjRqJK/Jy9OhRwVNijiwpwll3LJ1PqvdP5d8kmT4rPZOmT0KVPlUVMVTE2tkaIXlDce7cOXHl+4KFArs2/QX3f7xxcPkRaMMkaqrVPX3Xj9zE8dmnsWnhFkUT3bxPNFhSQ01AKWWWYoPtBe7u7kl2I6fMGttTVEP1/ZCkjBWH/z0MeQTIq6v6H3JUzok5y+eKV98f7EObOH4ipvWdifOLruDAssPw9zBNEiksKAzn/7qELb/vRK0cv2DTms1IkyaN+FXlYHhIatFcqTUBY4LhWRYctGrVSlxJOjAQxFBq2bJlFRnMqZJwSFLGihOFC1QrIF4piAXgplGHQjIhv2LxSiz+fRks79jh70mHsHPmbtw+cRe+H/0Q6h8qfudXwoLDEfglCE+vPMfu+X9j16S/8W7vZwxtMgJ7Nu8VvIP4GrbJE7vUM668vLxkz5FwM1+5cqXQ2CyXUkZ8QZkqFr/88MMPKFRIWV1KlfgnSeWsZsyYgU+l3GFhp/yb9O6eO1gzaLUsSfnEDPtgODiRHxRwpQjtx48fhQQ3y/453oIjJooVKwZHR0fxp77CSjZuTvXr14+XyjSpqwKVKK7gnDd6HQmhaVdKOFmZz0fDhg2RNWv8SH2pxC9JyljNmTMH74p8gKWD8g4ju903/74pXkJWSRmh6XPpUtSqVUvxDZh5kZYtWwrVY+bCt9mqVavQpUsXcUV66AkyBFi7dm1xJWlARY5FixYJz4V6GPx+SVJhQJ7Q/T/6i1fKEvApQDVUMkCpLMofnTp1StbR9tEh5YwrvTcpF5QW4+OT1AwVPXGKU7dv3141VN85ScpYVaxYEfePKbuhCWiBHI7Kq09/LzD3wkGbHA3ChlaloIixVDOuWFwhl0I5PY+tW7eiY8eO4krSgNp/1GqkN/q9Nt6r/J8kZaxSpEiBcunKQhOkEVeU4fGxRxjSe4h4pSIXPF0/f/5caPpWAhpJfjCxby5yVgKyoKJdu3ZJajoAVdXZ0EyvOnlyaUVqVRInScpYkZHDRuLCgvOCarISBLsHIYtvZrWMViE4aJPNtVTVVwIWfkgx44rhLDlGolMYt1KlSkkqBM2Q6bp16wSJKHWMvIqeJGesOMJjxcTlOLf4rOwGK8w3DM83PcPcGd9vj1V8wOpAVodRE05uSpWSZzKxFDBHxYrJ4sWLiyuJH4pPM6TZt29fSQpbVJIOSc5YEerHLRm2GGenn0ZEiDzFjp5PPOGxyx071+2EjY3CXcgq+Pnnn4VSd2rDyQmfWxpGc2AYUWp1/i9fvghizRRfTSowxEtPkYZKfU+pRCVJGivC8M2BNQfwactHPD7ySJDvkQJtoAbnFp5FYe+C2Lhyw396g1SUg+KlrBDbvHmzuCIPrDJlg7KpUK+S/WRSQW+KZfVyTjRWmgcPHgizxHr37v3djt1RiZ0ka6wI1Zg3rFiPsQ3G4Nmyp7i14yY0/qYly31f+uD84nOwOWWN7dO3wdLCEo8e6YygSrxCpYkCBQoIm7dcUIGdYydMRepKQI7e59TqpHJQ4rgSqs9wdEpSU91QkY4kO88qOqigsHnLZvxz8x94wRuZCmVC2lzpYO9iDwtbC1jaWUIboIUmXIOAz/54c+8N/N/5I7tzNjT+pbEwaoEzgQgfth07dsDW1hYNGig/3l3l3/BkfvbsWUEhQo4Nz5xx9ywW4IRd/WvHHP755x+h6q9q1ariSuKGh4AXL14kSR1DFWn5roxVZHi39TJAoaGhQmKXuQUXFxfBI+MHZWvSpUsn/kT0sFKMDasMyaiVS/ELcx6HDh0SjIrUoSTmUvh6MKUxVaqBi/TQaJBZpp4U4PuGuTelRqaoJG6+W2MlJVTnZhiqbt26SU6TLbHBQ8euXbuE3IeUSXqO2+DmyvCbsUhhrFj6TtmpgQMHCqoeiZ3Dhw8Lh0N1fLyKoSTpnJVSUEl7wIABQonzvn37xFWV+ICFDAy5LViwQJgOKxXsY6LBMhZ67eaG/3ie1CupJwVDRS+VBwnVUKkYg2qsJIJ5Em6SmTNnFjbKwMBA8SsqSkMNPqpdUFOOHolUmDLj6vXr12Yrxm/fvl3Q/EsKI9i3bdsm9ELWrFlTXFFRMQzVWEkMlSzatGkjhGyePXsmrqooDbXkqCfIwgiphihSe9LYGVfmyixRC9HJyUmoeEzssNAkV65cguKGioqxqMZKBqhRyNwCy3E5sVUlfqCmHIstOJqDWnPmwvJzGh9jYI8VvW1T4ORrGqvEHi7ThzGpBkIlexUVU1CNlUwwLNi6dWshJMVZPEFBQeJXVJSEFZrUmOOpXoqpww4ODkblwtjAa4rALHNd7Kfq1KmTuJI44TwyercstaeKvYqKqajGSmZ4mmQui1NO2U+iojwscKCED3M/b968EVdNo0yZMkbNuDK12Hb16tVCOJl9fIkVGmrmDekZUgVERcUcVGOlAMyfMCx44cIFoWRXRXlYfUYPi9Wa5uQSCxUqZPCMKxbZmNJ7R4FeHnLkHNYoN5yxxUKjJk2amF1goqJCVGOlECw55kmZzcb0sqQsq1YxDDYK9+rVS1CBMHWoIsO7/DBkxpUpxRWU8PL19RU8uMQKjTQ9Kr7eM2bMKK6qqJiHaqwUhioIbCxlHotlzSrKQkNDSSaG8qhJZwocyWHIjKtXr14ZpQnIqsUjR44IM7sSK35+fsJhjD1hSWnGlkr8oxqreIBvYjYRnz59GkePHhVXVZSkQ4cOePz4sRCaNZaSJUsaNOOKBR2GehYsRGCeiiPcaVATI5RO0qt1JIWeMJWEhWqs4gmGpKjxRi1CvsEZ41dRFha+sDycc6GMwdAZVzRAhhqejRs3CoLIiVVf8vPnz4LkGGWunJ2dxVUVFelQtQETAHyjs0y5WbNmks49UjEMit+SX375RfjfEDhWn89VbFVuy5cvF0KOcUFxWpaqx7eqA8OQrFhlzozSUqzmo3AvR5HkzJlTUJ6IDvaS7dy5U8gHJubqRZWEjWqsEgjcGGiwsmbNqkrRxAMsuvDx8UHDhg3Fldjx9/cXphTHpIBuaP6JpfQcOhgf/VQ0ShT9vXb+oO4OPUeONOHIlSUFsqZPBntbK1hZAoEhWrz/HIBXH3zw+J0WcMqBfMVrCgcrTiSgcWPjO5uvTeknU1ExFNVYJTDOnz8vVKoxp6KeUpWF+SsaD4YHDSG2GVe3bt0SvCUW1MQEG8VZjNC/f39FN/q7d+9i8ZzxSGf5EB3q5kK2NMblyD77AGsPvMQzn4xIm60kJkyYkCQEdlUSNqqxSoB8/PhRyGG0bNkSmTJlEldVlODGjRtCpR8PC3FB9XCWmEdXRLF7925Urlw51oo49iFx6CD78JSA+bnxfw5B8dSP0alOJlhamPvWt8Ducx44cCc5fh8/T9D9U1GRC/U4lABhMyirBdlAzBlKKsrBSj8aoBUrVsSpPkFBVnrC0cGcT2yGiuG36tWrK2aoqFM5qsePmNkqAF1+zSiBoSIRaFg5FZb1sMHSsQ2wf/9+cV1FRXpUY5VAYVhIP7+IIqDMaakoA1UqaEgYomNFX0yw4MDDw0O8MhyGCFkNWqRIEXFFXpgTO7G2O1YMyQ17m5jvj6lYWUZgeo9c8Lo2CWvXrhFXVVSkRTVWCRwKgNapUwdz586VRIhVxTA48ZmTnxmqi+2gYOyMKxo3emMsU1eCp0+fYv+qARjZhs3J8kb829RKB48bC3Du3DlxRUVFOtScVSKBfT1r165F/vz5UaVKFXFVRW54QNi6datQlh114i8ND0NfbBCml/XK7Q3CLbVwhB0iwrUoWLCgMBKDihecSUWjN2/ePEGj0NzpwYbSqeVPWN7LUfB+lMECHaa/wprd19WiCxVJUY1VIoMl1pRpatu2rVoqrBA0Shwxwso/Vmpu3LoJx5+dhzaNNdIWzgybtA7QRlO4aRUEBL31hdud10gT7oISaQuiY4eOsVYISglnYT052A8ta6YVV5Th6pMgvHbqIsiKqahIhWqsEiFswuR4cAqFstdFRX44XmTiqumwK5UayYung9YET8UqGHh/5hlyB6TH1FETBc9LTv78YxRG//QA1op5Vf+n/3oHzF+2RbxSUTEf1U9PhHDyLENJe/bsMUnbTsVw3r59i+oNa2HO4/VI3bUgnEumNclQEY09kL52bgQ2cEaz+d3Qo38vWWW2vD8+ihdDRTT+5s0NU1GJimqsEinMeVAwlOMYGKIyZGSFinFQM7Bmz3qwbpkRDgVSiqvmo7WIQNofc+JpcR9UbVRTMIhyoA0LED9THssIdQSOirSoxiqR8+OPPwpl1qwWpMagijSwL6nnimHI3KGoyZ5UXEQ4W8G5fS7U6doQXl5e4qp02KfgLK34UXCPsMsgfqaiIg1qziqJwHASR0ywqbVcuXLiavR8+PBBmOfEkmtWu+lDUWxGdnBwQOHChYUeIKqLf4/wManeuQ4ydyqKCJnLvYllqO6NuOszju48JOl4EHrc5Rx2IF8mZQtxfIIsseBCEfw5epy4oqJiPqqxSmJQPJWyOiy+0JcO0xhRbPSfPdtg8eEJ8qe0R+U8GZHOyQ72VhZwto6ARncC99JtmkFhGjz46I0zT97D2y4lspSriVZt2ho98TYx029wfzwo7QWtgrY6+Ik3Rhbpinr16okr5sPnvX/r0lgyUFkZpLGrn6PX5ONq8Y+KpKjGKgnCcepUBKeC+LpVK+B3+SDals2Foqntxe8wHL9wC2y7+QqXAxzQceiYJN/jxXBcue4/InOzQuKKMljo/oVtfo8zfx0XV6Rh9epVyBG8CdWLuYgr8vLkfRi23i+GMeMmiysqKtKg5qySIPSC7O1sMa9rQ/R1eY0ZdQqZZKgIva4uZbJhefW0+LR+LLo2a5CklTQoZJuhrOGj6KWC4cb3lh4GDXU0hk6dOmP/k3x4+Un+AhyvAGDqHgv8OWaiuKKiIh2qZ5XE4NiJoX16oKXrF5TPJP3E1hCtBfrvv4eOk5egYsWK4qp8sNrx9u3bePLkiVBAwmtu6MynMcdGIVgqROTOnVv8CfPg2I+/nC5C4yAuKIj3pQ/Y2m1xrAMdTYHKGUMH9kK9/M9Qo7g8Htb916GYfdAG85ZsVCcFq8iCaqySECxf79TkN0wt44y09nI6zRaY8M9j/DRqASpUqCCuScejR4+wbctGfLr5N1JrP6Ja4dQolMEW9jovL7nNV89DE2EJr1Ab+ARH4NxjH9x5F4qglEVR+dc2QviT021NYdWqVdhqdQoaJ+Wr6DzPvMbeQeuQPbs8nh1Dgk9Pz8Hv7fLAyV6at32oxhJzt7+ANkMjjPj9T0kLRFRUIqMaqyTE70MHoYPjG+RKrsTQRgv0+Psexmw8IDQpSwFHxW+cOxI10nugcUknOFoZrzT/5IsN1p79DG2+xhj6+9gYR7HHBEVYR5ydCds8yuR4IvN682083XlTVk09eqczpo5DyuBz6FwvB9KYeDd9gyyx8chrPPDOh8EjJwpj71VU5EQ1VkkEeiPHR3dEz/LKVe0Fa3UG8qkD5i1bJa6Yxvv37/Fn//ZokOk16hWSpgTPL8wGkw99QYaaA9B/4GBxNW4YRi3WvCIyt1NmfIceS53xd/jLF/s27xZX5IUDPinZdevMZhTMGIQqJTKhaE4HOMQwQiQk3AKP3obg7E033HtrjezF66NlqzayeYEqKlFRjVUSoX+3TpiaLwS2kgzVM5ypJx+j47J90U7LNYTTp09j68S2mNs4OWwtpS8CuOlmgWXP8mHWkvWC8rkhjJ84AaczP0KEk5W4Ij/elz9gUaMJsoRVY4K5QB4UmHu8cuWKMGfr7Yv7sLYMR4jfJ1jRwbNLBStre6RIl/NbD1/atMoK46qoENVYJRH61i6FuT/nE6+U46WfBtfyNUSLFi3EFcPhXKdTs1vg95/kTch/CbbGgOOuWL3rhEGNzv7+/qja9Eek7JRPkEaSHe9wZL/uiNVLVooL8kMPctmyZcJEahWVxIBaup4EYIVcGuv40QbMlMwajx8/Eq8Mh3p4G8a21Bkq+XNDKe3DMbGqN0YM6i2uxA49sL+WbMWb1bdgGSFvwYBlYAS0+z9j6bzF4ooybNiwQRgzo6KSWFCNVRKAo9ct46kKi7UAEVrjvY8ZE/8QQn9yT6/Vk9UlHAUDjuLOnTviSuwwF3No4V/wWvNEMChyEPrKD6lPanBg017Y2ipRFPMVSm2xIIJl/yoqiQXVWCUB6Al8Doufp/K9fzjy5jMu/Mg8SXrPE7CTIUcVG+3KOWP5XMOVFXLlyoWzO08gzw0XfDz0FJZaaQ4ElkEReLfhLlo6/oitazYjWbJk4lfkhyHOS5cuCQLIKiqJCdVYJRG0mQogHMp7V7tuvkSlSpXEK8NgrqppWeVP9dYWGli5XRKvDIP9WkvmLsLeEeuR+nAY3v/1AJY+xhtZyilp3gQKRqrMkyy4uv4UevcyLCwpJevXr1fDfyqJEtVYJRG6DRyGDddfi1fKEBZhgVeu+ZAtWzZxxTCY48rqEn2JtNykdwyGn5+feGU4efLkwdbVm3F58XG0iKgBm11f8Hb9Hbj/8xIR74IFA2YdpHtDhemMou5/C48whL/wx/sDj+Cx6THSHdZgaN4OuL/zCqZMmIzkyRkCVRb2kFFN39XVVVxRUUk8qNWASYhBvXugX7ovyOKkzEiI/vvvY/CqPUYrsk+YMB7D0uyQpVQ9LqYe+YI+a5+aLQnESjp6KO7u7oIUFMeusMKOivc03tbW1sL/VD6nYSpTpoz4k/EDx8Fs3rwZvXr1EldUVBIXqrFKQlAzr1PDXzC3Slq4yjzeYva55yjddypq1KghrhjO9u3bUeLVJOR2lVa01RAG7A7EvEOvxCvTeP36Na5fv45GjRqJKzHDt9fChQvRt29fcSV+WLBgATp06KDq9qkkWtQwYBKCPUSLt+zG8JvBuOseKK5KC/NiAw8+QPGeE00yVKRy5crYcdlDvFKOsAgraDKUF69M5++//zZ47hS18rJmzSoYuPiCMlZly5ZVDZVKokY1VkkMbkgrtuzCiZQVMfrYQwRopCu6+OelF7qd/IRBK/egVq1a4qrxUO3iU5paCNEqpxBB1l/yQ/eBo8Qr07h37x7y5ctn1BTl2rVr4+jRo+KVsnh6euLZs2dxTo9WUUnoqMYqCcLT/OChw9B/3RGMf5McY44+wCs/40VhCUeC7Lz/EZ2PvMYZ19KYtmKjJHpwQ0ZNwIBdPrrPlKlgfO1jhUfOPwkFBuZw7Ngxow21g4ODkMMypbDDXNTmX5Wkgpqz+g7gJrlr1y6c37cdyX3eoVSWVCifMx1c7Kzgav3/p5+GiTbtiYc/zj5+g3dhdkhZvCqatGglzIxiToyFBTVr1kSBAgXEnzKdCxcu4MTM5vjjZwXklk6kwJpdJwSjYSq8vVREL1/e+FAiCy+og9isWTNxRX4OHTokzPwqUaKEuKKiknhRjdV3yP3793H37l2hOZdNop8/f4KrawpBRYH5FXpOpUqVgovLf6WQ+HJhVVmWLFlQtWpVcdV0zpw5g80T2mJeYxdZqgNvfACWPy+A2UvXm9V8S5WQ+fPnm6Wlt2jRIvTo0QNWVvKHP2kc9+/fj86dO4srKiqJG9VYqZjEkSNHBEPXuHFjccV0vo4I6YD6mV7hNwlHhEw65IlMPw5CvwGDxFXTOXz4sGDICxYsKK4YD6Wevnz5gurVq4sr8sC39Ny5c4UydTs7O3FVRSVxo+asVEzip59+EvTlli9fLngd5pApUyas3nkMLg2Wo/N+Z6y7EoSAcNPCdY+/2GDkXi9MeVkNw9bdlsRQhYaGCkUK5hgqUrRoUYO1Cc2B1Yos6lANlUpSQvWsVMyCJdl//fUXunfvbvIo+aiwyXbr5g34eONvpI74iKoFU6FwRlvYWQGutqHC94RpLeGj8568ArU49+TrWPvQ1CVQ+dfWaNCggWS3hezcuVMo/aZnZS4s0GAINX/+/OKKtNBLZal6u3btxBUVlaSBaqxUzMbLywurVq1C+/btkSZNGnFVGqgKQW+Ek5A9PDyE0KMelsCnTJlSKCD4mnv7LLlAK38vc3TdunUTV8wjPDwcK1asQM+ePcUV6eBbefbs2ejXr59RpfUqKokB1VipSAJlhVgp+Msvvwg6evEBVRpYwCDlRk3h1zp16iB16tTiivls2bJFKH+X8ncSeoDFihWLt8dfRUVO1JyViiQwP0JJISqqcwRFfPDbb79h79694pX50JMjUhsVGvSDBw+KV9LAcCxza6qhUkmqqMZKRTLYjEz9OW7yTPIrDYVjGZKUqvmWuThD9P+MharnDG/SG5UCjUYjeFVK9nCpqCiNaqxUJKdu3bpIly4d1qxZI+RRlISl9Ny4zeXNmzdCPoyDLeWAYUAWW0gBhYF5v81peI6OgIAA8TMVlfhHNVYqskAtOjYNs5FWKg/CEGhgGJJ0c3MTV0yDniHDinLBsv+XL1+KV6bz9OlTwUiZKoFFD2/fvn0Y9ccfqPJbbaQtmx92hTPBomhGOFXI8/X/otmQuUJh1GnWALNmzRLmYqmpbhWlUQssVGSFIcG1a9eiU6dOgiFRguDgYKxevdrk2U0PHjwQckDMLckJ5ZtoWKkWYgqsLJw3bx4GDRokhGCNgcohi1Ytx95bZ2CbOy2C7C0Qjrj75ewsrGDtGQz7z0FoX7MBenXvIYz/V1GRG9WzUpEVFif07t1bqKp79cq8OVKGYm9vL+SvWO5uClRIZ9Oz3FSoUAEXL14Ur4yHJfXNmzc3ylDdunULVer8iJ8n9sROzSOEFE4DP/sIgwwVCYnQICClDTzzu2Dhh9Mo1KoWuvXuKbQNqKjIiWqsVGSHquPs/Tl+/LgwtFAJ6BVRIslYLl++LDQAU7BWbmhkqN7x7t07ccVw6P1xAnHmzJnFlbiZNn06KvRuiospfRCUxh5aM4MqoTrDFZI7BdZ7X0eeWuXwzz//iF9RUZEe1VipKAI3/y5dugjhNaqBy41eHZ2hNkNhRJyeTsWKFcUV+aEHZ6xRZQ6Q2oyG5tQoh9W4dQuMP78FwdldoIkwTx4rKiHQwLdwStQZ3R1Lli4VV1VUpEXNWakoDhP0LC5o06aN0bkWY6GgK/u/DFE6Z/iPqhiFCxcWV5SB+TWWnRtaecjv//XXX4WKS0MYNGwIlr04iUAFpALt3vhiz6gF+Pnnn8UVeWHZPicI8PXk6+sLd3d3YZQNn0d69Cxk4fPJ0LBK4kY1VirxAvNJLN2mpiBHk8gFdQb5wXL62OAGt1TnFdCwKQ0rF2nAmzZtKq7EDHNO/H5Diz/ogTWYPgDB6aXTSoyLZHc98PrkDaRKlUpckRZWQG7asgkXH12Er5UfshXPjhQZXGGfwgGW1hawsLKEJkSDEN8Q+Hv44dnVZ3AMdUDxLMXRomkLlC5dWvxNKokJ1VipxBucubRx40YhPMj8i1wsXrwYHTt2FE7aMcEG4JIlS0oyBdkUOOuKeoGx5coCAwMFlXtjZmqVrFkJtzKEKFpq7hBhjcF5fsKEcePFFWlg+Hj2mtmwz+eAfDXyw8LOSK9cA7y+9Aqfrn5Ep7qdhAnKSuQmVaRBfaZU4g2GsajlRxFcU4oMDIUqFDRGMUEjwPBRfBkqUrlyZcG7ig0admNG1D98+BAPNR6K90QFWYRj0d+bxCvzefz4MX5p9gs2Pd+M4v1LIv/PBYw3VMQKyFYpO8oOKI/zVhdRvXF1QR5MJXGgGiuVeIXTe/v37y9MtZVr1hNHuzPM5+npKa78Gxqyhg0bilfxAwVoGeKLiStXrgj9TMaE1jgR2jadq3ilLL5W4fD29havTIdaj50ndUGRfsWQoURGcdV8kudIjnJDKmDC7omYv2C+uKqSkFGNlUq8w+IHelj0BDiLSQ4oR7Rr1y7x6v9wci+ba9OmTSuuxB/58uUTvIiocEwJS+pr1qwprhgGvdVQaRWYDMY+pTPevn0rXpnG1q1bsfrGGlToXhERFvJ4h0UaFsV12xsYP1HakKWK9Kg5K5VYoZL3vXv3hA/q5XFjf/P+DTKmyyiM4uBAQm6yxYsXl2Tg4cmTJ/Hx40e0bNlSXJGO6PJSK1euFBprnZ2dxZX4g94fb0/UWVfMubVq1UoQwDUGGudO26fD1zpcXFEOq8fu8Dh+x+jbrOfatWsYunIYSrctI67Iy/NTz9E6f0vhUKOSMFGNlcp/+PDhA7Zt24Yj147Ax8oXOUrmRLo8aWHlaA0L20i5gvAIaAI18HzpiWfXnsEh2B5VClRB29ZthZJhU6FhpBwQBx5KKc5KQ8uNnw3KhJ4H+7ASklr5pk2bkDdvXqHp98qta7j85Dr8EAhLW2sEWYTAKswCjvaOcAi3QfYUmVGhSFlBrom9YVEfK1ZcluheH8GZ5RHjjY1UD33hceOpeGU8tZrUQvEBJXU7lLigAOfmnMHJjSfVMvcEimqsFISbJTdIhp7YE0LonVDFgLp5Li4uwlp8wc1t7LSx8HDxRNE6xWDlFHdvUlS0wVo8OvEQFi+BPwf8KQjamgLHszMMRIMlpddDlYUUKVII04VZgcdKROrzxTfMp61btw6bT+1CcFZLpC+eFVrXuB9/Gq/AF17wuPIONXNURJd2nQTvUU/pH6vgRvoghasBrTA0Xx2MGzNWXDGOU6dOYcn1ZchaPqu4ogyBbgEo+qUIunfrLq6oJCRUYyUjDOuwl+joiaN47fEK4XahyF4gG+wc7JA6YyqhbNbL3RtB/sF49+IdwrzCkco+NSqWriSEI7ipKgGFX4eMHIKnls9QtEExSTKZFrp/T088gcNreyyaucik+8K5VCzVZggsQ4YM4qp58OXORmE2rb548UJoro1PWIk4e+4cbLj+F7I2KAiNg+muhGWEBTwvvkUOj9SYMmqCEJ7l6++3Kf0QnEG5Pisn9lmdummycPHIUSMR/rM2XjLqb1a/xrZVW8UrlYSEaqxkgGG0GbNn4InnI1SoVw5ZC2U2Kpzh+9kPZ/86D2tvW/Tu0kdW+R8mwdv1bYeiXYvD1lX65lx6Whfmn8eyCUtRtGhRcdVwaPBpsGrUqIGCBQuKq+Zx+/ZtbNiwAdOmTTNI2UIuGO5sOaQD0jbLhwgX6W4Hjdb7/Y/Qu2xb9OndB8N/H4mFj48iUIHolt0rH+wbu0SY12UqLbq0QJaO2cQrZbm26CpOblY1DhMiajWghPCU/MfoUeg3rQ+Kts+P5iMbI2th4wwVcUnrjF97/Iyfhv+Abdc2oVWHlnj+/Ln4Velg6Klpr6YoPaisLIaKWNpbosqwqug+qbugJGEsDJNStf3mzZs4ffq0uGoeLBrh76VmXnzBGVJNJnZE2s6FJDVURGsRgQz18mGz3zG0794Rk8ZPQD2nAnD004jfIQ/2r3yxoOMIswwVCdMqXxCiR2ug+ryK8qjGSiIYUmrUriEy/5oev/WuAys7CTYgnZEr9XMJwWgNmtZf0lHx1FRr3b0NKg+qKjRLykmE7l/lPlXRcWinb7k6Y2ndurUg4GruFGAGEth8y1J59vDEBzdu3MDQLeORsUkB2UqyiX3u5HhVxB+jxvyBres2YkKN9rB/4Q0rC2nf9vYW1kh+7wsOT16Jrl26iKumkz2VzquKp3hPavvU4mcqCQ2rsTrEz1VMhM2XAyb2Q6uxTWHjaCOuSoeFpQUKVsyPs1fO4u2ddyhdynxtM45C98jpCYe0CuUydIY3XaH0eLD/PqpUqSIuGgebYmmwaLRZIGGKVA4LLAoVKiTkc6hewMo7JQssmB+s3eU3ZGxTSFyRF0snGzx8/wQZg1JAqzug1C/3A7xuvsAnbw9EONsJBwlTsdMZKeunHuic7wfsXrVJsjBtUGAQbr29BcfUyuXZSJhPGPJr86JypcriikpCQvWszIShtAFj+qHFH01lfzTL1CmJSx/OSzI3aPnO5UiRR5nJvXoYatx3c79ZY+5ppFgcwXH5DLsaA6sxebCgWgRhEYu5npqxrF6zGhka5RevlCF56QwYPHWkIH7brl07/PP3IZyYsArNbArA4Z4HnHUPo42FYe61PayRzDMUaR/7Y2C2mni0/SQWzZ0vDNmUCo4+eXrA+JCxuVzdfEWtBEzAqMbKTEb+ORItRjeFzJMuvlGjVVVMXTZZyLuYio+PD7Rp4yfOkq1cdqGHyBw4BZjCtOyZMmZCLSWdIquvs1qNXhVVzJVi1ZFNQCrpve+4cKmc4V/3k1OKN69ZD68rT7Ct20T8kbcuagSlR9qnAXC65wnc1X0vP269R4rHvsj6KhwNkAtTyrTEiXEr8enaY0yZNFkWPUV6zCM6j8DT48oZLPeH7mhSprHJTcwq8qNWA5oBK+mGzh+EOl3lH4EeGfdXnnB9mxqdO3cWV4zj6tWrmH9pAdKXlKYc3BiCPwWjUmgFtGjRQlwxHXporBSkp5UnTx5xNXqCgoKwdu3a/6hDMCzH+VC9evUSV+SDlY35W5ZBthbGV0Wai5WvFm2tawuelSFQp5CeaHyO05gybQqepHqK1AXSiCvyEPQ5EAGH/bFm2RpxRSUhonpWZrB792780Ly6eKUcabKnwrHzR8Ur42G5tlYTP1VPEVqtZOXi9Ir69OkjqFDENRGYUktUX48K1QroqbEhWm7Y6Jwsg3yjUGIjwskKr169Eq/ihp67nHPGDGHk8JHI9yUvHh40zxOPjQ83P0B7SoPlC5eLKyoJFdVYmcHzV89h7xI/6gcBEf7iZ8bDooJ3j+QbyREb7i/dheIGqeCk4fbt28PLyyvG6j6qf3PzjWmyLnM5xo6WNwU2Ngd8Nq0a0lwsArWCUoqhJARjRUYMG4H+1fvh3KyzCHYPFlfNRxOgwflF51DLuSYWz1sstDLEBQWFKbQ8c+ZMdO7eCZ17d0Tzjk3Rvk9btOvdBq06tUCHHu3Qf1B/rFixQvBO1cCVdKhhQDPo3LMTqg2Ur2E3NnZM/wv7Vh4Ur4yndtPagvaaOdVgpnB+7jmc3nzKoM3BWDhGg422zGfpx+Uz/Dd8+HBhFIn/a5335PkOFtpwOEWEwcbKAt4hGlg7OsErJAIhrhlRqeZPqF69umSVbVEpWr8cUreVzlgbSuA9T8yuPcrgBnNuyjly5DBL41FKGPJdsHABdl3ehcJ1iyJFrhQmvXYD3QJx6++bqJq1CoYPGR5njootHuyJ23doHyxdtKj4QwXkKpgDtg6xG3Kvz954cOsRrp68hhzpcqNVy1YoUqSI+FUVU1CNlRmMHjMauVpkgYVu01Oa3VP2Y/eaPeKV8dAL2eW2G+mKRO9tyEGwexByvsqBgQMGiivSw343lrbT2Ozfvgm2r26gSfHsKJreBXaWcb/UP+uM1umnn3DifRByVa+Hzl26Ik0a6XImk6dOxj8ZHkCbTNmgxpc1j3Fz/6VvRjwuOJWXm2vmzJnFlYQBPT7etuUbluOLrRfS5E4jjLW3T2UHWEe5b1qdkfsSAreHH/Du3juks0iLxrUbC+FgHl7igmH+jTvXo37HushbNLe4ajzhoeE4vucfvL3rhhFDRsaZX1WJHtVYmQE3/LuaG8haOIu4ogza8AhcWXoTi+cvFleMh097w1YNkatTblg6ytwVTDQ6z2fmJRzedjjW8fLmwtES88YMR+OMEfi1QAZYmuE5eocBs04+hGOF+hgweAicnMxXL2clZqlWVZC1Y3FxRX5CnvuiR8bGRk0Z5mubFYOGzPl69uyZEPLiLC4WZbz88FrwenJkyCYowTPszHYBqcK/9HRYhUhj+vTpU0HdhLPQWMDy4Ysb2POcOllqYWQN85FUpS9cuLDBhpoh5d79e6FG0yooUk66fjhNuAbbV+xCNpdcGDRwkLiqYiiqsTIDhgh+bV0HrcY3FVeU4ezOC+j/2yDhDWgOVJOo0+ZXlB9Y4d+jPyTGIsICp2aexG+l66FatWpCKEpqTT6+jCdPGIc0j46jY+lsZhmpqHwOjsDwo48xZP5ak/QNo3LkyBEM2jMB6WrKH2Kz8NMg/TlLbFq1QVwxjB07dgiySdGFyfTezYbdW3Db+zEcsyVHmoIZARdraKNEd63CLRDhGw4PnXcT8MobhZ1zo039FoKAsCmjOFikwhCloVWNxsJCmxHjhmHAlD6wd5QnH/3k9lOc3nEBSxctkyUcnlRRFSzMgP0g1uE2uPP8NtJmlbe8Vk+QTzDennRD185dxRXTYTXdb7V+w4rxK5AsmxNsnKR/44T7hePqvMvYOGcj6tevL3gWDK/wJMxx81J4KzxRd2vZBO2Tf8ZPuVMZK8UYJ8msLVA/XxosW7kafs4ZzPYQaFjfnHuCp+9ewDG7fH09EZ6hsDzkhe2rtxg9F4yeEg9DkTdTlvnPmjMLXWb0xz3XdwgpY4/kRdMJxirCUXc8iOb8EaHzciIcLOGQNbnwvSH5bHD5/S1MmzEdPi/cBTUWQws5qOXI4ZQc6yKHALGHhwf6DuuNkfOGwNpWvhHLqdKnQtZ8mbF4xjLU+bmOuKoSF2o1oJmwXyjiiSU83niKK/KhDddi99R9WDhnobhiPlQe+HvzXqR5kApX1l7W7fziF8xFC9zZdRshh4NweMvhb4l6eibsaaLh4oDFhQsXClp99FJNZVj/PvizsA0KppJPVlznH+DPH/Li2tKxQtjJVGhYmVNbvmw5Zv32B95vuCt4H1Lje9UNxZ9nxOFt+02Sk6L3FPnnDh48iBKNK+JIytvI0r4orLKYLoVkmckBWdoWxamMj1GqRRXh8GIIVBvh60Yub6TvoD4YPK0fn2zZSZMpNYr8kF/o/VMxDDUMKAHcaPsP7g/XUsmQt5w8ydOAL4HYPW0f6v3wGzp06CDLGHaGWMZPHY8HAQ9R7NdicEhv/IYU7hOGW/tuIV1wWowbMc4gL4Sb/8WLF4X79NNPPxmUJ9GzefNmpL+8EdWyKaM8wDdLx70PsOrYFZNKu9evX48ffvjhW+ECx8n8OXEMLoc/QPpauQXFdHMIfemH0DPumDJgHGrWrCmuGo/eg+H2MG7ieOz1Oo0UFeUptvC55oZa1qUxadzEGD0m5sUoACzXVGcemC48O42qdZTVBZwxeC62rdkh6UTspIpqrCSEum/7ru5BvZ6/wloK1XWie3auHrwOzUsLzJ4+GwEBAULymyHIBg0ayCIPw36SXbt24e+T++AW6oaUOVIiS5GssE9uL6jJW9jp/IzQCGhDtAjxC8aHR2749NgNqXT/fqn4C5o2bWpSBR37oTgs8NOnT8K02/Lly8cqVsuXbsda5bGqTi5xRRmeeofibJaf0LWrcaFY6hJy06V3EBXmSuYvXYgTLy8gbeXssMvmDK0B1YvEwluDd6efIJcmAzo3bi9UuxlaTBAT7BPi/Rs1+g+ccX0Am6zyjsbXfAxC8VeZMG/mXHHl/9AbpRbkwIEDTRIvNoSuPbqg09g2gmi0kjy58wzJA1JH+5pQ+TeqsZKYjx8/YuKUCfBJ9gVVG1eGnbNpSVpW/N07+wDPTr/AiH4jhY07MtzYGT7h00ejZepUVkN4+fKlcKqlEaMnwBARN42sWXUGzN5eqMqSui/p+vXruHz5MpInT47atWtHa/wYRgzeMQU1cygzUTkyPY6/w4qDZ8SruGGfELUMBwwYEKshYTUdhYpPnT6FQ5ePw88mGOEOEbCwtoRzBlcEfvGHJiQclkERcLVwQrmcJVG2eGmhYEHKEnsaKx6Epl5fgeSl04ur8hJwzwM9szcTIgeRoTdKL9GYpmZjad2tJfpO7CFeKUd4WDhOrDyHMWPGiCsqMaEaK5mgbuDmLZtx7s5ZpM2bCgXKFkDqrKlgGbUXJBK+H/3w7M5zPL32HHlT5UOLZi1Rrlw58avRw4q+PXv2CAaEatXGhNASAzTKrJ5zd3cXSpBptPWbPTf/Jr7nkcpW+ZfwiIP3MP3YbYM9GOoP0qDEpKIRGRY3nDp1SlDmSJHiqyGmR83HgGX/HGKpDwPzAFG5svShq2XLlmHevuVI30GZUSZ63q+/h1vbzn9rb7h7964gE1WvXj3hWi7a9W2NXn92E6+UZd2ErViyYIl4pRITqrFSAOaC2P9z7fo1ePi6w8PbA5Y2lsJp287WDo7WjnB1SoHiRYoL4S9jekL0cNNi4p7/841NaZ+kBh9DelvcwJnbmjVzBsaneaNEPvw/LLzwHC0X7zPocMCcHD1uyjrFBr2qjRs3Ch4SDVtMsCqOhpoTlBctWiToI0oN81VPi/nAKoN8PXHR4hmGphFV0bNHT0F9hEazf//+Rr8fjKVVt+boN1F+MeOoRGgjsHfuYUydOlVcUYkJ1VglMTjjiU2TbGzkOIyEpkAgBV++fMHRo0cFcdoFJSyR2k75otaRB+9i6tHbceZQ+HxQGZ7hv9ig8gbDuqwuNSTcxT4oelQsDGDvmtQeddXa1WHdLat4pSxpDodj28rNgqHizDEpZ2XFRNsubdB7svntIMbi4eaJz9e90alTJ3FFJSbU0vUkBrv2mzdvLujj0QvhCdwYte3EAPNz3NQ5mv6um4+4qizeNskNSvZv2LAhVuUInhVZzEJdQxYQGJqXoZfGxlw27tJwS41XhJ/4mfK88n6PS5cuCbJEShgqUrPyj3j95I14pRw7V+8Wcs4qcaMaqyQKe2R4KmVFF3Mg7Gd6/vy5+NWkAQVnN9/3EK+U45VfOIrVjXseFw8LuXPnRqpUqcSVf8Oqx9mzZwthXxpfYyrd2EzNcCDL55m35OdSYhkvwdWv8G8z5MsSf6Vo3bo1tizeIV4pg6+XH9I7ZpS1OCopoYYBvxOYD+FJnF4WT+P58ys7Wl0u1qxZg3z3dqFcJhdxRR5CwrW4/9Ebl998wcrrb/BD3d8Q4OsNBzsrBIdbwNklObRWjkIRCEfvM/zKhs++ffuKv+Hf0BtiEU6bNm1Matol7969Ezwy6uRRXcJQRXVD+OGnmrDomhlKq/KTwMXPcGzvEVl6CWODvX5bDm9Aq97NxRX5oE7g9AFzsWXtViEaohI3qrH6zmADM3uZKABao0YNs/UFEwI/Va2I1T9lQXoHaSV4gnUbyoEHH/DPWx+4Zs+MGqXzolDeLMiYPvqTMN9Jrz764NKtJ7h0+yXgnBXNW7X9V7Wen5+fYMRY1VimTBlx1XToMVMRZMmSJULBhanwMPPmzRvhg71g+/fvh3v5CNjlVnZYZMhrP/wUUAKjR48WV5Rl06ZNuPvhJhq0l6/6MDQoFDOHzcOimUuQJYuyItiJGdVYfacwbHTy5Elh/lPVqlUFbyAxwsIE9mQd2LQafxR3Qg4X86V4wjRarLryAvdhj27NaqBoweziV4wjXBOB45ceYfuJ+2jdZYDQt8RcjJQKJLzvrCqll8awWVy9Vny7640S++dYcadXjeD8KqqU84MGdfGeVUjRMa/wNaV4teganhy7E6+KDmwbWLJhEXqP6Q5be2mlnd49f48di/Zg0dzFiuXjkgqqsfrO4dPP5lqWV1eqVEmS076SUNmAngVLm8f8PgIFP19F8yIsUjDtZX37vRdm3/2M0f0aI3cO6cr/D517gPVHHmDJyg2S5ygWLFgghBOp38fcix42cDPsS8PECkq9PBSLOKjVSKMUk/I55ZaYb+u9aRTS/aSMQsinf15gUu0h8V5wwHwZJ0e7ffqgc44d8VvbX81WzvD94ofVs9ajcrGq6NmzpyxCvEkd1VipfOP8+fO4evUqypYtK2n+Qy5YOOLp6fkvDbzTp09j1dQ/0aWACyplNi6PteXGa7xIngajev4mS19PQHA4ek/ehqFj50g6NXbbtm1C3oseQYECBYQ1bob0smhwmNMyZNhgZPTagEuXLsWqt3vgXELeZnM/3QGhamBhzJoxU1xRHub92OdGZRaqppAHDx5g8dJF8A7/gl+a/oScOi/b0NdGWEgYLhy/jBtnbqFkgdLo1bOX4nm4pIRqrFT+A6vYmGxmsQDzLXI3ZJrKnDlzYpQvYoP0wa3rkNH3JZqVyoVcyW0R24yrgw8/wD1rDnRoVFVckQfegh4TtmD0jFVG5yuo5sGwJ70lekpULaG35OLiImgLst+KnlJcqieGoNcGJOs3rMfkwwuRsaH0RTkWun9uBx6jvEVBQeUjvqBuI4te6JlG17PGUCsLlM5fOI8Pnu9h5WAB+2R2yJbr64BJ4u3lDfePHgjwDkAya2dkz5QDderUERr9VcxHNVYqMUI9wLNnzwpFGMyHJCSjxdAlq6hKly4trkQPN3huQgf/3gv7AHckC/FGRKAfnO3+nxN56ROKFHmyYs6IVuKKvIRpItBx7Das334g2twMizBokGiYKLHEohg+9lTuYOiO3lLUUCL7udgEThV6cwot9Og9Kz0ME/cc0x/WVVLBNoc03kH42wAEnnBDpVxlMGvWrHjJU1Ekl48ZH1vKlRkDZ7Ox+Z4HB3qu9G55AFFDfPKgGiuVOLlz544QYuK4jx9//DHe34zcvJmniUsVQg/7kNh4y0ZpPax+4ybDU3TfXl0xo3t52For13Z468kH3PHJJFQFsv/Nzc1NWOfmqTdKLHjggEpDYDiUGoo0agxhxdTbZQh62aeogrJk+/btmLZxLpDPESlKZ4LWyrjtw1JrAe8bbtA88MPgZr2F1xLDzrlyKaucT1gRSw+8ZcuWyJgxo7iqklBRjZWKwXC67/Hjx4VN9Oeff463iq0DBw4I3oWhE3t5cmZvWXSVcmzMXTW1L0Z0iV23Tw7aj96CbgP+FAwT8yTmwvJ1NoJz7Ds3YFOhRBTFkVu1itnT5AFm49ZNOPXkIjzhi7RFM8MhjROsnWyh1b0sInROuFWYzvD5hyHEIwBud94gVYQzquQsi9bNWwkhZhoL5h05UkZJeNih0eUQRz5eCTXMrfJvVGOlYjTcZHiKZ8iDMXm5JrdGB3MHDFEZGuri97NxmNJM0cGqrzSB11Ein/In67GL9mLUnK/FEVLAvBUr//j86CskTYGhLRq8Jk2aiCuxQ0X46dOnC4cHeoa8DWyNYGEHDzR58+YVQsl6JXWin1E1aNAgRY3F69evhYnDnPnFQ5dK4kE1Viomwz4dlktT4Z0q4VJsujzVf/78WQjdcRNj9RRDdfouf1a+scTeUIFeNrdy1pZ+rH5UGE5sXdYWrjqPQGl2Hb+FwrV7fKvgkwIaABZYsNTa1DYEeptUxjB0LAcrSIkxf499XAxXKhV+4zZHoWD2lVE7M76iAiqmoxorFbNhQyqNApscmeSPfIKODZ6+mQs7evwoHn14jM+hn2HhYIFUmVPBTuz/CQkOhuc7T0QERSCtbVo4RzihU4dOgi5gXCdyvrSp8BCT5BFZt24dfsjui0yp5Z2EGx0rdp5F3S4TJB0qyMeTOS+2IdC7MgU+nyzZ5hgWQ6A6OosxDM1lMoRI74uvFSVgPpChYP49Q0PHKgkP1VipSAabUDmehKXUrKyKqbeH3zd73mxcfH0JuavnQdpCaQ2XVNbqTv53P+L56eeomKMCBvUfFOPsLlYyUvA1NnUOKkr43N+DWuWV38SGzNyBWasPSBoGYz6GxoMTlhmipeEyFhZ80JhQjisuWD7PSb6RKwdjw9CRKVIhyEa5uwsl6fqmaJXEiWqsZILlx6zQ0sfvCd8sDHtwWqyh3kdihGE8VlkxLEg1An0jJB+TKdOn4MLHiyjTuixgZqorIjQCVzddQZWMlTFi2AjBMEVm3rx5wuC+2GDupFfbulj2Z9wq6lJCSafBiy9i4dKV4op0cNZVoUKFhCm7DHkZC70q5q0Ybo0LHggoI2VokzMNKXNh5lQrGoKHh4dQ0ciWCxpshiqvXroIn1cPYaMJRajvFzjaWCIgVAt711QIs7JFilyFUapMWaE6Uc4R+iqmoRoriWCOhcMAz/Ikp3tjWOiMVBbd5umoe3hdxAKEL7pTaIjuFP2aemzZsyOjbjOoUbeu4IXEJHuTmKGx3rt3r5A/4WbWf3x/lOlZDtbO0uYLwv3CcXXJFayavvJbmIcbNU/UsY2ZYM6N/UMsFhnSOC9yZVJuVMPS7WdQrdkQwaiYA8vMqb7OadQ0vOz9YcELe+SYlxk+fLjRnhsr9Ph74+phI5yXRvkgQ/4GG82pEmGIx2YOrFhlqJFb2+OT+1A8WShqFsgs6EZaxdIYHg4LvPAOxbGHb3EvxBHFfmosVFWqIzwSBqqxMhNuCnNHj4bPsWOoQjUBf3/xK4bhrvM6zumMWLbGjTF47Fhh4FxSgyrvY9aOReWeVRBhIc/LzSLCAueXnMOsvjOF3iW9GnlkTTfmYmicGIYkrAZjiJAn706tG2PJiHpwjNQsLBf3nn/CnptBGD1mnLhiOAzz/fPPP/j70N945PYY/tb+yJgvI+yc7OCS+qu8VHi4Bh5vPBDkGwif1z7IljwrSuUtJczMMqREnsUVPDwVLVpUXIkehvRY8BK5fy0maETp6UjRsBwTbABnpeiLp0/g+voq+lXLjzR2podYPwVHYM6ph0hZrQn6DxykjvKIZ1RjZSLc+P7s3x82hw6hjM7YQAz1mUqE7hR8ysoKqVq1woRZs0zKNSREGAZtNrAZqg6qrjvTyvtSo3TPmVmnMHfYXCGpTqNF48TnirCCkMYpugo0ho36dWmO5aNbyGqwnr3zxKztt7F05XqjPB7evmkzp+HCqwvI+0M+pC6YhnfYYLRBWtw7fBdWHyzRpUkXoXQ7Jjgqn8Uycc08ozIIDb4hByxWXUqpNh8V3mb2hn25egyTfiqItPamG6mouOkeu1FHH6HvrJUGeZsq8qAaKxPgaI0pDRqgUVAQLMPCxFVpCLOzw186QzX78GEUK1ZMXE281Gv5G/L3LAAoJXqhAY6POobOzTsJfWA0ToY23DJsOahPV4zqUBG5M0ufU9l59DrOPA3HvAWLDK6cYzhu6vSpOPLkKMq2LQdLe/NVNjweuOPtkbeYOGSCYNCjwh4rGqGYyv31MARoSMUhPWsWfDAXJDXs8WJF59s3r5Hm2Wn0rxj7bTYVbpIzzjxDliZ90aZN26+LKoqinL5MEoHJ6zV16qCJr6/khorYhISg+efP+LNCBSF5nZjhqAXrAjovRUl1Jt3fylQ9k6AaX79+faOUIZj0X71xB/be1mDorF3wCdB5zBLw5I0nOo/bhivv7VG+YmWhYtIQPn78iDrN6+BTwc8o37WCJIaK0CsrObAUxu4ch/kL5our/0cvkBsbDOvRAMUF84bUOZTDUPH1tWrVKiGnlP/DJdkMFaGfNqxqbvjuXyLkxFSURzVWRsBBd1vatUPl4GBxRSa0WtTVeW0T6tYV3uiJlU1bNyF3DeVzcAVqF8TGLRvFK+NgjittuvSo1awPhiy5gP7TduDinddGBzBDwrTYcfSGYKROv3HGis378fvvvwubN/8GKxVZHRkTLJqo360+ivUrAfs00leOMiRbpGFR3HS4hSEjhoirXzHEWHEUC1XeY4NBG+ap2raV1hNhkQZzU9R25IHk+uqpaFNcmeq97mWzY++Uwd+0HFWUQw0DGggfpp9y5UITGg+FHjLmsY7pPISduo0hMdKgQ0Pk6arspFk9z1c+w19rdolXhqHvAaJyA3UQWQpfpUoVISx2+MDfCPJ6B1d7DUoUzInM6VPAwd4OyZ3s4eMfjC/efnjr5ol7z97DP9weabPmQ5OmzQWjwzwNf48e5lZYGs4PqjhQiigyVFn4ucUvKDu4nCJe6Yfr71EjWXV06fy1V4rRA2opsiQ9JgwJAbISlBqO5lY8RoaTrRlW1I/yGNq/D0Zn/gJHBb1333BgpmcmTJo2Q1xRUQLVWBkI+4YutWqF7AEB4ooyXLGzQ59Ll1C8eHFxJWHBcBA3V0IdPm7AegZOHYTSfeNn8vCtxTdxbNNR8Spu9CoHnTp1EuZ5seybCvORYX5ky5YtQniOc778/f2FPBebaLkpswmawqhR2bRpk/D8Rd60WTbPVgcWMrDyrlmzZt8KLkaPHQ2fMn6wdVWuifXiigvYNW2n0API29uwYcMYq9/oHVIpIzYBWhppVi22a9dOXDEPluXzdjFUq5eB4uFifIMKmPSzdMbQUAbtv4uZR25IoovJ9w3HwVDmit42PUYWAfF3U1+RHyqqsTKYLk2aoKxuc1HKq9JD7+rt0KGYOHmyuBI3TMqzekwPP+ca4ZuBb3LCcA/fGHr4ub6nhH1j3Ky4afPNxJ/XK1JE/j5CNXN9wQC9CP0mN2nuJGTvKl8eITber32LzSs2i1exw74i9gBRhYFzsvi4/PLLf1XYmWtivxir4Lp16yaufh1UyPJt6t3FpORARXRuspE1DbkBM0xGI0Ujz2o5blC1utZG5T7/98SUQBuoge1pG0yZOEUQ/qWRiakIhJ4X5a6iU7EnbILnYEw2ZEuhwRfTKA9Wer5bMRJ1civfB7X9nhtKDl9qknwT2w/ore8/tB9f/D1g42SNfIXzIn3mdLC1s4VT8mTw9wmAn48f3N59xItHLxERZIFsGbKjaZOmSaLwyhRUY2UgDfLnR53Hj8UrZTmiO8X/ptsEaTB4utcntiMbDZ7ymWfQ5xpoMCh7RJgjibyx8DSv30QY6oqq/CAV4yeMh08FP1g6KJsa1eg23lRXU2DU76PElZihEC+NN1UV6C3QmMck4MreLY7Qp0JH5HwN8yedO3cWQojdu3cXV/8NNyjmqWjUorYlsFAgcjHNo7RP4JLduJH8UnBlwSWc3nr6P4MXoxJXCHDr1q1CQUVc1YRxwceMfVx8TUc3yoMzygrd2YY8yeXvjYvKbY9gfKrSNdpDTUzw/Tpz1ky8dH+OHxvUQKFSBb5WbhhIeGg4zh4+j1vn7qJG+ZrCcyTFYSCxoBorA/k1QwbU//hRvFKW42XKYPuVK+JV4oHhsmZ/NEe5jv8tj5aTy6svYcfk7UJIKyZ4+qcHwdAcy7cp/MowTEz9RwzTcAQHG08piKo/CBCG82i8qIRBQxdTLxGNIjd6NsZGldtiOJUl2DSY2XvlhJWDgkkYkfMrz+HUspPC7dCPtI8Kw3tshI9pqq5UM6r0ozxopGIKg7G3SrN7OipnUl6E+MgLL6TrOFGYyxUXNLqzZs/Cvde30XFQWzg4mV8w8+GlGzYt2IYOzTvFeLhKaqjVgAbiHA+TTPWkkTBBrSScclsmdWmEeMpcPRmJYPcgZArNKBgOJuP1uoyRoRc6d+5cISdFQ8UcFVUtYmuUpRFh6Ivh0ciGitBrZR6H4Znbt2+Lq/+F3i49q6VLlwobWGToLffr1w82tjawtI2ft6WDs4Pw2MRGbFWADGsyXGfoHKzo4NmZHhMNEcVuY8vXMAR39UX8VOVd0/1dzumKC+Y0W7VvidzVsqLX6G6SGCqSMUcGDJ09AI+87mHUH7//5/WUFFGNlYHkrVoVYfGg3+eTLBlKGCAomlCZOmEqnqx/Am2IeQofhsC/8WzjU6xfvV442TMPxHwSxVM5ZJFhGHoG+pEWnNBLL4EFErF5Agy/ciNmyCW6km6GVZkX5OZJ7ys2WCBAb4G3Kzp+/ulnhHpL099lLEEeQUJYOTZljdj6q1gAwbySMcockWGRy+zZs4XqSFb7xdU4zUPCQ4u0iDAmliYBWt3fe5c8Z5xqHHxNdOjRDr0ndUXG7NFPBjCXKj9XROn6xdC5e2fB0CdlVGNlID369MFxMyWVTOG47g3LN25ihQUDG5duwO0FNxHyJURclR56b3cW3sLGZRuFv8kwG8vFmUPiBwccrl69GhMnThQ2ZPavMVxF7yu28e3kwoULqFChAu7fvx9tGbbeWNGYGXLCZaMyFc1ZfRgVDjB8c+O1eKUclKpKY5lavIoehvhY9Rgd9ChpPEwdpshRHvSGOXvMmKKF9gOGY8fdr1qPSrHu+mt0GThCvIoeHm569uuBoTMHwNZB3qrODNnS45cONTF23FhxJWmiGisD4Zswb48e8ImhnFcO3un+Vt3x4xP9OBFu5oe2H4LmRBien3wmbIySoTtMPjvxFB+3uWHCsAkxjp6gYaKGHUNwFHTlGAwWErDs/tChQ0K4Jiao4E5RVyp5Ryfuyr9Jr43wtB1bs68eVhWyMpAeX2ToVWgehwv3S0k+3HiPXm2/Fk3EdEJnaI4l+1FhLo4SZJwWbSw08gzJ0oCzGjKuZuSoVK1aFffSlsJTL/kOQpG5p/M+3XL/EKciB6s/Ww5oIruh0pMtb1aEOAUIh6+kimqsjGDSrFk4X7y4oN8nN/46A/W+Xj30jWMeU2KB3s6iuYsw5IfBuD33Jt5fe894iunofvbdlbc4M/YUhtcehu2btgub5qJFi/5leBjCY9iPhoFqB4TCtjQorO6j10VviaXELH5gcQG9BH2pPzdTvQGkYYvu4MBqS71HFVfeKjLcaNkWwJxZZEb1H4U7fxn2O6SAc8E8z3h8mwwcXRiPBoz3P7reqw0bNpikUsHmXo6a53MQl8J7dPCxYzVn2oxZMOVBGB7L6LmTu+6BWO6WDH+MjV0tn17VmeunZAv9xUS9VnWwYPF/5bOSCqqxMgKGedYeOIDjpUvDS0YPix7V7Z9/xmLdxpnUoGbfkR1H0KNEN/hs88L5Refw6dZHaALiDp/xe/i95xaehe92b2T/nA3Hdx//JsbK2VU8nVMhQq8SwXJxnvj1VVus6mOzauTSbJ7q2ZTLcmwOK6TRo+YcvTAatJIlSwpr0W3UUTEkbxUZGlCqZTx58kRcgXB/GuVviA835Q9vcbTKublnsWHJBnElenhij27AIkOkvM8xebTRwYpKqrBTIYNVh8ZGDji7iyFdTijm32Y/15ode7DLqhA235HjMbPA2htvccS5DBau3hBnTo6ybNXrKtsnR6ysrRBg4Zdkc1dWY3WIn6sYANUGmrZvj0O6jfDujRugTKqFRC8Ora0tjuoMYv5JkzBt7twk3UPB4oZ6deqhbb22yGyRGQG3/fHi+HO8vfYWL8+8wPtb7/Dh+gd8OPceXjc94XXuC0omK4EGZRrg914j8WONH7+NAYkMw0g0LixDnzp1qhDy0+dAWA7Nk3hswwL5mFOtnaMgaODo9fCkzEZYNguzMZq5mchzsggLNfj9XOdUWmNGSdAbozIGjaY+aV+6VGk8P/MM1+9eR5o80TffmgsbgS/OvYB1M9YK91kP7wsfw8iwIZpGP3LRA40OvSNjytTZT0YvlocKKrsbCjdgNm5TwokVmSydZx5R32fI57NajRr4kjwbxq7bg8xO1sjoZH4I7uJ7P4y+7I6fBk1Gq9Zt4jRUhPcvU+F0cJSo8s8Y3N5+RP6sBf9TsZoUUPuszIB5j/G6U53zuXMopdXCUreZmQKrDC/pngb7Bg3wx7Rpwkb+PcPcCE/qLIpgEzS9JIbZKAGk38zZLMoSapbHR+XSpUtCMQQ3RCbuWVbOkBsT+OxximpoYoLhPG6MLNRgfouVbvQwuM7bww2euQtq1LG6T9+bxMKJqL1YcUGDOH/+fOF3RP45KnyPWvwHKnSpCJvk5kv7EOYMn55+CutHlli1cNV/bmfk+0J4X3n/ozY8GzOjiiXx9ITonUXWSYwLVh/yeWMjNg8mhh4CeLg4unkV8sETbcrmQRojIvccurjhylM8s0yLX9t1QwPd+9IY+LgU+iU3HF2Uy2/rOX3gHOqVa4iCBQuKK0kH1VhJADewLbo34vW1a5FZt7nls7NDcvarxFA9SAmlLw4OeBQSAvd06VCxSxe0btvWqJNmUoa9OuXKlfvW1MucE4VVHz9+LCgGMJ9EtYjoVBS4SVGRI7KyAMNss2bNEjwAfV7GEBgG1KsE8PMePXqIX/kKw1H0vNj8zPAijSlvN28nCy6M2ZQJN3Te1z59+sAuUl6U67PmzMLx5ydQomFJ2KU2MWeqezm+v/4On85+RM6UOQVPKbqNOKqCBT1FwkpFPZScoldjiPGgQgfDhZRwik0cNzIMpbK3jSFCPpc8EJgCvW/mxR5evwR8fA7nEB+kcLRFtnT/l2h69ekLvINC4WfnCosMuVGwVHnhuYytqTw2aFzdbT4gd2HlpcZWTl+DRZOW/ev1k1RQjZXEsLyXmmVXzp+H/4cP+PzypeBxMXyi0b2AUutO4ylz5UJZ3SmRYaPI4ReVr7DIgV6MvjKMGzhP9XqZH1bvsYQ68oRaeib0CFgSHlk7jSdy9v/QALCqj02tNFqRNfqigzkq/ch2hrtYtceQYkwwvMgGZBoujrBgEcfAgQOj9fxig7eXIUE2CEcNOfF2UNVh9z+7EZA8EDlL5dK9llLCwjbm0FSoRyjeP3iHD7ffo3i64mjVtJVQ0Ucjy0PBpEmTxO/8P1GNFQ01PS19CJC3kT8b+Xuig48DtQ8Z3qS6fFwwzMoQGt9DLHqh5yxHKJwN4PxbPGxkypRJ2NgzZDC/GILPPVsi+Dq7+eoa2vWPvSVCDmYPWYDt63eKV0kL1VipJDiihqFoNOgRMaRHaRkaM27melhIwYQ7+6UibzqsCqS4bGRPhV7Z9u3bhRwIjVZMpdL8Wywjp4ICCzJo3GJTLGBpPA2m3vugJ0eDyg2Rf5sGlB+sioyL6IpAosLwGP8GQ3gPXz3E23dv4Rn05avWo10yZEidAclsnFCqWElhWnLU4gje/xEjRghhPIZbIxPZWHFTZ/hOf82fY6k5837M38YEow3MZ7Vp0+ZfupTRQe+HBxA+NyySiamXK6HAxvI3b94IHzxAMKzMD95PRkf4mhnx+3C0GtkU1jbKyWa9ePASEe9tEnVfZmyoxkolwRHVWNFT5UbGUJA+RKjvc3n27JlgWKiCHrlaj5sIK/qYo4puU+XpmkaLnljk8JYeVgHSyBGGHHl7YkuucwPjiVoffoyct+KGzx4t5rpYbs3TPG9/bKd53mfet5iKF+jd0KBF9vZYZk+1cxrHwYMHf1PJjwmGx/g3hg4dKq58JfLjz4IIhu70xi6uGVU02LzvDBHGplnHbYe5RVbO8XHgYUQuQWVT4O2jMaKHrDdK+oMNw4O5cuUSoiIx5euoijJ+7hj0/PP/r2M50YRrMH3AXOza/FeSLcxSjZVKgiOqsWLOhpskT4xc59cJN1LOhWKPT2RDwqIIfU4rrnJz5kXoBXDTZ/MyYdUgDQ+NDYkuXxUVGiF6gPr5TSzwiClvRU+CeSAaOG6Aeq8rqpfHkBih0ntUKMJLDb6omyXfzgx70hDQUEf1miLDMN2gQYOEx5UbMo0qN2d6dgzB0djRyP7xxx/CbePX+HjF1FPF8ntWDUb1cCPD54Y5HVZr8tAR3UFBSVg8ojdIDOGxl0wf7qQQAJXjGcY0pG0hKgwNX3hyBnVbGa7MbhK6HXzGsLmYO3F+kk4rqMZKJcER1VgR5q24gdIgsK+GOSSe3qPmQmjY9MbF0JM681Mca8HRHex7YpiR/VbcoJiH4MZvSEVY5NtNTzC2+VZ66InQMNLr4kbJTZ5eF70vwoIRejIM5enRD4GM7Xcz78NwHY1B+/bt/2XMaSh3bt2AgKenkDLiE6oVSoVMrjZIlcwSDlbh0EZYIlhjgc/+Ou/CMxhnHnrDxyYTQlIUwuChI/7jVXHD5/NCgxbdKA8iVcGEqfD5oEHiBw84fNz1VaE0RgzdcaOXWi2Gz9Op2yfQcaDOwMfsmJtMSFAI5oxYiAm/T4q2Dy4poRorlQRHTMaKGw6NE6VsOD8q6qZJo8MiDIYEjSkb18MNnh4cvaRRo77OwmIuhX+HG1pcRL3dhnhkUaHHQWPC0z5P+PS4mA9jNaR+PhQNGIskYgsjEt4PhgWZu/v999+F+3Z+61T8mk+LOgXtYGNhnFJ3oMYau27445RbCjTqMU7wPGMb5UFPjaFKelwspeZhw5CcnTnwb+qNEj3EyDCfxOeRH0pWy/EgMnrKH2g/sLWgli4Vl05cxbUjNzF/9oJv/WZJGdVYqSQo6BkxlMRqwMgwrEcYRiJDhgwR/tfDkBallmjEDC2Pjg6GFhkWZNyft4Ehtaj9RTER1ViZ0m8VGRpnel00Vpy3xZAix5QwR8cQn6Ew/3Z+5zyMrGmHIumkEWM+9UKLlbddUKJmM6HqMXKzMMOc9HzpvdSoUeNfVZtSoa+4ZOiOBpNwK+Pt0Ifu6CnJbRwNhY8Fc6gnr55A/bZ1kbOgaaPqtRotrp6+gbP7zqN7h57CIeZ7QTVWKgkKnojZFxW1H2r48OHCRjR69GihSZgelv40SQ+CGzIr24yR/YkOGjzmuphQZwiHG+KUKVPEr8ZOVGMVW97KWHgfZ86cKYSuGHZj5Rm9LoYHY/MSFsyfC4urc9G7ivQNqhyVMXq/L0p1mCf0JbEcnj1VLNfn82dIs3Bc0FvWh+5YWUl4/1k0Q0+JBomGKbKxTMjweeRh48CR/dDYh6FUpZLIXywvXFJG/1hFaCPw+b0H7ly5gwe3HiNdsvRo0qhptILCSR3VWKkkKKKWgBN6Wiw24BqLAVjJd+XKFSGPxO+loeK6IXkQek00QKymo5gtT+jc+On90CPj1/RFEjy1sxiAOSIWM8QVCozaH0bPiLeNt5O3mTBpz1yYKTkbepXM19HLZF6I94WPFzd03gcWLES+jZPGj0HV4G2onF1eCdDN14NxybYO2rZtF6caeUzQo+Zjzyo65gkJn1s+L7xP+o/YKjITGwxZ8jlkTvTR40eAVQS8vL8ISu2aUC1cnF1gY2ErNF7zUJI/f37xJ79PVGOlkqBgjoNyUywN5kuToTTmHujtMDeiD8npc1M0BiyGiCl/w1P5ps2bcOTmSbwL+4zkuVIjeeZUsHSxgaW1JSIsdZufRguNTyiCvQPx8fYbpIpwQaUcpZEhTXqhKZgeHP82N08K3sbkyTAnRMN2+8ZV+Ly7DefwD0jlZImcmVLAyZ7lxBHwD9bgxXsvfAmIgJ9VBrhkLobqNWsL4Zy4So5Zzs4NnfeJYcDIGzfL1pnr4tcIT/DpH81D0+LK5GamHvNDzaG74jRWPCDwEMDnlDJYfI5p1FncoveSknJFm4rpqMZKJUFBo8BSbVZlsaiCnzNfQyOlV7IgrD5jroJl0tGpUVCpYtzCyfiYwg+ZquWGxsg921JrAc9r76F5qPNmGnQXQoz0xvh3KaBKL0YPDciCOdMR+Pw4WlbLiPK5k8HSwrC3lVb3bVdfBGPLGTfYZquOPgOGxqgNSc059n6xEITyRbxN0UFPa2D9AljaNPY+K2mxQMe9Dlh74JpwxTAqjRI/aEgZuiP0XmmQWIwRV4GIikpkVGOlkqBgEppFCZyRRK+GorbMzXBzY3l5nTp1hFwI8zc8jUct36Zn0X1oL7jnDEPyUul1voz5L2+NWzB8j7zB7MFThIIBGkL2H1Fbb9XyRXB0O4pBDXLC3tq84oUQjSXm7H0J/7S1MOz30f8aH89Nn1Vl+plcek1C/XVkGCas4bUAuVMYV+1nLgcfhuOSU3PBGOmNEvNKSpepKwk9RL7m6DHqB3AyJMtQLwtL9C0IKuajGiuVeIFyQUzGM+fCz73d38DOJkJolP3sAyGBTCNFL4LFFYRqB9Tf4/8ssGDFWWQxW+a1es0bgixtikJrKf3L2vPUa7TMWgcjhg0XbsOske2xsEtOpHCQ9m95B1mg/9o3GDZ9oyD5ROhV0pOKHILk/eemSEX5yPRpWw8LqjwXr5SDBRd/vvgVk6dOF1eSHvSiN2/ZjEsPLuFT6GekzJES6XKlg42tDexTOggNusFeQQgJCsXHZx/h/coLmZwyoWqxKkK42lRxXBXVWKkoCCu6Nm/agLf3DiJHqgBUKZEJRXM6IJndf1+C4VoLvPgYjjM3P+LuiyBYpi6P2nUaCXpz1KWjTh9DhtyoeXJnP9SQnROQ7hd5deVCX/sjyy17ZAu9jUmtcxkc7jMWbYQF/tj0HL/0XiIYrAMHDkSrHMGcHptBIzeE9qlXCAvqxc/buu+Z7Fi48aB4lXSgyvy8dfMRnj4chX8uDEtH46oPw33DcefAbbj4OGNoz6HCEFIV41CNlYrssOJp3rTfUTqTG1r8mBkuJngiGp3xOnXbFyv3vUWDjuOFUyoT9AzJcTNvMKo1MrX66oXISbB7AHLvvo61fYpAicK03iueIXf1rkJIlGHP6GDzMcOjDLuRvnXzY/5v8TMEvO+pTFi4+Zh4lfhhG8XQcUPhUsEVmUpLENLTvfSfn3oG66dWmDlh5rfnTCVuVGOlIhusSBs1vD9y211Hl7qZYSVRaO7qkyAs3OePP6auEYYT/n36IMKbpoJWgvxUXPgtOYszfQvB3kqZEupwrSXqTn+KaYs2C0oUfEzZb8QCBoZE+T/fwlSJ0Gsber+8hm1Ng4XPlSQCFmj3TwHU+qWe4O2yipJ9b/w/MSos7Nq1C3P3z0P5zhV0O6W4KBUa4Pyis5jYfaKgNK8SN6qxUpEF5p6G92mGmV3TIL2r9Bs7w2Qjlj3DF9uyuJrsGVJXlX+6su8zT/T1/Ih2VTOKK8qw6bQbzviWFPpsWOnHPi42B7NPh+XuvGYui+Poqbt3/doV9E17COkcw8TfoAyX3wJuJScJBTI0rJSO4v/8YPEB1SRoYPWVgRTKZTFCZMOWUJTXV6xcgcOfjyBntVziijzc23MXPSp3j7ZQRuXfqMZKRXJ42u/b/gesGpwdNlbSyPvExOxtL7HROS1SlJC/DPr9xuu41yknrJVxqr6h0RnmDpttUf3HnwV1iMgfkXuzONeL4rkUrp3UughmNvx/NaESdN6pxcrDD74JxMYFDa/emOkNG6vqSGTDxvAnDRk/WKBAwyanth9Dy5P2TEaxJsXFFXm5tOIiFg9elOSFaM1FNVYqktOhxS+Y39UezvbKvLS6z7mLezWLwT6NvKdyzaoLONUr5pEbctJnWxgWbTwsXsUMq9Uo56MJC0WJT0tQMZsyuatN14PhWm/+t7EqUsLDDz2zyIaNyiN69IZNb9AiGzZjFS9oHKs2roqKQ5WTM7LQ/bs15waO7jwqrqhEh2qsVCSF5dRWT6fjx5KmibeaQkCoFmVnPUH6DqZJ/RiK85oL2NMjfoxV3w0eWLj9ongVO9QkZEvApdNHMTD3deRwlde7vfgmAuec2mDYiK9K9fEFm7Zp1CIbNoZKI29x1BRkbk8fdtR/6Nm+fTuOBB5DyjzK5then3+FvhX6SKIjmVRRjZWKpHRpVRsrelM5QdmX1YT1T3C0TCHYuko7jygyfqsv4UrPfOKVsvT9yxYL1+wSr+KG6vHsUTt2YDc65HiM2nnlmR676mIgHrrWR6EixYS8S+SNPyFCz4lVpHrDRoPG/xlOpZzWgX8OIG/feNDg49tlnxYzps34eq3yH+KnvlUlScJzTyqrd/zs64KC/FQpg1AAISfeKZ3x0V/ZogXCJuGMuf8/fDEuGAqkwgZHdfQZNALuxf/EgL/84BksncF67WOFrjtCYFV1DLJky4FKlSoJvW4rV64UDEFCherszPUVLVpUGLfCOVxUymdrALUmg6yCxO9UGAvglfsr8UIlOlRjpSIZ3CTzZo2faq48GRwR5PZ11pVcpK+ZG3P3vBSvlGPu3ufo0rWbeBUzNBJUuqCKNzdgDpCkinnp0mXw66BV+PNeaQzf443HX0yd8WSB625W6L3DF7ut2mPxgYfCJk9RXVYiMm/UqFEjQUmEt4PGMrERFhEufqY8IZoQ8TOV6FCNlYpkMB8QEKS850ECg8NhaSPvTCMbZzvsi7DDQ7dAcUV+Xntqoc1aJ1Z9PRYgUFOR6h5UuWjatOm3MSW8plYgxWSXLF+NsTuf4UbW4ej5TxbBcO24HYrXfnaCLmFUAsOt8NzHFmsvB2Lwbl/0uVAAbiUno1SLcfilTt1vf4MFDhyNwhlWHFZJgVr+XYYi2bDMNobEQhqHr71q8UGm5KqOYGyoOSsVSRnUqhBm9ZZ+MmxcnL3ri67n/ZCpvswFEL4a+M05gxNjSsA5GpkoKfEPtUCvTYFYs/1wtONDOAPqr7/+EvIw9GgiC98SejqrV68WSqIpCEzR36jfM23aNKFqjgr2LEYIcH+NT+4eyFu0nPA3CxQoIDQcDx069NvUXW4Z9Jyoz6gftR8Zjirh32OIjb+b88jo9VH4NyZF+YTC1GlT8amYO6yd5cnxxYT/e3+UDyortB2oRI9qrFTMJigoSFAFf/z4MTavXYT1AxxhZ6NsM9LAhU/hl6w8Lls9Qtpa8jRyhrzwRbbHzpg1cTqG9W6N8b/ZI3sqebw5elR/7g3CvFU7/6P+QBULTkumADCNlF65IjJ8TmhQWPRA5XPO2VqyZAn69u37rUeJRo7fE1kMmESdeMxCjWfPngkNx3poCDlVmX8/OmVxzqiidiNvK2eAMVdEfUMOoeTvic7IJQTYq1ZvwG+o0E1Z7b7zc87i1OZT37xVlf+iGiuJ4JuTp0mqcb+4fQYajydwsg6DNtgHLrq9wSvEGjb2yeCrTQaHzCWQt0gZQYQ1sTUCsseFGxdHI7Cpk30sDP9xWCI3QZb+5rE+hS6/Kqfy4OEHLLlcFAMHDRU8hT03DiNtfZ13l8rU3My/sQqzwJu/7qF3tfbo16efsMbne/Tvw5A77Cza18ggmaCtRgtsPPMJjywqYOLUWf/yqPg3ueFTbolGKKbxE6xwW7NmjZBPilydxyo4hun69esnNO7y9UrFiOLF/938GtVYEf0srch9S7w9+inNVKKIDnpUfE0ULFhQkBVixd3BgweF/CbDhhyjkdCYMm0KXmR8BdecruKKvHy48R61k9dC+3aqVxUbqrEyE05v3bRmGcKeHkSjEk4oldkayazjTtK6B9vi7NMAHH1mjSwVWqBTl67CyPOEAkNC9JZ4qmainJsMw0A8xXOD4Wmd4yn0cBjgo0ePhDEWo0YMRscyT5AnozTGIjaonddhxhss3XRSmHPFCcIMdzFXsvDoaqSrnhO22Z1hylwrSx8N3hx7hFoZKmDs72Oi3ZBZWLBw6kjUyx+AX0ulhI2J+oe8H39f/Yydt60xeMwcYZS5HnoxVP3mc8FQWmxeCQ8Rf//9N3r06CEcIqJC5XvqKdIY0dBEnThMojNWnJ9FIg+dJPSc+Hs6d+4szLCKCR7iqAzB0CBDgTR0R44cEW4vpyQnpJHt3BJbdWqNtE3SwdZVXk8n4IM/bC5ZY96seeKKSkyoxspEuHHMnjAcFe1voUWpZLC2MH3QnV+YDeYe90R4gVYYNOz3WN/0csDQB0N4NE78nEaJJ+/cuXMLQw/jUobesWOHcELXh4m4uXZqXQ8TW1ohUyr5ang4RqT3nCcYMXPftw2cTckcH8JrGlhuiBt3b8F1z/tIlj0FUhfMgAhXa0REc7MsfDUIeO2Fz3ffI5t1OrSu3QxNmjSJ8/lgiG3q1KkI8vuCsDen8WNRV5TOkwLp4+iL/uRngRvPfXDkpgdsslZDhJUDZs2aJX71K9zgeSBifojeSWxcuXJFULinRxWbcgMbhmk8XFxchGKMqERnrLhN0CgxjBgVetg8JHB0C/X+YoIGavfu3UKujar5POwwFEnjydcfPS/9/K74hmHU7v26w7qCDVLlk6fo4t3Vd0j7NjVmT58thElVYkc1ViawcsVyfD4yAUNqucLGDCMVFa8QGwzf64OO4zfLMu+GmwUT6TzNchOkwX3j8Q7edkHQWEcg1CocFjZfd3HLwAg42jogq1MGlMpeFGXKlMGPP/4ojJvXQ2PAjY2DEtm3Ehl6ZiOG9EXdfE9Ro7j0ahaefkD7yfcxbMJKVKtWTVzFt6KDdu3aiSv/h4UC3PjpAXKD/eD7SfcOsEAKW2e8fP5S8FroOXDD1BcTxIXes9AXL/AxZq6GU31DA77A//Mz2FlpoQ3y4p8C7FwRqrWCU9rcyFOwBMqWLSs8djQeRO+56IsUGCouVaqUsBYbgsSSbuM3VBB13LhxQvgvuu9nr1TUCcyE4Tt61dGF7pg/488xVBiXbh/DkQwN8lBBr4rwgHPy5EnB2PL5jBqajAu+Fvnc0gO8eu8G3ga4wdffD6E2X9+fVqFACmdXpLROjkpFy6FkyZLCYx85OhAd8+bPw193dqNM67KwsJUmD6sN1ODimovoWacH2rb574wylehRjZWRDOnbDXWTnUa1nHKdhCww56Q/0taZgDZt/7vhGoqvr69gjGiYWLbMzZed+nfv38U1j/twKZEOzgXSQGuAHijtseZjMN6dfoLyqYuhS6uOwgbLvAjzFWyyjImNGzfiwt/T8Ee7nMiQwvw3e5jGEvN3voS7bWVkzJIbWbJkEe4fk/h6D4in/KhFA3HBQoPu3buLV4ZB48BcTqtWrf5VWs5S7bt37/6rICEu9DkhSiXR06CBMkR6h2/fdevWIV++fKhQoYK4Gjv6wgpW6tFzjmoMo/OsCA0CDRI9qOjg87B+/XohJxZd9WJUaFxooBo0aPDNM+b94UGK3h8PQZHDodFx8eJFrNuyHv+8voTUpTIjWY4U0MQhYmKpM1whb/zw8dorlElRGG0btcLPP/8cozfKMPi4yePwRPMUxeoVh7WLaZWCIZ4huLnnBiqkK48RQ0ckyrEp8YlqrIxgysRx+EmzHSUyyP+QLTwTgMKd16JGjRriSvTw6aO3xBAeCx8INxUm1rkRcRPj5jR5+hTsf3caWeoWELwoU6Hopv+dz7C84o9Zo6cZ5AHSi5k/bw7e3dqOxtXSoGpRZ6MLEl5+0mLdgRfwtCqGgcPHCwUdLBbgRsf7x1Akc1YNGzbEqVOnhPtuaPKej9+DBw+MMi583GkU6ZlkzpxZXP0Kva1t27ZF691FBw8VzPnRO2Huht5GbGE8Pfw7NDq83cYUKpw/f17wKEqUKCH0Z1HJgY+nnpg8K7JlyxbUrFkzxr4vbux8Lmh4DVFfpye6d+9e4b4zNBg5jEjP8tq1a4IRjporo6EbPnkUvPJokLxEemhNLHDh6zn4qTdCL3hgcr+x3zy96GBxEZ/XA5cOIsg5CLlK5kLK3KlgaR/9/dQGaeHxxB3Prj2Da4grGlSvL4SVYxqiqRI7qrEyEJ72Xm3siHZl/pu0loue230xZcfdby9u5kaoSECjxFMsnzrGurlZcrNh0UPUEy1Pnh0n9ELmVoWhtZcmjEEsIizgfvIlWmT9Gb+P+F1cjR3eXhqSvbs2QeN1D6kdfFC1VBa4OtsiY0rrb5ubh08Y/IM1uHLvEx69DdOdlHOibLUGwgbJEBM3S8KQD6/1ISNWmDEnwg2fJdIs9jAE/gyNLj0NQ+GGznBVTEYiJu8kKvTCJk6cKFTG1atXzyCPhDC3SEPDvpyYKvFiInJhBZ8TenUtWrT4ZoBiu+302DmUkHmxmODBidJLLPIwxOgSVjDSEDBPyvxcZKjIwQ+GosuXL4+Rf/6Ow74XkbZ6DkkHbvrfdkeOdymweuGKWHNvhKNMGLplgc2bt2/gr/GHl4+37hBmARdnF6SwSyF4/Qw1FitWLM5wo0rcqMbKQDo1qoGVP3/WncOUe7jcg6wx5kE5lCpTTjiBMiFOj4Gx/uh6a6JCz2PyP4uQ/pc8JlXDGULYuwCku2mNbas3G50kpvFljkIvKsoNgN4RDRBDi9S3Y5VZ5I2DuQ56i9wAqNzAKjmGACPDTYReDxtZDakyY+UgN1ZD4ePKloOoebrIxGWseJ9pJNlXwxBtmzZtxK/EDT1B5uUYtjR2E6R3cObMmX8VVjC/SINFbTw+/rF5VoRfZ+gztr/Nggl6Rnz+jIHPOcOgv/32m2C4IsPbPULnTdnWzwjLNPLMs7IMisCXLU+xd9kOwdioJBxUY2UA9GZOTqyJzhWUPx312hWEJUdeileGwzd2z3UjkO6Xf7/h5SDCIxSFnqTFwtnzxRVp4KbMzYseR2QY+qpTp46wmcSUa+KGx59nqIyhl5jCVnz507BwozYENuPSA4srPxSTsaKBpaGhkWLIksaXt49GwhB4kqcxphEwdMhhZDZs2CA8nlErHHlQoCwT800c4BiboaXXyrAlb3dssMiEhxHmNY2BYV2GBnmAocfHSlMWYNRv3QhBdZyhdZAuQhAdlloLeK15gjM7j8fpYakoh/Gv9u8QvuEq5FF26qqenMlDhJCPMXDj6TKlryKGiliktsUVp6fCRi4l7MehwYkKT/3Mi3DjjwmqgHMzZyiQ5ews9Ig8sE8PKwQNzffQi+PGaWghQ2ToRfI20Jui6gM9KYbIuDEbaqhYhs8+KRoSUwwV/xZfG9GV4vM20KjQy4wrdMd+QHpo/H2xQe+X3hGNszHQQ+djxA8aV4YUJ0+dDN9KtrIbKqK1jECKVrnRfUD0hSQq8YNqrAyAG2ZG5WYJ/ot8GZ3x5s0b8cowli5biixNle1XcSqaBlNW/7tHSAqYh+MGHRluZgzbMRzFkCELOKLCEnv2yvB/Fjqw7J46edz4IgcTmKhnoUFc0JPg7+PvMQR6Tix0oWdH74mGirmYjh07fjMWLAWnhxgXvL38eYbd2FRrKszxxWZoGXplVRwrEhkajA0WZTD/GBcsjGDVGx93Y+HPsfKQOdtV57fCKr1y+WIaxZsWz4XDjErCwGqsDvFzlRhgEtzx42mkdpB34mp0HL7nj8rNhxmVm+g1bRAcyhqXdJeC4LAQlE5ZSFDdlgoWj7CHKKpBYZ6Hp3Zu+NxkoyufpzdDQ8YQID0iJui5CTPnRCPGn2FehSXSscEyaha1xBX2igwPOAzXsTCABo4Nr5FDSvRKWLSjLxaJCd5eeju8jYb0W8UGQ2vMBcXmObGKlJEEFqtElgLjps3QKosrdu/ciQsHDmDvli04rzNYl3WPD40+PVf+fNQ+K+ZZ+fjxfcTDh7Hw+XcrHALEUHUnFy45UuH5njuo85PhVaIq8qF6VgZA5YCrL/zEK2V59sXSoGIKPdww/O1jPxXLhWuetMKpXEpopOmhsMAkKjRCDBXR+EQHvQi9TJCeQoUKYeDAgUI15bx586INDUaGmzSNDkdgGAK9IIYLqSbBKj32e0UtbSf0SuidxAbLuVn4QCNprhwRCzr4eBlSncdDAA8DQrNzs2b4WWdkZxQtijfduiHD+PEotGgRSuoMVvPbt1F62zZknTQJDqNG4WTDhuio84Lq5sqFKbq1yCFcltcznE3jbSw37t9CRHLlFR4YDrz/4bF4pRLfqMbKADgm4YQbE/Tyx8sj4xNmg5SlDdsk9VDk1CVjPPVxOFkZHbI0BBodhuGig94GPRbq4UWFJ3yG4aKrIaK3w7wWjRWbm6l8ERXeF3oTnTp1Eldih/ObaAApMMsCiNhUMGjUaThjgl4Iw5wMd0bnNRoLDWjUkvDo0Ht8y3R/9+PIkSir86Qa6bzTMrrHMbmvr24Hjz66YK37ehbd13/Sff23Fy/gojNWo/LkQWudkaJiCOHBgsVK9FSN4dWXt+JnyvM55Iv4mUp8oxorA2nWczT+vq+sxzJhvwd69xskXhkGN0rfD8YVZEiGv0aWcl+WiFMRIiYYdmTBAXvKokLpJIa1ooONwKx+Y2iM3hnDZPqiAXoi+vLwuLwRNq7OmTNHCC0OGDBAMEL0hum9RUdceTJWQDL0xd8lRTUaK+nYHxWXxiH/7i86A+O6dCmaffmCrDTgMRinuLAJCkJVnUdc9dgxTCheHIN79xY8ZBZxsKJRb8AMIU2y/yvHK42ztVoNmFBQjZWBMBF+yaYOnn1RJhyx5UYwKndbaFSjKqHStlNw/MzE8XnuHqu3YA7MhcS0+TNUyJwQQ3aRE+KsfKNnxXDWH3/8gU69OqNDrw7o0q8LevXtJXhN1PGj6gKNEm/7/PnzhbHsrEJjCC+23jF6R3PnzhXyYgwtRpYGYk8cDUR0xJYn499++PCh4FEZ27cWEwy9sZk2NqhMMaZcOTR5/RoZ4giNGoOFzvhX0z0HGdeuRUPdbfj48aNQZMIwaNTCmZgolD0/LONnADVyuqq9VgkFtc/KCHjq7tWhCXrnfYIi6eR72DZfD8aXgn3Qt79xXpWe6TOm40iq24hwUTbOH7DhJS7vPSteSQsVDji2nX03UeFmTIPFgoBJkybBytoKJ++cQpBTEHKVyo3UeVLDwi567yjEPQTvH7zHh/vvkcM+O5rWbSqE81iezcq76AoCqLdIz4fNyZTnoVdHg8W+IgrQXr17Ex5eX/DKw02oCuTX0zulQCrXFCiWr5CwxvLzqEUzNBgM+cUlsWUsHJJIwxuTh8iWgwMtW6KMhEYqOjQ2Nvgre3bs0XmW9EJ5u/gYxzUah0atzoSWyFAnr7iiDIH3PTG+Qn+Dwqcq8qMaKyPhwzVtykSkeroanSskgwWkqxAM0ljjz31e+KH3UkEB3FToUZRsVglZOhunXG0O/nfdMbJ4N6HRVS5i2nT1Uj2Xbl6CW7KPKPJLUVg5mWaovZ974+6+O2hZpQUypM8g9HLpRXKZR2JujKFWPj8s+qDRWrV1A44/vQ6HLGkQntwWQYh5npkDrGHtE4qgtx6ombsEurRsJ5SLr1+/XlBYl3pEBsOZ9GKiqnzoYSh0hM4jrBsUJK7IS4jOSF3WecEbdY8bHz8WkLRt2zbOIqLWXdriU03du03+EWkClrp3tv+6l7i074y4ohLfqMbKRFjttXjSYLTK+xm18lDPzfSHMSzCCivP++KRfVUMGz0l2uoxY+EG1XvT70j3kwIKFp6hKPgoDRbNWSCuyAM9Ho7hiCxzxHzM2AljcebjWZRpWRaQyJkM+hSEGxuuY2zPMYJ0EL0p6ryxSID6fVR5GLZwCsJyusLP3vTnXuf8QfvoE8Z1GiCEEqUK/elhLo6GNaZ8VRvd16ocOSKE65Titr09Wp84Iegx6sO0+hErMUE1i6qtaiFd58KIkGgqc2y823QP+6ZuEbxnlYSBaqzMhFVWezYuRWrvS2hVMQ1ypwiHlQFvphCtFW6812LbNT/Y5P0Vnbr3jXO4nrEsWbIEC66uR/o6hityG0v4+0CkuWaB7Wu3Sr7RRoUncYq36uWVWArdvmd7ZGqUBU6ZnIQ1qbm98xayB2bD4EGDBQUJHiSGzxgPt4zWCDDDSEUlWbAF0r8Pw8H1OwTtRymgIWePVkzjUliZN0b3mqsaRwOw5Fha4tSPP2Kz7vEk7IfjazWu4Y30AhsMaYmsHYoLZeVyQBX29389wPwOk9TwXwJDNVYSwdJndulfu3wePi+vwT7oHRwi/GFnbYHkjlbwCdTANzgCGrsUiHDNjdR5Kwgl2cxPGKq0bSh6/Tn+Xoases0ajCytixo0u8pQBNX1Uy/RLFNtjBo5KsZ8iNSwzJyjJHjf6rashyK9isY4okEq3l15ix+T1xTCgs1G9UZwodTQREjfIG5lYQm7++7YPnGRWWFgPayOZH4spmZiqmJ80hkyZz/lewj3uLjgoI+PeGX48EaGYpv2aAWHBpkBV2nfN5YhgNvG+9g8dbUgFaWSsFCNlcxQooc6atS5k3tD5xue2nOEuSN9WIU5nYnTJuGQ2zlkrpPfrLi/MM/qrjuc7mtRuVA5DB8+3Ch1DXPh+AmWou8/uh+2P9rBLpUyEjw3t9/A2aMPEFrS/J6nuLB/6oV/5m0ySYMwMnEVVoz+809kmjJF0RCgnuM6L3y5h8e/wpOs9mQVJkfnx3aAY+hw1pzZWHdlB7I0Lmz2IcxKY4G3+x/ilwyVMXrkn+q8qQSKWrouM6x6otyMnIaKBRVM0FMKh8MAKd4aOf7Psu8502fjyMQdKPcwKz6vf4iA2x6wCjPsNlGFOuJDMN5suYN0R7SYUm0ITuw8LPQoMczEfI5S8LFk9d9r+zeKGSpSomlJuDhJe5KPiZC8KVFH5z3EVKpvCBwdz6KF2F53DrpDRoTModuYCNGdkaN6ULy99Jo53oUhzJjgz/0+YiQurjyOys9zCq9nzqKy1Bkdg9FECEMXP2y4h/yXkwvvDb5HVEOVcFE9q0QMY/0sO6b3Rk+KRslQuOEzTHTx7lU8930D/7BAhNqE6yzT1ze8RVAEHG0dkMUxHUpmK4JyZcsJqg9RvShuKiy5puioMZN2zeHXhr+iwIBCsLCW7wAQHQ+OP8TBi0901l/+RlFWDQ7I8SMmT5wkrhgHCyvYGxjb5stQ8ZOOHZEyhn4wOdmjM0wHdQY1OkwZ3sjX8pGjR3D1+S0883mDUDsNHFIkg1OKr4r2QQFB8P/kA+tQC2R3zIjiWQohpWtKQW2es7nUEfMJH9VYJUJonKi2wKZTjnWPaVaTKVA4lXkOY6GKAyskKU3ExmQ5qdaiOsr2/feYcyUI8AnCkj93A/mle7xjw/GuO7yvP49Vtik64iqs0MPwcIfMmVFP5v6qqGh0r6+H7dph/ooV4sp/ocIFJbYMlbqKCh8DymVRNYOvaRZuUOkkqjfHXDPbHmjUGZWQu0hIxXRUY5WIYKyefT7cZPjGklLdXAoYtlq3bp3Q6MlwnRywMbtyxyqo3L2KuKIsC3pvQkgh41RFTMXBLRA3Fn8d028M9JqZ84msqBETg/v0QY6VK2Gre20pxXGdsZqmM0ZxKbBTQ5AqIcYObzQFVkbyAEgVfFOLKyjcy4pVKtbTU6OKCcWMpZDMUlGNVaKAp8N9+/YJUjXUsZOiD0suaEwYgqISg1ylvxVbV0KlXrGP9ZCDCG0E5vXeiPAiyhwSXEKtsLHdn/+ZlBwXcRVWRIb9S02LFEFz3WtL546Iq/Lh5ugIq6FD8YeBk4loeDmZmP1tSsBWFI4zYe4strA62yYYRj1//SLufn4Mjwgf2KVwhEvq5LBMZgNtQBhCgkMEnU77YGvkSZEd5fKWFCIhckmSJXVUY5WA4SntwIEDQrlu3bp1hYrCxAJHc1CwlTpwsZUim0KtVrVQvHdJ8Uo5fD77YsXUg0Buw0e2mIOznxYHhy2Ic95WZFhYQX3B6GSpYoL9SwPLlUNjqljIWBnopTNUD376CeuMnBx88uRJQR1fqZwopbMYGmQ+i8YlcmUib8vc1QvxSPsGmWvkQYQR5fPUN/S89h7Wz0PQpkZTIScn9XsjKaMaqwQIjRRHsTPRzCR5zpw5xa8kLij1w1Lkpk2bImvWrOKq+YwZNwZ+5QNMllQylcsbL+OsmyeQTBmhYOunnvhw4KoQSjIUerXc1I0tGGCOqI/OkDTQPWe2MuSw7tnbw1G3OU+aOdOkvBALLlhZG9cMMCmhJiFbQdgLybzh4PHD8SVPOJxLmB8GtvAOh9vuxxjerB/at28vrqrEhmqsEhBMCjMM8fTpU0EvLk8e+ZQnlIJhQRosjg6JayquoTBnV2/Ab6jUQ7lQYFhIGFYM2obAQvL3WRH2s5X+7IgrxwzXpjO0sCIm2AIxom9feG/diiphYbCUICzomywZjug+eulul7m6kQy7scmdo/KVZMTIEdj77iQy1c8PrRmyatER8sIXme7bY83iVWpuKw5UY5UA4FPA0A3DMVTx5rDHpAYru9jMyx4wU6oNo7Js+TKcDT2HDCViV+yWBN075O9x+/CEfVaOyiipOriHYPfgWfhJ5+0YCkOv9FoMKayIDWohdm/eHCkePkRl3XPlHM1gytiIsLbGY93P3dV5QrkaNcL8hQslec4JPUeK/SqlMPHnuNE4iutIVki+mVqWQRHw3vwcJ7YeilUf8XtHbQqOR2ikKDjL6bKcW8Um26RoqAhFS1kcwnlRzMGZS/du3ZHyZQp4PvUUV2RCZ6gurbyIXI45YWelTFOwo8YKTbKWMcpQEbYPxCStZAwUb23Tpw/WfPqEFLrX5qkffsBfuk30jI0NPri4wFP3EazzAkKcnOCv+/+zqyue6j7/29ISe7Nlw7UWLdD46FEc8/BAoSJFjC69jw1WBvJ+GjO80VQ2bNyAQ6GXZTVUROtgAdc2udGia2vBO1aJHtWziieoIH79+nVUq1Yt1qmxSQ3m41jenitXLknyDwMGDcAzx+co8Iu0IsAkIjQC5+aexZKxi4XTfPV6P+GWqz8CreQrQnAIt0Qxr2Q4c+CYUZs82wY4TNKYworYoE4fldAjwyGV9LqYi2Svn74nj5WfrJzjY8RiBKqoc8oxobfHLSau4Y/GwN/HcCdzc3K1SFAirXKvn5GlZRFxRX40bkFoalkNfXr3EVdUIqMaK4VhKS4/WOFlbrgmMXPmzBlhqi/DgrHpwMUEN+ft27cLvToMoV5+fhmFmhWGc1YX8TtMhyK9Dw7dR2qPVJg1eda3Ema2EPTo2xtbXl9EUErpiywcvoSiRdbyWLpgkdFhs82bNwt5TqmUGFasWCEMiDQFNoezeo/zubi9cGYVowZSQg+ERpHFO3L0Gw4fNQLXC36QVPzZED6tuY/bey+b9J5I6liN1SF+riIjDF2wHJaFBk2aNIlzOmpSh2X4PJFzU6TBYZmwIdAz27Fjx7dmUY5VyZ07N/JnzY/kXi44sPEAggIDkSqrzsAYGeQO8wrFjZ3XEXo5BE3LN0GeHHmEGVZ6mA+qX7ce8tqlwfFtfwOu9giXQPIpWZglUj31x7I+YwXNO2Or5WgQOCqfxkEq2HZQsqRp7QEsgmCDLSMG3HTZy0WMkQOLC/aQMeS5evVqoRBJajHl/vNGIFkpw6swpcLG0RZ5LTLL5jEmZlTPSmb4pj99+rTwxqpSJX5UFxIy9FY4yJAqDXE9PizS4KmdDaJRS+F5yuZ4CTJu3Dg8e/kMn0I/wc/KH9lLZEfytMlh42QLG3sbYXMP8Q1BWHAY3j14B5/XXsjkmAk1y9YUTur6TZUGkX013bp1++bp8Gd5e2kgb92+hdmbVuKTQyjCMzghzIip0TYWVrD+4Id0QbYY2KozenTvYXIRAkNtHJ1fpkwZccV8ogsDGgPzkjSgDEvyOeahxNQqxdgwdHijMVBzs1jXKsjaSNqpzYZgFRCBpiFVhNecyr9RjZVM3L17VwhPFS9eXMhLyam6nhT4559/BLkajjiPGgLhxrdz505hM65UqZK4+m94kqcnQM+VPTl37twRxpdwo2QVIhUHKPrL7+FzwZ4dairS6MSmCML8DBXtqVHH0mLmSjhrij+nh39ru87bO3nzIm69fYpwZxvYOtjDwslO8JKY29H4BkETGgYb/3AUz5IXP5SsgGY6wxh56rGpGKNYYSg0Vp07dzbrdzI3yT5B9olt3boVP/zwg6Q6lnr0wxv5GEjhYfF1+NusdkhVVfkmfE44qP4kD/744w9xRUWPaqwk5uHDhzh27JgQnmJfkWqkDIdGiaHSNm3aCNWRVBJgyI9d/tQbjK3ggIKkNGjMgU2fPl0IozRr1kz86ldMzcOwmIBVjLw9nLXEURaxwb/P5D/7wZhboddDb423nwUK79+/F0KgbDY1dyQF/wZ781q2bCmuSAMNNCWHzFFY4ONFL5RGhD1cfH6oaCIHHDjKKdJxDW80BPYG5m1WEtlaKj+A0cIzHF1c6kn+fCYFvhtjxbg5Q0jcELlZcAPiBxPS3DAYZ6cXxCo1U2AjL1UnGD9nr5QpXfoqX8M63OCYm6KhZ1jOUAUHnq7pOXGTZPGGfvw9oWdFT5f5QmOhkgiVDJhXY2tBTN6dHnpflNKJDeo80pvk7eJrhvkmU9TqWVjBEncp80GExSss2KAYqznwPUHPlZWC9Na4CcvV/EqpKU4/jmt4oyGUb1gNjq2V96w8z7zG1p5Lk2wLizkk6QIL5jimzZ6GKWumYPeNPfiQzA2+mfwRnleDiPy6O1/IGqE5w+Dt4oPnoc+x9fA2LFixAMcOHgNCIwTDFdeLnoMH2ajI0xjfiHnz5hVO0iqmQRFRNkfTMPCETLUCQx9PnrtoVOg9sS0gcrUlpXP4XBor+8Tfc/78efTs2VPIO/K2MQ8ZkxgpS55pgOLabJycnFCkSBGhgIPe18GDB4UqURppVrcZcp95f9kCwTCz1PB54O0w17DwPcT3B0vXWVTEA4NcQq68rSzcoVfIkLGxUQ0eSnigZZ7SPtwG7y09YemiTBO4HpdL4RjU62vZv8q/SXKeFe8OT5tL/lqKLJWyIHOZLCa1Pvu99sOdA7dRM/cPGDp46H9OmIxr79+/Xzg1Modh7knue4dhHOY1+Hgyz8HNmo8xQ0ft2rUzyLviqZpeM3NV9M54eNCHhLhJsurQGJ1FegX00qIqft++fVs4CNEoRn3emS9jCNgU0WG+djkWgxsmN1qOtadBiwl+H4lcsSgVvO/0hqRQ+GehCmdLMTTKKcAsHpDz/cKDyZEjRwTPOiaDxVwkQ7L84AGBt4f3lYdNvka4VrpuRaTqXAARFspske4nXqJphlpCCJyPPasppa5yTMwkKWPFTaT/2P7IXT8PUuSRpt8k3C8cl9ZeRI863dG+XXshjMiZUsw5cHSDlN353yPcFPh4MkzLHEnUEnaGBVmezPBebJpwfF7Yu8WXMw8PLHBhaIyGg/B0T206Q978/B00fDRuMSmec2wFJyRHrUIzJARoCCwM4fRbFofQC6P3FNUAylFYoYfeBYtVIheSmAONFPOJ9F54oGCoXE4iD2/kkFJ6xPSQObfq5YvnSOFsB2tLC6RwcQAfvVDYwt7eAWkyZheMBA8AfE3WGdwUmdvK3xgc9NQbzR1/wID+A4Qojd6DZ6qCzz+9eiqLyPFcJxaSjLGiN7X81AqUbV8OERKLTRK3mx8QfjkMDX5tIGx65iZxVb72njGMxUGScXk8PCnzNMzequhCZHPnzkXv3r2FEBwLXBju42bFcBzXeNpmwQv/DvOTMcHKvWXLlgmbaVxDD1mFxu9l8YfekPA6cq5MClg8QkPM+8DiDn3hjlSFFQz5Ufbr+t0buPnuPgIsQ+Af5A84WgHaCNiGWcPWyhpZnDKgVPaiKF2qtHAbuIkaCpu4GYmgwWKxitRNwnq4uTNfyQ8WO9E4BQcFwMXSF+UKZ0WVMgWQM2MKWOkMVXQEhWpw/5kbzlx9gKduQXBIlR0Hn55C1vbFoLWUZ6v0vvIBvyariAljxosr/4bFKXyv8D4RvrYZ5oyr0CepkSSM1cZNG/HXqz3IVd204ghDCfYIgtffX7Bx1UZxRcUUKNvD8B5DXMZILnGzpvI2N7zIBQU0ZDyJvnp2F1qfh0hp643CedIgazpH3aHCGs72FvANioC7VyDefPTHg5cBCLHNivQ5y6F5i1ZC6IfoK8r01YiGwHwTPT8Kq3Lz4IZirKafMbCIgIUZ9BLo9TFkaozR0OPj4yPc7m1n9yAoiwXSFMsMrUvc8XILje4+fw7Bu7NPUTxZXnRs2k64DYbAMC9vM70rerimNh3roVfOnDHDjMwVMpTHSAefTxrzFYtmo1rhlGhcuzQcbE0reHL3DsLMNQew685TZGpZBDZZpCsOsQoFXm27gxkdxwpzswyF4XGGgPlaYFEO2x/4XkrqB+hEb6yuXr2K4WtGoFRrZaSLvJ57IZdbDowcPlJcUTEUSvDQSHEjYVWeKW8unpzXrFkjhGnoIc2YOg6hH/5Bx3q5UDIXq+kMfzkHhFhg56kPOP/YBqV/aCt4MAzhmVJUwEnOLMagd2do9aKp8C3LsBrDnfS4eLuZ42COK66wNMOqCxYuwPKzm5C1YWFok5keVuIYk6DHXrC44ocpg8fFqaBBr5UVm/Sq2MjLqj1joGHiYYAhX32eiaExGif94YLrf/w+HDmSeaFTo8oxelDG4hsQilZDl+CxbTiy1CsIy4zGV27qsQoG3h17jB9Tl8eYkX+a5SHxMWXIm71+fG/wEMf3BkPYSY1Eb6x+af4LivQrJkvoLyaurLmM7ZO2GXz6Vvla4EDvh6XozPeZAzfcXj26IIvVbQxqkQPODuZvSDeeBWPeHi90HjDd5Oo6Kmewgo7NtHK2LvCARo8ucg6PmxWrCfl25mbFNoyo+Q2GxJr2aQ3XRrqNLIW0uVbvS+9R1aIoZk6ZEWvxBMO+VOqgJ0RvIKZNld4320FonPSGieEvGqaYpIjoaQzq3Rnju/+AbOnlGbWx/8w9rDr4CBpnGzy1fI90xbPCLrMTNNYx7z+sz7D4Eg73++9h/SYcTcvXE7x3KYpXosK+Ox6aGIUgzDmyKlap0SN8b1Kxh6/ROy/v4GPgJ2h0/8KtwmGl827DdEbf0TYZrDVWyOaSDSUKlRAOOYY0xydqY8U356xTs5G9irKnCG2gBvZn7TBp/CRxRSUmuEFSXYLhPnPDPoSn6uF9mmN651TImNKEMs84WHXwA7ySN8LQYSPEFcNgUpxhNYYA6T2y4s2U8Jwh0KtiKX10yXZu7NwoWFXIEBHDbuzjogfWZXZ/ZG1dFFqZqtsivoQBBz2wf9OeWL1T5hdZSckiFub3GJJkKE9vmPjBAw1L3GnMYjN+erhJdm7TGEtH1oejnbyVuY9euWPTOU8MHzlKkLpiIcTl+9fwJdwXAYEBCLIOg0WIFqlcUsJOY41CWfKjfJlyQpGE0lO/+Zjy9UDvm68HHmL4uBrymBoD9+LVG1fj7pd7KFSrEFLkSAkYcB7S+Gvw7tZbfLrxCT8UroFuXbrFKEycqI3V1KlT4VHuCyxspXH1jeHe0rs4tOGgeKUSFVZgUY2CIQ7OsZLC02Csfly/OlgyOB9sreSb+3PzeTA238iBmXOXiCtxw82W1WPUN+R9p1oGqxulPj3z5MwcXatWrcSVmGHYlUaKm9W6yzuQuZ350k5xYRGohcvRYPy1YUe0xpStACzmYPELHyd9wQvDeTSqlMEyhUH9e2Nw4/zIkEqeA0JUDp69j8CUZf+jkpKQ4euBhxh64TwQ8HGn18X/TYXVqn9OHQ3rwtbIXknnNJhxftQGa3F92zVUTFcBwwYPg6urq/iVryRqY9W5V2ekbB0/FTHnF53Dhc3nxSsVPQxPseqLYRxu1lFfcKbCk2G3VjWwdkhm2FjJ/5I9c8cP9zQN0LuPYXkVlsbTKOtL77kZULGBoTop55WxSOHHH380OM/Bt3fZupWQvEMe2TyqqIS/D0QTi6qC90fPmuFfVnLyNM8QIA0TQ1XMuTFkxD46c2A144E149C31Q/iijJ0Gb8NKzYfSLRqNVRRYZUhoxU8WLDNg96fob1ds+fMxuE3R1CsUXFJx/jS2zq/5BwW/D7/Xz2EiVrBYv+h/bAvYtpJzFzeXX2Lzo07iVcqhH1u7D3iVGCGw0yRD4qJSRPGYHSjYDgr9HRnS2eHg4ePIW/pBgaNL6GnEFmGieX1PLVynR4hvQZzoeGhp2RMBSV72C46PIZVKumei7ig6sPxHYfgEGQthAMZ/mUekP+zapLeJtsCqDbC8Km5Yampk8ZjSMtysLZSNsKSIXVyXH/uE2eLQ0KFYWrmAPk65XPDAyFzywzpsU+NzwkPRVE9ZB5IO3TvAI88X5CjSk6dyyN+QSIsbS0FL23j5o2w8bVBkcJf+9wStWdFwdDPZTziJQx4f+k9HNxwQLz6vuGpmYKz3JBr164trkoHw0Vje1TArN7mb/jG4B9iiSlHsmPytNniSvQwX8I+v5hEWmmwqJTQvn17g6WjooOnYG7usTVHR+XnlvUQ2tg8sVxT0LwPQr/MLYQetJigIaUyDKvZeCCgUWdFm3egFyLCI5AxXSZhw9Sf+GOSyurZvhEWDasnXimHRhuB8dteYMLEieJK0oGGi683vm4JH3s+B1TNHzZyGPyK+8Mps2Ez6Mzh9vZbGN30TyH3mqiNFUMJEw9MQu6aym5idFNdLjth7Ojve24ly2Z37dolqC2wFF0uaRgWaOTwX44i2ZVXC+m78A0WbrkhXkUP39QkshZhVFh2zc2ZhRdRHycaY76Wb9y4gRdvXsDX3xu29rbw+OKBlK4pERYaDldnVwT5BQuhVYZGDA2vFmpQBunaKC+Kyn6sKo9yYuyY/75HeH/ZL3fg5H4EWvujQJn8yF4oG5xSJYOl9b+NeXhwOLw/+eDB5Yf48OwjMifLgqYNmgnjRvTht4Edf8WsIcYLFEtB//mnsWDZWvEq6UK5LOY+qaryJu1bZKukzHBItkecnnkSJzacSNzGitTTnRwL9CmkaOn6heXn8ffsvZIrXScmWILMzZUnZzlKcCMzY8YM9Cx1AcnslH+pjlv9BCMX34y1J4x9Xyx4iKtvjEoarBikCgdLiRkGO/LPYTimtUfpSiWRu3BO2DnE/Ds4LPL5w5e4cvYafD/4o1a12sLjH1PVIcM1uZoWR46WxcUVZcn2jw3WLF4lXn1VsZg8bTJeBT5H9WZV4ZrB+HJq7lavbr/GxT2X0ah6E0FOaWDnhpg37N/6jUoxeNlVzJm/WLxK+tRqUgslBpZSdL8N+RKCLI8zSZkWix8mjZyES6suilfy4/7gM5qWbPLdGiqGalh6zER5//79ZTdUxNfXB/bxJMHo4mQjhERig2FAQxqcOYqGRQcTJkxAhz7tYKM7nPac3BntB7RGoTIFYjVUhFOO85fIi3b9WqHP1G5wKeiAroM7Y+68uYKXGxWGHB20cd8uOeAQwaxp/v/aWLR4Ebr80RGFWudBg/71TDJUhOmTHMWzodXYZvDL7oVfW9aBd2D8nLf9gsKQKauypejxCXPSLiWSK2qoiF1KO+y7sj/xGys2kw2sNwCPDj0UV+QjwC0A1jesBLHJ7w1u2PQgKPPCAXfG5E3MJXfuPPjwRb5S9dh46x4e68GEum2GFGAQJq1bdmyBH9pWxsApfZAlt+klwyRDtnToP6EXclbNjKZtGwubSVQy20s/mdcQwj8HCbkm5qA69+gMz7Sf0GhQfdg4SnfqSJM9FVpPaoZnge64//yjuKoca/46a5RMUmKH7RmZCpr3mjWViOQRiT8MqIf5gOk7ZqBi90qySPq/Ov8KOb2zY/KEyQmyVJX9K8ydMPdx6c5VfA798q1BERotkts4w9bCGvnT50apIiWF/AoNfXS9MJHhy4PjIqjnxp6S+PAoKUh6dl0bdK2XRVxRBr4zui8NxYqNMffTsTqPFVN6dfeYYDn/zmPb0H1kZ1hIJAH0L3S3de2cjahR4kchr6WHQxQXvNmq8+KU6T/S837dXdzYeg5de3dBlZ4VkCyFfKMuwsPCcez3jdik81KVIiRMi4ELT2PpyvXiStJnypQp8CzvFS8Fbc/+eZZ0jBVht3bfUX2R7of0SFfUPEkfPYyXXlt3BYNbDo61sik+YE6ChmTj7i246nUf6UpmhUOO5NDYxP6UWvpq4fPMHQH3PPFroR/QrlXbaOcm8STFBlSWocs1MM8QWE67fP54bB6aEpYK9QqRI9d8YF1olNDXFBNs/mXeJLYDDEuBNx5YhzZ9W4gr8rF77d+oXaqOoIpO+BopUac8Uis4l4lCt78ElNR5VYFIVtYO6XLK793dO/8AWV94oFeLGuKKfHDH7DZhCybMWSsMlPxeoOLIFedrsEutfGj58rpLiT8MGBn2DBzZcQRNMzfBtdlXBGsMnWNhLKxA8XzogXPzziLjg/T4Z+M/Cc5Qcchfmd8qY/Ld5fj4kwWytCgM27wucRoqQnVt55LpkL5dQdws/gltV/ZFkw7NBWNPqJJAwVFWAA0cODBeDRXHcLB8dtjo2Zi17ZW4Kj8Uud160S5WQ0VYSh6boaKqxYzFUxUxVKRhh9+wctsyYWYUYd5q86w1eLf1rnAtN5YhgP1Jf7Rs3hIPvO4pYqhI4UoFcd0qAlsPfh1IKRda3dtr2Oxd6Dl08ndlqAijBx8fu4lXyhLhrU1anlVU2L+xeetmXH15FUH2wchVKhdSZEsJK2srWDnpNhidN6sN0kKrc+n9P/vh1a1XCHYLQm7X3GjeoLmwUUmtoWUuLPtt17MjPuYLgWNBaQZMEibEPxx6gtopyqNYkaKC4Kxc2nbGQBUITupNmTIl1q1bi1Qea/BreXn7hjS6x6LTzJeYu+Yf4e/GBPvLzp07959JwpFhMUX5ZiXhnEK5xzI4MAQHlxzD9GkzxJWvY1T6rR6FzE0KyeZhWfhpELjrLQ5v2ocp06cgT7PssHFQ9v2za9YeFIQVJvRtoPPCxUWJ8AkIRd+pO/H7xHlxhn2TKjUa/4DSg8qIV8oQ5hOGtLdTJ21jFRnmdKiJxVM6k+L0Hgi1yKiezrxD+fLlE3SVH6VrGvVpiTRt8kOuIq+wN/5Id8sGm1duECr+4hM+VyxK4HBGPYsXLUT4izXo20ie/NUXfwv0W/QWE+Zuj1N0lCFYqhfEpALOEFzLbs0xcHIfcUU5Fk9YjqXTVvyrp4s6bi2HdEDaFvkR4SRtUCXgngcKfcqIJXMXCZWRjTs2Qv2Rhs25khJNqAZ3Vj2Cj/tb1K+YFfWqmT/lN0wTgfkbj+NzeBr8OXaC0Mj8vcL+uJ1vdyFTafmrgPWcmXMaR1Ye/n6MVWKHgwGrtayN1J0UyD34hCPbVQesWfr/Hhml4cty9uzZGDRo0H+KQNjjtXZ2L4ztmAOZU0mz6fJdsP2UO869yY5pc5YbNNMqrqnAbATecHgNfmoSeyhRDi6duIJq+X/8jy4hD2oz58zC1vv7kbV+QWjMPI+Evw2A//H3mNDrT0HrT0/dznXQbHj89D6dnXcZKxatEEbzb1m7BLnSWKJ9gypIa2SRx/0Xn7Fuz1loHLOgz4AhyJVL3uGuiYXeA3rDopoVHNLKr312/+97GPjjAGFyt2qsEgkN2jSGf51k0Crk7AQ/80GHVL+iW9du4oqyULWCI+mZh4wOKkgvmD8Xbrc2okejnMiTwTSjFaaxxL4L7th3wxrdBkwSdA0NJS5jxfH6bhZvkLdobnFFOT68/AjtWytBWSQ6GMJctGQx9lw/BNtCrkheOJ1h3rput7D01uDtmSfIqcmADvVbCyHjqDJSdTvpjNWI+DFWlxZex+L5/1fM5+wsyoE9vH1Z98L5grxZUiBjutTIkTn1t3yjf0AQPnr44t6TV/AM0N1Hx7SoXP1H1KtXz2Ql+KQKRZpbdmqJlL+khktW+bxMGqqGeRqga5euwrVqrBIBLEfvvHEIUlZStnT749r7uL37UpzTZ6WGIVqqO3Tp0kVciRkWYPB7zx7dgnTWL1CtVGaUyOOEFMmif1lrtMCrzxE4e+sjbj4LhmOWH9CkWetYpZKig83RVBP/5ZdfxJX/QoWPc09PoWyNUuKKcjy6+QTZbHOjRo24q+P4+qK3evHuFTz1eQ2fYD9oHS0Ej5bbgzZUAycrR6S0ckGJzIVQtmQZoUI0tonIzTo1Qd0RP4tXyhEWFAavYwEYMmSIuPJf+Pr68OGD8D9VRWiMKLrMURksmjBlUvT3Bl8X4yeOx7WQ6yjwS0FJG4U5KuT80nOY0mvyv16/qrFKBLTt1h4fauleIAqWbROKkfbJ2Ew4OSvJokWLBFFYY7UG2YDKxlg2Lj97fBd2VqHw/eIGS20QtDapEK6zVK7p8gjj3xkeMyesw9g9xTUp7BkTbKQePLE/Og4ybwSGKfy1Zi8GtB1iVsXavHnzBC1DUzyLyVMmI2VNZzi6KuuVXNAdrnr90s+gybMq5sO2jHGzxyFVldTIWDKTeUYrPAK3dt1CPqu8GD1y9H/eW0mqdD2p8vjLS8UNFbHO6Iibt2+KV8rAxmaG/0wRxeWmyiKZfv36Yf6iFZgxfx2WbTyK6vX7YObCDejQfajQE8XQmLn5B4bRYjNUhNWUQZ9DEcF6Z4V5fe+d2aXV5hQb9erZCwdXHBavFEL3MH+576saKgXh++3Q9kNom7cN3q95K0jfBbwL0LlH4jfERRjw8aYbLsw/DxyKwNL+S7BwzsJo31uqsUoEeIb7iJ8pCw3kU7eX4pX8UN+OpeBU1JYSGjF6XWx8ZkWcubDKz9BRH90798CJvafEK2W4dOIq2rfsIF6ZDqv6qHtoClSFr1u2Pp5cfiquyM/OmXsw/vfx4pWKkjAsvGnlJhyafxA1rWsA+7V4vOwRri67glMLT+LC6vPfPs7MP42ri6/gzerXSHMlFboU6YxzW89ixtQZsR4i1TBgIqBoo3JI3SqfeKUcbI4ucN5Fd9JZIK7IC6ftckif1OK4LHRgoUa2bNniLIowBMo/0bPibTWEESOHo0yDEsiUI4O4Ih8ebp44tOoEFs1fJK6Yzr59+4RxJGztMJWBQwYifY3UyJDH9N9hCMc3nESrSm3x88/K58lU4obN8+7u7kif3nRlIdWzSgRkdpD3jR4TFgEaFMyjzCwk/WhtOVTc9Z6VHnPPZzdv3jRqVP3kSVOwd+kBfHglb/c/DdWGGVsxd9ZcccU8zPGs9MyeMRshNzW4cuDrzC+pidBEYOuknWhXraNqqBIwrLo0x1AR1VglAtr82kLoZ1Gat4cfKSYztXPnTtkKOSIbKzbwspLPHKgiYkxjKEOGa1auxY19d3Hm4DlxVVqunr6B4+vOYOOaTZJVb0phrHgAGf3HaNQt0ACbR+/Al3de4lfM587Je9g/+QiWjF8WpyyWSuJHNVaJAKqdfzlq3gZrLBbBEfghrXkhIEOhUC0r6+QqkWdZst5YMflOJRNTMXR2VVR4spw4YRKKpi+F6QPn4NXjN+JXzOPDSzfMGDQXmayyYe7suZI+hlIYKz30evZt2A/bx8mwdfxOPDz/WPCKjCU0IAxntp/DngkH8Gve+tixYacQ3lVJ+qg5q0QCy7HbL+iLDPXlz11ZRljAc9UjnN5+THZpGfZJrV27Fr179xZXpIdKEi9fvvymRG5O3oo9SSywKFPGdH00xu83bNiAo2cOI0eRbKjVsCbsHQ03gKFBoTh54AweXnmMGhVqChWOchh6hjt5W43tQTME9nVt27UN733fwtLZAoXLFYJrWlckS+4Ia3sraMO10IRp4efph4+vP+HJjafw+eCLWuVro02btjFKXKkkXVRjlYjYtm0bJpxYgLS15ZtOaqWxwJvVt3Boye44tfGkILJQrVy4ubkJRqZu3brCtTnGytAR9oZCQ7p9+3Y8e/0U/mF+SJM5NTJlyYhkzo5IlTYVvDy94e/jj/dv38P9vSeSWTshe8YcQvk9dQnlhE3PlPkyRtXDFNiPxipNal9SHYGz09i6wPJlDrbMnTs3ChcuLNwe5jbV3NT3iWqsEhkc9td1en9kaVMUWmtpn7oIz1CEH/iMHcs3m50MNYTohGrlgBsuKwL1OTEqXlSqVCnOPqnoWLp0KXr06CFeSQ8rpuhtclPmxs18V9asWYW8mxIh2chwZAyNPB+3hDJ9YPHixejQoYNJfXgqiRvVWCVC6Cn8Pv4PXNU+RrqaORFhZubRKhh4vfMuulRuiYH9Byoir8SXXUxCtVLDvAu90nbtvipJPHv2TCiy0IcFDYUisJxI3bp1a3ElaUCdRRrzSxfO4+PVy4h4/QIWvt5wsLSAs5Ul/DRaBGojYJE8BSyz50L6MuVQrkJFQVxUKg/TUGjMDx48iPbt24srKt8LqrFKxLDfZ/r8mTjndh2ZauSBVSZHg+VOLDS6zfeuOwJve6Bp2bro37e/0MipFBSqZRgrXz5l+scYbtRrDfIlzwm/lBIyBuZZGK6Mz2GUUnL58mWsX7gAIaeO4re0rsgFDay0uhdGHIRbWuG57oT0t4cv7KvXQgfda8ecHJ6xbNmyBVWqVJGlzUEl4aIaqyQAPQeeNk+ePYUbb+/ho8YTEQ6WcM2YEtb2togI0yAkOAS+H7xgE2yBPK7ZUSp7UdSpU0eQS1EaY4RqpYLGqWvXr+rNxJS8FQ0eNQtjmwycGBAOOcOGoPiTO6idzEa3CRiqjfNfIiwtcdg/FPcKlMKwadMVOXxQ6YThWMpqqXw/qMYqieLh4SEkrjkegfkOVvVRJTshKEpTqJZ5ByVvS1RjtXnzZmH8AxP4hiJ3vkoJVusM7v1Jf6BTSkedF2W6kYqKRudtrfAMQPExU9BBZ9Dl5vTp00LeSkmPTiV+UfuskiicfMzy3nLlygm9Rfw8IRgqCtUy/Bfft4XVZcboBNL48zFNzAzr87/27jy+xjvfA/jnLMk5JxFJZJFYk0yIdKLSuJNqSWxDq1WjGGIYeot56dVe6+2CmVpSqjp2SvVSrXX0dbWu5cVVIsVYB0EWuySISEIkEsnJObn5PZ4uqiHR8zxnyeftj/r9ToS2x/k8z+/5/b7fUXCbl4gRPkabBpUglg9H+hqBv0/FxLFj5VnliFJX+/fvlzahUN3AsCLVmM1mqVBtbTc2KEEEptiJWFOiN1VMTIw8cj7z5vwdbfduw+8U3jvTrur7/3bXJixeuECeUU6vXr2kDS9UNzCsSDXiPFF1nWvV5u7uLj37qClxqDg0NFQeOZcTJ04gf9HHaGPjow7VaasHsufMwJkzZ+QZZYhzgAUFBdLRBHJ9DCtShTg3JDjSDi4RWDUtJyQe7Sq9xV4pixOnIcFX3SaIgxp4YmHidHmkHFGKTFwEketjWJEqRKFa8cHiSESTx5osBWZmZkoHc51RYWEhPA4l2/wZ1ePorRbov9slHXBWktg4JA53nzunXt8ssg+GFSlO6UK1T0qcl6rJJgtnfl4lqoQ846tsfcfqPO3jJVXBUJrY1bllyxZ5RK6KYUWKElfW4u5FiWKov5bYti629z9OTk6OKuWnlHD16lUEGexzkdDI6C79/koT597i4+OxZ88eeYZcEcOKFCWqDSQkJMgj+xE19kS19J+rbv57tWlh74hE+4zse2Z5pK6s0jLVlk/btm0r3SXbqqUJOR4eCqZaE5XCRfsIUSvvp40MxbODevXqoXXr1tI5JlFFW41CtTUhDgH37t37oQKoYolSfKC2aNFCnnmQ+POLO6tOnTrJM85F3Dm+ExmKt/zVP9c292Yx5p3Lkg6lq0HUzNy9e7fL1W6k+3hnRY8llvJE/6W+Q/viuYHPY/SKMdht3YOUoNMo6ngXxb8vQXHXEpwLvYCj3scwa89sxP17PEZOGom09DRkZWXJ38l+ft7a/nsiWE+dOiWPHlbbFvaORlw8oMuLqNCpWzXdrNfD8EIv1YJKCA4Olvpviaot5HoYVlSt3NxcjBozCi+MehEHjYcQ9pdwdHgzDq16RMKjkSd0Xjpo3OTt3FX/EGN3PwOaxDZBh5Fx+LexsbgZk4fh80ag959748iRI/e/1g6qCytxNygqeVdH7Kbz9vaWR87pPydOxor8xz+bs6XlVXdVoydOkkfqEe1MxM5Tcj1cBqSHiLfErNmzsDVtG579cztoDDY4X1T1Ljv7fxnwuloPCz5aoGizxV8iask1atToF5f7qitqKw4Nr169WurE6+xWff45yj/6G+IMyl+f7rlnRf1JMzBo8GB5Rl07d+6Uen+1bNkSKSkp0lKu+H957do16XVxgSKWg0UJMrHLszb1Icl+GFb0AHEnMXTkUAT9IRheTW2/5bmyrBL753+HpdOWok2bNvKs8g4fPgyj0SjVSfw5se1ZfGiJMPspsQQoPuREfUVX8OG0qfBY8xm6eyhXNX5bSQWsr/0HJrw3UZ5Rl6jWsXbDWhy6cBgV9Srwm7a/gXcjH7iZ3KD10EoHuy13LbCUV6Dw+h1c/NcF6Iv1eCowEgP7DZSacpJjYljRD0QTvpcSXkL0mzHQmZT7QNNU/fhuUTI+m7xctd5Q4gpbLAP+UvCITSKibcbP26WvWrUKAwYMkELOVXz99dfYOuYNvBVQD+4VttslWKZ3w/zcIvRZ/Bl69uwpz6pn48aNWLxhCfxi/BHWPhTQ13I1wApkH81G1oFMDO0+RGoF4yjdkek+hhX9YMjwIWjQxx9u3iqcy6l61+37KBlbP9+qypKgqHAgzvz8dFef2PghqsCL1u3Hz6bA6GHCLXMhtBYNghsEoSj3NjrHdZLaUERHR7tMK3WxHDZz0kT47N2B/g084WZ58srlYiPFhvy7KOryEt6dnihtclDTyZMnMXbqOIS8HAK/Vrapil+cXYRT608hcfR0p90F6ooYViQRXXAX/nMRmrcPkWeUZymxwD1Jjw8/+FCeUY6oTSh2/TVt2hSr163BltO7gEYGBLZuCm2AO6yaX/5roCsDSi4XIiclE2GaYAzuMQB9+vRxieccorrEquWfInPTRnSuupNuY9TBswZ3W3f17jheasbeMiua9xmAocNHVLv1X0niOMKnScsRO/TZGnfIro0zm0+ja8MuGD9uvDxD9sSwIsmrg19FizciFPlL/ygHPtmP7Uu2STXelJSUlIQJ09+FpY0H/J5tCqvuCf89883I3pGOwTGvYvzY8Q7RI+zXEh8BBw8elNrcZxw8gOLUUzCW3UN54W14VYV4EbRwr++NMqMJnk+1Rqt2z0vLqfboMv29FStXYNuN7QiNC5NnlJGXnodm2U0w9f2p8gzZC8OKpCoN7Yd0QIc34uQZ9dzKKMDA5gmK9bgSFQ3emjAaB5GGgPjmqLRR4XRtsRVZ/ziNRWNno1u3bvIsqUH0RJv21XS0+WO0PKOsS8kXMSC8v7QtnuyH56xIenbjH2KfLrj1G3srVuxUPJvp1Lcbzj9TBP+OtgsqwVpPi8avP43xmxMxc5byy5j0o8lzJqsWVEJofBjmbJgjbUAi+2FY0f1eTVobfpLX0qNq8z0pUWbolWF94TkktCoRldvZKEJwc8V+LFChMy4BO3bsQJMuTeWRemIS2mLVF6vkEdkDw4qk2ni5F3PlkbqKrt9BRESEPLKd10YNg8+fwmHVKr/KbYrwxfLUjUhOTpZnSCk7d+1EcPSD5+HU4BHsiaQje+UR2QPDiqSq4g0rA6Xt5GpL3Z1q8/YhoqzTBf88VJrUu1sM7BqGyfP4EF5pV/KviIN6dpFbYp8LOrqPYUWSMcPHIOtQpjxSh6XUgueC28HHx0eesY2PP5mLBu3UbZ8vdlGWROikHXWkHIvVIv9MfdZKdbst04MYViTp3LkzKlMqUVH05AdEa0NUsTiwcB/emfCOPGM7abcvoLKac1NK8o0Klso6kXJC/EPssgIgBJoC5J+RPTCs6AcrP1mBY0uOwlqm7BWkFFTL9mHp1KUICLDtB4Co5XdXb58GfFYDkH4hQx6REuLbxyM/I08eqae8oAzPPf2cPCJ7YFjRD0Q5oU0r/wcZy9JQcv2uPGtjZmDv7CTMeXOOVMLI1tzc3Kp+Dztdelf9tj71nLudiKMTjTzPbVXmqMOjHFl7BMOHDZdHZA8MK3qAn58fvln7DfxT/XDki8NSuNhE1Qf5xb0XcHnlRfzvp5sRGxsrv2Bboqq2v9ZOgXHbjIiWtt/ZSD8Sm4HeG/4ezu5U7w72+onreK3L0PuNLMluWMGCqiUOC0+ZMQXnLRfQpmc0DH4G+ZWas96z4uyeDJjPmTHpzYmIi1O+SsaUaVOxL+QcrB7qXotlf3UG+xZsl/olkbJEv7XU+ukIjFL2v3Xx1WLo/qnBormL5BmyF4YVPdatW7ek7qub925GvqYAjZ5qhMZPNYHepIfW88dAEMEknnflX8rD+aPnYbpnRFxkHAYNHKRqoVPx5/3d653RbNDDvauUoi0HWh7ywpL5i+UZUtqcuXOwK+db/LZXlDxjW5f3X0bY7RDMmD4DOp1yB8upZhhWVGuievnp06eRk5ODO3fuID8/X1o+FM+LGjduLHVoFY0V7dlSQ1QbWHR2Hbyilb/L0UKDG5+dwd61O1XvgFzXiQLFE+dPQszgGJiCbPN+MxeacWjlQYwfMA79+vWTZ8neGFbkst6Z9C6+80qDMVy5Z1iaSg0yV53E5tnrEBkZKc+SmsxmM5Z9ugxrktYi8oVI+EcGSOfeauvOpUKkbE3BS1E9MG7MOJeoqO9KGFbk0hYuWoilJ9ch6IUWT/QB9ijakkoUrD+HfyxYjfDwcHmW7MVisWDXrl1Yv2k90m9lwCfEF6ExoTD5mh5YrhaspVaUF5bh8onLyL+Qj2bGpujfsz9efvllGAy1fzZLymNYkcsTvZrGfPA2NO19YAr/9dUyRCfh7C1p6BHcAYnvT+cVuIMSDTdFJ+hLly5Jy9W5eblSFYqggCBpiTo0NFQ6PsELDefAsKI6IzExEV8f3Iay5joEtQ+FxV1+oYYqr5ch69t0dGwci7+9PRnNmzeXXyEipTGsqM44fvy4tFQkNkF8ueZLHEivuuq+mw1jEy94BtaHybvqDsmolQ4VW8orUJpXjPxLN+Br9kSEbxj+0K0nevXqBaPRKH9HIlILw4rqjPT0dNy8efOhs16iSeP58+elIMvMzJQOf4rdjaLArlgi4mFQIvtjWFGdceXKFWRkZKB79+7yDBE5C5ZbojrDZDKhtLRUHhGRM2FYUZ3BsCJyXgwrqjMYVkTOi2FFdYZer0dFhTrNJYnIthhWRETk8BhWRETk8BhWRETk8BhWRETk8BhWRETk8BhWRETk8BhWRETk8BhWRETk8BhWRETk8Fh1nVxeWlqa1AKkoKBA6hrcsGFDhISEQKfTISwsDFFRUfD29pa/mogcEcOKXM7169exfv16rNm+CWduXAYaeMDoVx/l7hpotBqUV1pg0OiBcgu0ZRUozrqJYHdvxLV6BsMGD0WXLl2g1XLRgciRMKzIZRw7dgzjp0zEgRtn4dYiECWoXR1ArUYDjzsW6LPuYPwfX8f4seOk4rdEZH8MK3J6eXl5GP7WG9hxLQXlTb1gtcFb2sOig/FsARa/nYiEhAR5lojshWFFTk3cTfUYloDCKF9pec/WTPllGNKiIxbNnS9VbSci+2BYkdM6evQo4v/SD/ci/VFZ9UMpHhVadK1shm82fAWNRiPPEpGa+BSZnJLYRPHi8ATFg0oo0VvxrfkS/jrlfXmGiNTGOytySkNHvI51JadghlWeUZ77uQKkb9iN0NBQeYaI1MI7K3I6165dw/p/7VY1qCQtAzDz44/kARGpiWFFTicpKQmGFg3lkXrEBo7NR/bIIyJSE8OKnE56RjpK9SrfVclu3itCWVmZPCIitTCsyOmUl5ttcpbqieg0sFhsv0WeiB6NYUVOp1VEBDwr7XPmyVfnAQ8PD3lERGphWJHT6dChA8ov58kj9eg1WnRsFSOPiEhNDCtyOuHh4ejaOAq6qvBQky6zEH+d8K48IiI1MazIKX08bSYMqerdXZksWvRr8Tyio6PlGSJSE8OKnFJkZCTWT10AY1aRPKMcA3SIyNHjv5csk2eISG0MK3Jar7zyClaPngmP9AKpvYcSPMqA5wp9sXvTNhgMBnmWiNTGsCKn1rdvXxz5citaXq6E513bbWd31+hgyCjAuKie+Hbzdvj6+sqvEJE9sDYguQTxNl63bh3+a+503PbXo8zPCEtl7Q8Oiy3x5Wdz0DcqHrOmfYBmzZrJrxCRPTGsyOUkJydj5Zov8M2RJBQbrDA18Ue5QYN7lQ92DhYLh/XgjspbJSjNzkNUYAhGvPon9O/fHwEBAfe/iIgcAsOKXJpoJXL48GGkpqaivLwc5zMv4Z7FjGZ+Qahfvz4CAwMRGxuL1q1bw93dXf5VRORYgP8H0oRhKY746UAAAAAASUVORK5CYII=;" vertex="1" parent="WIyWlLk6GJQsqaUBKTNV-1">
          <mxGeometry x="430" y="160" width="211.15" height="180" as="geometry" />
        </mxCell>
        <mxCell id="a62uRSst5NXsYXS5A3J3-48" value="" style="sketch=0;aspect=fixed;pointerEvents=1;shadow=0;dashed=0;html=1;strokeColor=none;labelPosition=center;verticalLabelPosition=bottom;verticalAlign=top;align=center;fillColor=#00188D;shape=mxgraph.mscae.enterprise.filter" vertex="1" parent="WIyWlLk6GJQsqaUBKTNV-1">
          <mxGeometry x="233.89" y="530" width="211.11" height="190" as="geometry" />
        </mxCell>
        <mxCell id="a62uRSst5NXsYXS5A3J3-49" value="&lt;h2 style=&quot;font-size: 15px;&quot;&gt;Statistical Enrichment&amp;nbsp;&lt;/h2&gt;&lt;h2 style=&quot;font-size: 15px;&quot;&gt;Analysis&lt;/h2&gt;" style="text;html=1;align=center;verticalAlign=middle;resizable=0;points=[];autosize=1;strokeColor=none;fillColor=none;fontSize=15;fontStyle=1" vertex="1" parent="WIyWlLk6GJQsqaUBKTNV-1">
          <mxGeometry x="244.44" y="520.87" width="190" height="90" as="geometry" />
        </mxCell>
        <mxCell id="a62uRSst5NXsYXS5A3J3-50" value="" style="shape=image;verticalLabelPosition=bottom;labelBackgroundColor=default;verticalAlign=top;aspect=fixed;imageAspect=0;image=data:image/png,iVBORw0KGgoAAAANSUhEUgAAAU4AAADlCAYAAAA8/x7wAAAAAXNSR0IArs4c6QAAAARnQU1BAACxjwv8YQUAAAAJcEhZcwAADsMAAA7DAcdvqGQAACDdSURBVHhe7d0JfBz1fTbwZ3YlrW7Jki0f8oFtDmNz2OYwtoEU0iSkrbkhHCUHZ4CkhNKUvm/TkL68L/k0bwk5KIWUQAKEACaQACVc5jI+YgfwbWzLt40vWbKu1Z4zff6zs9JKmMRjy9JIfr4w0s5vd2ZXtufR7z+zO2M5BBEJjO+9PQd3nvkZFOXlufNJ28YrdWsRtkI4d+w4FHr1pbt2oiUex5mjx7jz0ntC3ncRCYjySGHHhpliaL7K0LT4X25o2ux39kTb0JZMuPPSuxScIoHjwOaUSKfZaa5zw/OzDM2CcBhmgJjmfF3DXry5YYPbhUrv01BdJGC+88qrKEce2tlN/mHbNswYNcYNTcvK3G+6zXlbN2NoSSmGborhqNZMF+pXpKgA13z3Mm9O/FBwigTMS7Pn4ie3P4pkIulV9s9ikoZak7DaU17Fn5KKYvy28ZfenPihPl8kYIqZl/kNMeTV/+kpvKf9oENTDo2CU0TEJwWniIhPCk4REZ90cEgkYOb+ZiF+euvDSMT/9MGhQ1VcXoQnNz/ozYkfCk6RgNm3uwmNu/YhnbK9yuGRH8nDmImjvDnxQ8EpIuKT9nGKiPik4BQR8UlDdTl4TpJTC6eYV5AeYZWwpSnjDfU1QaXglINn18PeexWQ3uQVpCdYhbNgVdzDGxGvIkGjX2kiIj4pOEVEfFJwioj4pOAUEfFJB4fk4Nl7YTdcDaQ2ewXpCenIXyFd+n+O6IND2UuEBJWCUw6e0wqn7RH36Lr0nBc2FOCf5hUinvZO+X6ECVkW6r75995cMCk4RQLmhTWrceec1xBPHZknKe4Pwal9nCIiPik4RUR8UnCKiPik4BQR8emQDw7ZaRubVm715kTkUH3YWo9fbFqFNI7M47YhC3jpyi97c8F0yMEZj8Zx2bDrvTkROVTTLz4dt9x/HfIj+V7lyFOcH+yf/ZCDM9YWx6yyv/XmRORQnXvVmbjj4ZtRUFjgVSRotI9TRMQnBaeIiE8KThERnxScIiI+HfLBIXPt5/kvLPbmRORQ1YyqxjFTxyEUVl8TVDrJh4iIT/qVJiLik4JTRMQnDdUlMJzkUiC5iv8qCzl1e/O3024ewHoZp5wT/LrXdm/z6mGvSI7NKcobrIWKMrUsJ565LzTIK3icNKdmrqe867rMRx9tPofpM0LFmVKWuy6+NquCU+7rMutqYa2UU87ZzM3mZh4Pvr4Q78vlJDi1sj4UVuQcLnfkfnIo6NRxSnDE5wKpOmbdaE4jOydEmCkf8nYNkDeqsx6qgpPaxLCJcT63PozL2FxmCR8/prMernUDzokvdMOps55ZxjHPbQI1d11mGSfFfF7R9bnNxFB0Esv5naGdl1MPDeHT7wbSuzif87OERrgh6iT+yMd3+xlD1ay/n1lnfB5fP4NXAksdpwSG0/ozWMWXM0TYvcHr3uw9sKNPwSqaxSaQAQOve2PAOfF33JtW5C/4xesq2YE66S1A+3OwSq7juqoydbdrbOG6fsXHn8Vm7gSvbjAYY2/y/n1czYVcV7bbZfia6ym1/4brupbrqmTN6zX4WLv9d1zPZE4TuYzXHTLE3ZBPr/fWle0qGYTp3XzZ/FnMz2gCOYsdqB2dzUwdx9c2nS/zp2xGbzY/mPcACRp1nBIcJijcAMqGZj0D5QkG0AWfEpqWz9B8nI8/+1NCs5GruYjr6gxNpLiu6JPeurqH5vNcz5RPhmaSXW5qf6G5B04bf5biL31KaI7la5vBQu4uAgkqBacEkwnNtkcYQJcxNDnE7RKab/NGiEHzmQMITQagG5q/4OPPYcZN8uqGCc23eH8DV3NxZwCaoGVoOmaZ0m9wXaYDzgnN6LPM19P48OO7hSY7zWQdw7F7aNYzNH/O1/W3zEXzsxhmX2c0JzTPZE2bY3+hvykJGNMd7oXd+iAD6BqGptlfmRuaDDrku53jAYWm08YAZmhFPs+MY3fYIRua9VzNpd1CczMXexRW2d9zXWWsZUOziUHHoTaH01becV1D0wzPk+w09xearQ9kXld4uFc3oWk6zWe84flZrGUPLHEZc8DJPEYCS/s4JTDcSw1zuJoJmptgmQDMHt02B2jcTjPMoDmD9Wxo2gzNncyh2QiVXJMTmg4cBpDT+jCsQhOax3p1MsskFnG5TQixo+18DnNXJuhCZbezzgA0R8rdLSTOAH7MDWwTdp2hmWZuL2doruFL+ms+vxea3KwcpxlOy49Z+jpfdk2mbjDobYa8OSgUisz0imSWSa1FrPlRtBb/gE9bmCm7dzlmx0SXA/eG7W295uS/ucxWzbW5V4zM1bEu1rst8mfX1X2ZjnUd4OsyJfN6ygsiiAT8uul/joJTAsOJvc4AfJYN5tHcEE1odA6IHHuX+cKMG8y5bHdIJhzNkfW8UVwm961CJoTquIrqTADnYufomKPe5nm6RAFDMLGCq5/AdUW8WoaTWsd1DeG6TAeasx/SXVej2012XcYE6kd8jtGsm2U6Oelt/MqfjcP2LnljOtfUery/pwp/aPw8t84CN5gaYu3Y0tSEE2uGIi/U+WfSlkhge0szhpSUYFCh94uEEuk0GtvbsS/ejuOqh3hVE2YO2pIJrNlbj8lDh3esywRAksvUNezFsLIyVOWsy+af+a7WNq4rhgnVg/mzZF6xCdLmeNx9XcdUVaMwJwjbU0ku04qCcBgjysq9auY5tjY34dszz8Lw0q5/Jv2OCU4RCY5757/nxJJJh0Hn7Glrc7758kvO3mjUSdumktGaSDiPfvi+M3/LZieWSnpV9tiplLNy9y7nvgXzHIanV3XcZZtiMefO119xNjQ2eNUMs8xvVq1wnl+90rFznsMss75hr/OdN193WuNx9/UY5vu+WLvz3bfecNeVSqczd1B7MuH8ft1a5zmuK8rXmMXQdLY2NTk3vPC8u87+rvPXl4gEhukC66NR/Nu8d3HXZ85BZWFhx7A7mkzi6RXLMGHwEEwdMQKRcKbbMx3dWnaTb23aiK9OnuouYzDo0MLu8J65b+OmU0/H2MrMG//Nc8S5zItrP3K7zwsnTOzoKM0yGxsb8cSypfinmWejuKDA7Y7NMmZd/z7/Pfc5RpdXIOx1rrFUCm9u3MCON4Xzxh+DIu/yFynbxk52oA+9vwiXTJyEsNX/Y0fBKRI4jhua7BrxjxzWDioq6hKav16xFJOG1GDK8K6h+VH9HszbugVXn3hSl9Bs5jD7voXzcNMpXUPTBNxLa1cjn8F3/nHHu3XDLMNOEk8xnO+YPrNLaLYm4vjB/Hdx7ZRTPhGab2yoA3tPfG7c0V1C8+OWZjy+7EPccto0DC7q9smrfkrBKRIwbQzH+xctxLfOmIFqBk02NNtZf3L5UpxQM9QLzcy+1qSdxiqG5qLt23D5pBMYmpl9lCYAOTzHA4sX4ZqTp2DsoO6h+REKQnmfCM31DM3Zq1bgdoZmSbdO03TA1085tUtocqiP19av4+Ms/OXY8V1Cc1tzM55ZuQLXcZma4hK3PhDo4FAPMX+MyXjKmxM5eFf+bjbu/cIXMay0rGPonGJH+culH3qhORwFXqdpgm7l7l3448fbcRGH2pXsTl0mNBl0D3+wGBccNxFHV1dn6oxAE2gvrskMz2cdOyHzzgHvPjM8f3rlcvzdtOkozmMA5nS6/z5/Lr7CAB6ZE5ppruvldWvc4fc5Y8d1hKbZHrY2NeH5j1bhSnbANSWl7mOX7drpHhgaU2k+UNB/KTh7SLw9gZ99+zFvTuTg1X12CI4aNhj5pqP02r3d0TbsbmvFsdWD2SV2HtU3R7DNEH1sZRVDMzM8N483gbq5aR9vOhjH+zraRjLD7aUMsBmjxmRy0dT53bYdzN2yCdNqR6Ewn8Gckwxm36m5ZO/wsnKGJh/sLWOO3pvnMUfvi8wyHnNk3ywzlIE5xHSa3vobY+24fuqpqM052t4fKTh7SHN9Cy6pudabEzl4Z181E7c9eCMKCjPd28BiubsYsp10f6Xg7CEKTukpuq568OngkIiITwpOERGfFJwiIj4pOEVEfNLBoR5i/hTtdNqbEzl4VshCyHufpASTglNExCf9WhMR8UnBKSLik4bq0r84MZjLXWQuLzFAmWscuSdfVl8TVApO6V/SO2E3foXf93iFgccqPA9W+fd4Q58cCioFp/Qv6e2wG650A3Sgsgpnwaq4hze6Xr5DgkNjARERnxScIiI+KThFRHzSPk7pX46AfZzR8HloK7oLDnRw6ECYS4XkXp64Nyg4pX9xonDi7/F7u1cYeOZsiePuBY1I2F5B/qT/+psL3UuK9CYFp0jAvLBmNe6c85p7ETT582ZfdgVOGV7rzfUO7eMUEfFJwSki4pOCU0TEJwWniIhPOjjUQ8x11d+dvcCbEzl4u0tsLCmNwVFbc0C+efp0jKmo9OZ6h4Kzh+jywNJTdHng4NPvNBERnxScIiI+KThFRHxScIqI+KSDQz2kpbEVV4+52ZsTOXhnXzodt/3nDciP5HsVCRoFZw8xb0da9s4qb07k4A0ZVY1Rx41AOC/sVSRoFJwiIj5pH6eIiE/qOGWAMf+czYksu/2zzv4zt6zM91zmvk+rg/Xud33auv7ccxifWMb70qVubmuYHmQKThlYnBic+Fu8kXMWYIe3nX28kc8xVlmmlmVOiGzzvvAwzuSEl5ME0rtYH85yTog5aU4tvMHHmuufZ7mbUZzr2stlRvB27rpSrO/m4weznPNpILOMWZe5P2yuo55VCKvwL/hd4RlUCk4ZWOw9sJvvhlV6a2behFJyBfNuC8PorztD0A2tfXCiz8AqvoL1ck5e2DkJ1p9jxk0B8o7OWYahmVzJQN0GRBhsoWKvznXZjczsl/kcn82ErVs3X+Ksv8HHDoEVOd0tu0yYpzcy5Od7z+8dQTcvK/oEQuX/zFphpiaBo+CUgcWuh936HwyeuzhjQnM57PgChEpu5L/27HVpTNA18XE/Zf3rDDp2gtkOkZ2mHf0VH3oMg5NBlw00drBOYinXtwRW0cU53aZZ116G3WwGI0Mz/1ivTo4Jzdd4w+YyF2RqLoZmaiOf51k2wN/ic+RcP91p40v7Hld/N+sKzqDSwSEZoEx3uIKh+d7+Q7PlJwiV3szQHMJadlidYpg9yYeOZ2hOywlNxwvN9xmAl/gIzdd5I7Wf0NzE55m9n9BsZ5jfz5rXyUpgKThl4HGH1Ow0Y29nwvETofljhtYt/NdvOs2sNOy2JzgqH8ssm95lmUxoLmKeXc5lOKTPckOTQ30zPO8Smhzqxzk8R4KheVGm5sqG5lN8/tu7hWaMofkjhIrMc5hTpOXsI5XAUXDKwGPvZGjOYTh9gzPdQ5PhVHZrt9C0GZqPMTTHMQRncj67jMlAhmZiHkPzKmZZbmjWc1T9FB//OT68e2iy02TH+cnQ3Ox2tKGyO7qFZpyv616G5pVc11EsKDSDTvs4ZWBJ72Y+fgdW5f9j/HQelXactsyQumgWrFC1V2Xd/Bd91j2gEzKdZu4yqXVsBF/lUP9r3FJKvCrrDGAn+jRD8y/ZmI7zqkaSGfge729mCJ7P+WwA8jnSOxi0DGd2mlZOaDomaFsfYjCfz+AezYrFzvMhryPVPs6gUnDKwOK0MqB+zu9xzmSDyxzB3sMucxBLZr9lTkdnm7cWcWjvDsFNPXtfiuX6TGfqHlXvDEH3LUcmSN0AzA7aWDdvbeKQO7MPtDOA3fUz0DMHoUw3m7uuBs4WZSavPn97M77xThViqezjpKeVRwrx5CWXY/yg3LeBHTgFpwww5p8zg9K83aefemHtGtw55w3EUwxcOSwqGJzPXHYFjqnqHH34oX2cMsCYLo3dnuks++vkdqvqNoNMwSki4pOCU0TEJwWniIhPHQeHXvzPV/ECJxHpW60TKvDxF4bDCauvOVxKCvLx8KyLUFuW895cHzqC87F/fQaP/+tstygifWfG5Wfg1gdvQJ4unXHYhEMWivLyURDOfdvYgVNwigTMuVediTsevhkFhTmnoJNA0VhARMQnBaeIiE8KThERnzr2cT77wxfx7L0vukUR6TvTLzgNt/zoa8gv6DxLkwRLR3C27mtDa2ObWxSRvlNSUYySymKEQhoQBlVHcIqIyIHRrzQREZ8UnCIiPmmoLnAvA5FcCvda4tLnrHAtkD+Rtw7uUy1y+Ck4BUj8EXbjDQxOHRwMAqtwFqyKe3gj57pEEigaqouI+KTgFBHxScEpIuKTglNExCcdHBIguQR24y2AE/UK0pdSBZ9HuvQuONBp5YIgPxRCfrfzdio4BbD3wEmu5g29HSkI3t8FPLK8GSlHV7oMgvPGH4OLJkyEZXX+fSg4RQLmhTWrceec1xBPpbyK9KWvn3o67ph+JsI5wal9nCIiPik4RUR8UnCKiPhk2bbtOLYD7ekUCYYX132E//Xma4in015F+tL+9nFabU1RZ86TcxFrjXklEelLS8MteD6/HilL3UwQ3Dj1VHzrjJldg3PHxl3O7Wf9C+q3N3glEelLujxw8Gkfp4iITwpOERGfFJwiIj4pOEVEfFJwioj4ZCUTKSfRnkA6pfeMiQRBQWE+CooKupxUQoJFJ/kQEfFJQ3UREZ8UnCIiPmmoLnI42I2wm38A5B/Pmdx9lSkguQzIm8BysVfzpLfyiw2L91lFF/D+/ExdAkfBKXI4pHfBbn0AodIbvALgOO1w2n4Oq/BvGI6jWekc8Nnxd/ilBaHCL8COPoNQ2be4deq66kGlobrIYcEuM1QGhEdmplAVEHuFTeYVzMMzWGNwuvfVwknVuY8PlXyZnehRCsx+QMEpcrg5UXaajwKRszj6PoGFvEydw3In/i6c9McIFV3IwDRDd70FqT9QcIocTk4b//8lQ3Nmt9BMMzTf6xaaWWbvmfagBZmCU+RwMaEZ/TVD84xuoZliaM5naG5naJqDQDmhyRpSm70ZCSoFp8hhYTMAN3ILG8xgLIOT2s5pM6eNcGKvw0ksYJiezPDc49U5JZfDbv0Ze9EI+011nEGmo+oih4PTwm7zuUw3aWU7TYOBarewVsBbhVi8fRumjRyF7c1N2NGyG1OH1WDetnrMOObvkBfWiYyDSsEp0kfSto0fLpiHq046Gc+tWomLjp+IEWXl+NHC+bj1tGmI5OUGrgSJhuoifcR0LOaCbM96oVnL0AzpxB79goJTpA+1JOK4mKE5srxCZ0PqRxScIn3ExOTgomKMYmhmRZNJ7Iu169BQwCk4RfqQ7ThoSybcqSkWw29Wr0RrIgEdegg2HRwS6SNpbnr/9t67KC/MfMRybzSKRnabH6/dge9OOxsFobBb708iJREMHTMEhcUD+2OjCk6RPmI2vFgqiVTazhQ8V9beiHhjtF9+eKhm9GDcN/du1Iwa7FUGJg3VRfqI2cdZlJePskikyxROMjHVzgSaglNExCcFp4iITwpOERGfdHBIJGAurbkO7a3t3lz/MnhkNe5963sYXFvtVQYmBadIwLzy6FtIxpPeXP9SWlGM0/9qKkr4fSBTcIqI+KR9nCIiPqnjFDkgZjPprU3FvMNTJ/wIMgWnyIGwm+HEfs/sjHmFw8fKGwdEZvBW//vI5ZFCwSlyIFIbYDdcxQBt8AqHj1U4C1bFPbyhywQHlfZxioj4pOAUEfFJwSki4pOCU0TEJwWnSMAkbVtnlQs4HVUXORBOgpP5/HgqM+9TimH4xob12LivEVVFRXhtfR2+ePSxiOR1vuXIXEZjwdYtaE6EcN95l/C+fO8eCRoFp0gvSNppvFZXh+riYjy9cjn+YcaZGFxc0vE2dxOav1q+BEdVDsIfP96O26bNQKGuqx5YGqqL9BIzBH/o/cX4NkNzRGkZIuEwCjjlhUIM02UYP6gaZ48+Cvmc1+eGgk3BKdJLTEDedMppGM7QzF5DPc0wfYKd5piKQZg5ejTyGaQcCLr3SXApOEV6SZhhOaioqCM0zX7PTGhWMjTHsNPURyz7CwWnSC8xBxNMh2kCsz2VxBPLlrD7LMfptSPdHtPUs5MOPASbDg6J9AITmO9s3sRpI8ojEbTE49jW0oyjq6rdfZpZ5nELF63G5MVRhNL9e9MsrSzBV+++ApU1FV5l4FBwivQCh//FU2m0JOKZeW517oC9++5M1uc/9wc8eNPDSMX651ngs6qGD8J9796NEeOHepWBQ0N1kV5g8T/z9qIhxSXuVFPC72by5jsm1srC+dowA05/PyIiPik4RUR8UnCKiPikg0MiATPvt4vwH7c9gmT84D4XHxQVQ8rx/d//M4aMHHjXWFdwigRMS2Mrmve2wk7bXqXvmIP+JiC6fz8QkaIClFWVoqi00KsMHApOERGftI9TRMQndZwiPYLDaqen9klyQGyZU8p1f3e8BIWCU6QnpDbBSSzmFlXEmdzASzNQYyyZ/Xy5J/HgZudeo501qyBT6hDiaj7H7zofZ1ApOEV6gNP+AjNyGwPvfM55e8DYgTr2XjjRxxEq/Sa3tux10h04Thuc1v+CVXIVrFDORxKdBOy2nyNU/r/5eBPCEkTaxynSE0LVQMFpbCBHchrBqYbxaLGp/D1D8C42j2O9+nA+tgJo/y2s0uth5U/x6pxCg5m1dQzPNm+lElQKTpEeYYbn2SE6O83UNnaaT7HTvDUTlC4zPDed5gMAO1Mr7zivTk4STvxtfm/KhKg2zUDT345IjzKhuZlD9+cZmjf+idCc4NXJDc05/N7M0fmFLGjfZtApOEV6TJoZuIGh+d8IlVybE5rmiDtDs+XTQvMNfm9haF7Mgs4C3x/o4JBID3Di89lpbmR27nIP+HSGJjlxt9O0Cr8I5OeEpulCY2/CsethFV/O+cxQP9H0AFLFN8KyCjm5JZfZUs3VMEMs5tbNarLnjDf35bJZNpt4ONS1nl2XuVicmcQfBadID3BS7DTj7/FWOlM4BA8v2YQFe47HjFHjEcoGHrfS9lQKL9etxXnjj0FJQec1182lNj7YsQPVRUUYX1XlVTOhuTcaxeKPt7nXcO/IVNbj6RReXLsG/zD9THx23HjvDjlQCk6RgLni2afx0KwLUBHp/Ix3jKH54z/Mx/nHHo/jBg/u6CxNaM7ZsB7NiTjvm4CIdy12s1lvb2nGr1csw9cmT3Wv4e7WOcVSSTzywQfutd7PHnMUpg43B6PED+3jFAmY00bUojDceYDIhOZ9C+fjwuMmdgnNNMPxjWxoHpcTmpy2Njfh6ZXLu4SmYULzsSVLcPKwYQrMQ6DgFAmY7OWDjWynednESTimurojNM3+ydfq1qE1G5o5Qbt5XyOeXb0SXzm5a2i2J5N4fOkSTGZoTh85yqvKwVBwigSUCc2fLFqAS4+fhHGDqjpC0wzDX12/Dm3JBGZ1C82NjY14/qPV+PJJUxiaxV4ViDI0n1i2FFOGjcA0heYhU3CKBJAJzfsXLcQlEyZi7CdCs46hmdxPaDbgd2tX45qTJqM6JzTbEgk8vWI5ThkxAqdyysXVyUHQwSHpF1YtXIs9W+q9uYHtyX0bUVBbjsqiIpRGIgxN7w4ynWN9NIoRZWXI63I9dgdbmvZhWGmZezXN7GjfbN0N7VF3v2cV19cZwMCO1hZ8adKJOEMdqG8KTukXvn/1jzH3uYXe3MA289IzcNuDN6KgsKDLeZaM7Mb6aXXDzzLm/Z1hSwNPvxSc0i/83y/9EO/MXuDNDWznXnUm7nj4Zjc4JZj0q0ZExCcFp4iITwpOERGfFJwiIj7p4JD0C7s270FLQ6s3N7CVV5dh8MgqhHLebiTBouAUEfFJv9JERHxScIqI+KShukh3qfVwor+EOXN7n8ifDKv4Mt7o/By6BIuCU6QbJzEfTuMtvBH1Kr3LKpwFq+Ie3sheh12CRkN1ERGfFJwiIj4pOEVEfFJwioj4pINDIt04iQ/gNN3BGzGv0rv2pKejKf/bSDphhC1zDXVO3n2GuUibOZmmOSlx9oTFhrkOkbs1s2aWyzKlzH1Ol5Mfuxs+v5irXe7v2urJtI0wH29Wlfv85sqa5jW5z895c7u2rBzF+Z2XLB7oFJwi3dnNDJR9nFJeoXfdM28JhpTVYuXuepw0dBjKIpGO4Eqk01jXsNc9+bC54mW2bsK0PtqG9Q0N7lUy870gNBu3OWv8kp07MGHwEPfa61kmANdyXWl+P7FmqFfN2NXWirV76zGtdjRDtTNszbqW796FoyorUVNS6j7/4o+34+unno6xlYMyDzoCKDhFAub7c9/B0NISnDK8FhNrapAfyoSgCc2Vu3czuHbi4uMnobQgc6JjE5p72trw1IpluHzSCRheWuZ2gZnQTODVunUYwY7wVAZqtuM0oflR/R68u2UTvnry1C7dolnX48uW4IoTTsKw0tKOy22Y0Hx70wY3yE8bMdK9RIfxiyUf4KwxR2H8oCp3/kigfZwiAbOugZ1mzTBMYheYG5prGHRLdu3oEppmCL43GsWTy5dmQpMBeSChWcdO8+3NGz8RmmZdv1j6AUPzxP2E5kaURwq7hGaS6zIXljvS+i8Fp0jAmKAzoZkNOhOa6xl0izgkvnziCV1Cs6G93e34rmR36IYm69nQfGU/oWmCbtO+Rry+oQ7XTj6lIzTNMo2xdvzsg8W4+sST3a41G5rtqWxostOsre0ITRPA25ubsHTnjsy+1SOIglMkYKqKijtCK8nQ3NDYgLlbN7tdYElOaDbFYnjo/UXu5YCHlXF4zrrJr3Z2hy+vW+sesOkemiboXlq3BtdNOTUnNB20xGPu5Yi/cvKUjq7VMN3kmxs4POfznl47suNyxCY0zVUyf/vRKnffqbno25FE+zjliNbeGgvcMPP+pYtx/SmnuUe6zX7IuVs2sQuc3GVI3ZpI4KeLFnhBZ0IzE1ymO31x7WqMKC13g84cFTdM0O5qa8EzK1fghqkmNDsvBJdIp/D/57/nrmtkeYVXZaByGRPApZECzBg5uuOAk7GTofn0yuXuUP9lBvG5Y8djfNWRs49TwSlHtDu/cDecdLA2gcTNJyFdFHZPZLyRw+qR5eUdnV6W6fYKWassKuwITaMlEUdzPI6hJaUdnaZhAtUcKTdH1XND02z++9i5xhieZnieyyyzjR3q6IoKrqszNE2HuqWpiesqdncbtPD5/uXsczCmstJ7xMCn4JQj2nkFVyCdSntzwaDLAwef9nGKiPik4BQR8UnBKSLik4JTRMQnBacc0fLyw5zyAjWF3M+GH1nvi+xvdFRdRMQndZwiIj4pOEVEfAH+B381T9VYFYA/AAAAAElFTkSuQmCC;" vertex="1" parent="WIyWlLk6GJQsqaUBKTNV-1">
          <mxGeometry x="178" y="730" width="334" height="229" as="geometry" />
        </mxCell>
        <mxCell id="a62uRSst5NXsYXS5A3J3-51" value="" style="shape=image;verticalLabelPosition=bottom;labelBackgroundColor=default;verticalAlign=top;aspect=fixed;imageAspect=0;image=data:image/png,iVBORw0KGgoAAAANSUhEUgAAA+oAAACuCAYAAAChv/c1AAAAAXNSR0IArs4c6QAAAARnQU1BAACxjwv8YQUAAAAJcEhZcwAADsMAAA7DAcdvqGQAACThSURBVHhe7d0LnJZz/v/xzxxrStK5HDtSkg6DogOlSUXsJq34rcPaJfzCbmmFUg4hyanNcUWLsk7tLvothWwHpaiJYuhctpBSlGbumet/vb9dV+6ZpszYyXXt3+vpcWnu67oP13V973vueX9PV4rnMwAAYiY3N9dOOeUU27x5s7udmZlpw4cPtz/+8Y+WkZHh1v2U9HW5fPly69+/v61du9aef/5569Spk6WlpbnthYWFNnjwYHvwwQeta9eu9tBDD1nDhg3dtv8frFu3ziZOnGjr16+3lJSUYO2+Va5c2YYNG2Z169YN1lSMBQsWWPfu3e3rr792t7OysmzEiBE2ZMgQS09Pd+vK6v7777fbbrvNPv/8c3db+zpu3Dg7//zz3W1ZunSpXXfddfbOO+/Y7bffbpdcckmwBQCA/SM1+BcAgFhRGFQ4Dyn0lTeEVaRt27a5cP7JJ59Ynz59rH379rtDekj7V6lSJVeRUNYw+9/iiy++sKeeesoefvhhVwlRlkWVFlu2bAmeoeKkpqYWe2/onJcsi7IKyyyk5y35XM2bN7d+/fq5ypgXX3zR1qxZE2wBAGD/IKgDAFAGakl+/PHHrUqVKnbxxRcXC4o/B6p4SA60PyeqGMjOzrYTTzzR3n33XZs6dWqwBQCA/YOgDgDAD/jmm2/s7bfftpUrV7rW1Xbt2rnw9nN34IEH2pVXXmmDBg0qdbn66qutRo0awb3jqawjABs3bmynnnqq61kwffp027p1a7AFAICKxxh1AMB+oSCjVmgtX375pQu727dvt4KCAtfd+IADDrD69evbkUceaU2aNNkj+C5ZssRycnJs48aN7rZC4fXXX+/GIX/88cduu8YVFxUVWa1ataxVq1Zu2VuAVsD68MMPXbdljW3Oz893+6HxzdWrV7d69erZIYccYgcffLBVrVo1eNQueoxa0d977z03Rv7aa6/do3u0ukVr2yOPPGInn3yyjR8/3o444ohg6/e+/fZb++CDD9wxfPXVVy4o6tgaNWpkxx57rNWuXTu45550rDpuLZs2bXKt3BpTrcepAuGNN95wz63n0hjuksfxn1i0aJFdcMEF7rVDGoO/ePHifc4ZoCELexsGoGEEH330kW3YsMG9P3QuVB516tSxZs2a2VFHHeUeX5LKoWfPnq5M5aCDDnLvjd///velDo/QudZ+6nX0GjVr1nTnrHXr1q6L/ujRo928A3LooYfaXXfdZeeee667nWzGjBl20UUXuX2855577PTTTw+2AABQwRTUAQCoaK+++qp34YUXetnZ2Z4fgD0/mHt+YFPlsFv8cOq1bNnSO++887ynn37a88N88MhdcnNzPT88F7v/qFGjvL/+9a9e//79PT9Q7X4+P6x6ffr08Z555hlv27ZtwTN8b/78+d7QoUO9Dh06eH4QLrYffph1z6Vtv/3tb71p06YFj9rFD8fe7NmzPT+ceQ0aNPDmzZvn+aE82Pq9RCLhDR482KtWrZp3xhlneKtWrQq2fG/FihXeuHHjvK5du3rVq1ffvQ9+GHXnyQ+b3vvvvx/cuzg/yHpTpkxxx+kHzd2P9UOt17dvX++ll17yLr74Yi8tLc3d57PPPgseWTG0X61atdr9uloaNWrkjru81q9f7z3xxBOu7Fu0aOHeG+FzVqpUyWvYsKE7Bp2rZcuWBY/63sKFC91xh4/xg7o3ZswYr6CgILjHLiqnV155xTv//PO9ww8/vNj7RWWk83nrrbd6RxxxxO7n0nth8uTJwTMUp33p16+fV6VKFe+aa64J1gIAUPEI6gCA/eK2225zASoMQPtaFJTGjx/v5efnB4/eM6grKJ922mlekyZNij02eWncuLEL8tu3bw+exfPWrl3rAmFqamqpj0leVBkwcuTI4JG7KPg/9NBDbnvz5s29LVu2BFuK+6GgvnHjRu/aa691oVRLt27dvIEDB3pXXnmlC6UKj9rHAQMGeB9++GHwqF127NjhTZ06dfexH3vssd4FF1zgDRo0yIXQ1q1buxDduXNnd54UJv/9738Hj64YpQV1ne/yUgXC8OHD3fEmP1dpiypRLrroIm/x4sXBo3cpS1BXSJ8xY4bXtm3bYs+ZvDRt2tTr0qVLsefaV1BXZdKIESPc/XJycrydO3cGWwAAqFgMsAMA7BfqGq6u7UcffbT5Ycj8kO1mS/dDrLutLsah1atX2xNPPOG6V++NH1bd2GA/gFrHjh2tV69edvzxxxeb1G3FihV29913uy7VIXUH12W11G1c1M39uOOOc/tx5plnWo8ePeyEE06www47zPyQ7e6TTLO9+yHVvY66lKvL/o+hGeOffvpp10VeXcjVNV6zoutfdb/WWG91Y//b3/7mLoOmIQIhnR9dRkzHp2PW5cT+/Oc/u3W676233uq6fPsB1vzwGDxq/9O5Ubn95S9/2WPRDPHqbq4hBiEd+5NPPumOO7wcmmiIgMZ/6z2i7u5hV3oNE5gyZYr96U9/csMEysr/+8bd/8477yzWVV/DIjQ8Qt3mdek/DR/417/+5YZmlIXG2/vh3v2s/c/Ly3M/AwBQ0QjqAID9QmOAL730Unfd6QkTJrhAqfCmEKdx3FdccUWxMdwKo6+99lpwq3QKyxojfO+999pjjz3mxhIr3CXPRj5v3jwXzBXyRGOPkyf+0szdd9xxh02aNMmFRu3L2LFj7YYbbrBf//rX1qJFi+Ceu6iCQME/DOo/hi5R9uqrr9pnn33mKgYUypNfR+PiBw4caL/61a/cOH6FxzBgKrBr3LkqHBTk9VhVMoRjsRVqNVZa1/nWPiqk/lQ0Rlxj91XxUHLRuXz22Wd3l4NorPhzzz1XLBhrbL3Glquy4tFHH7WRI0dahw4dgq1m3333nb355pv2+uuvB2t+mCoE5syZY3PnzrVEIhGsNevcubONGjXKvY7C/2WXXebOaVnPmYK+xs+rEkpj6j/99NNgCwAAFYugDgDYL9TirVm/NUO6wq4mDVN4mj17tps9XROAKaCGNm/eXKwlvCSFI008d/PNN7sWcT1Wk7bddNNNbiK4ZJqhPZxoTBN/JU92psurqXVdYVEhUhOLKcAptKlS4eyzzw7uuYuCslpe9fra5x9DPQXWrVvnftYEeWo1LkmBUfuh/dEEfKpsEJ0XXRJMGjRoYGeddZb7OZkma1MrsXopaD9L0vnXOdf5nzZtmr3yyisu/CpoJrd4V7SSE/spbKtHRDJVvKhCRy3V6tWgSdwU/jVBYEiT+b311lvBrR+mMvvnP/9ZLKRrUrqhQ4e6XhQ6T+rpMWzYMFdxUx56L6lXhs5beVr5AQAoD4I6AGC/UOuxWlSHDx9ul1xyifXt29d69+7tWoMV4tWirhbPkEKVWp73Rq3mamkt2T1dM3crtCcHVAVQtXiKKgoOP/xw97Ooa7lapRXa1LKubthq5Z0/f74LkSXDpVpnNUu81uu1FYrLS70F1Kqv2d01s3xpYVpU4aDKCAVAhVNRZcKqVavcYxRk91ZZoPOj1unSZmBXLwMdq2ar18z0Wq655hrXeq3wHJ6r8lL41TCETp067bFoeIN6ICTvjypr1F0+pMqJli1busqUZKrIUBf1kLrz63wkDwfYF1XEqPU+OajrPaDnTT73Kg+9voJ3Wel4NPxB+8Il2gAA+wtBHQBQ4RTGHnjgARfGNYY5NzfXhfAf6mK8r9bdsNtxaXRJs+QAptcPQ51CY//+/V2gV8hViFPL/dSpU934cIVWbVe3c3WB174mq4iu5ArCOjYFw9IuNxZSYFVlgO4bdhlX2NTjFRB/qEVfY6hLVjSIxoqHY/tvvPFGF9rPOeccd5kzdfmfOXNmcM/yUdB+4YUX3Lksubz44os2YMCAYpeIU7BNDtvqPVAypIuCsM5VMp2T5JC/LyozvVY4L4GEXdZL0jktbR/2RhU1Wn7KIQYAgJ8fgjoAoMKp27ECXHILuUKZWjQ1dr1Nmzau9bc8XckVjEqbKE2hSeuTg5PGb4eBVT+r9VihXF2sNWmZQrteX2Pkw0CoVutx48a5rvXJY6j1eO2nWtYV/n5MQAv3RyFVz7M32qZgrvuGY9B1fPpZr/tDLcraXtr+qReD5gcYM2aMq5TQbQX2q666ynXJ11CBH3ru0ij4qov63hYNM0jugaDKhuTbCt+lnQ+dg+TWcEk+J2Wh+ya/Vsn3SOiHyqQk7bPeB5oPoDwt8QAAlAdBHQBQ4TS+euPGjcGtXa2WF154oZtITuOjZ8yY4Sbz0gzmZaXgpi7tJQOcuqWrm33yenUhD1uuFcIU8tSyrlnA1dVbs8c/88wzds8991i/fv2KBa6lS5e64BpSIFOLvZ7nx45J1uPVaqux7trfvdG2DRs2uFZoBV1Rl3a1Bito6pyWPP6Q9k+hu7TQ2aRJkz1aqEXd7NWdXuPgf2w37vJUXGiMfXLrtY41efb3kI5T4/STaf9LO4bSqLz1Wvo3pHNT2rnX+rK21Ismt9O5UrmEZQQAQEUjqAMAKpyCjFoeQ82aNXOznWu8uLpLK/yqBXtfk8eVpKCqydDUXVvPr9sKmGq5V7fu5MAYdnMXBT6NjVYg0/01q7qCucZA63JxmjxO+xdSl/PkSgYFS23X8WiseXmCaUgzvCtsK2RrBnftR0l6Xp0Pja1WRYMmOxOF0/BnjdPW9pL0WFVWLFu2rFwt4zo3OpcKnD/2snPlocvgJYdblYVms9c5UXlqUW8GVZQkX1ZNj1FPjLJSS78qgZLHx6tSQD09dMwqS02wp7H7CxYscOG7LNSVXpUtqgzR+WrcuHGwBQCAikVQBwBUOIXx5JZTBbHJkyfb3//+d9eirdnV1Q1bYb08FOLUfV0t8wpduqSXZn1PDr4KUN26dXOt2KLx17pUmC4Zpq7tCvZq0dd6Xdtcl2hLDoVqKU3ukq8x49nZ2S4AJ09SVx4K2sccc4zrjq3J7DTjenKgVvBTJcTLL7/swqCGCJx00klumyoVwoCrmex1OTkdb1hhoPuH6/fVWl+SKjfUu0Gtzgq1Ou79TeWiyduSx4qrS74umaZy0SXsNGZel95LHl+uc6cJCMtKAV2XrNM5S+7+Pnr0aHdpP72Ors+uy8Kp4qes1KMirFzSe7zkpfwAAKgw/hc9AAAVyg/RXrt27ZQkdy9+IPT8gOb+9QOrV69ePa9+/frF7uOHseAZPC83N9fdJ/nxfmj1/EBZ7LmSH5+ZmekNHDjQW7duXfAsnjdp0iSvadOmu59Dj0te/CBX7Dl69Ojh5eXlBY/eZd68eV5WVpbXoEEDb9asWZ4frIMt30skEt7gwYM9P9h7Z5xxhrdq1apgyy4zZ870OnXq5F7DD/7exIkTvRUrVnhr1671/IDujl3b/JDutiXbsGGDN2TIEHd8Bx10kDd06FB3ftasWeMtXrzYGzZsmOcHR3c+dW7POecczw/iwaP3tHXrVrevur8fkj0/4Adb9u7999/3WrVqVexcNWrUyMvPzw/uUTZ6b7Rv375Y2akMwvIoub5JkybeAw88EDx6l4ULF3p16tTZfT+dkzFjxngFBQXBPTzvu+++c+epRo0au++nJfm9o/eSyssP9ru3H3rood7kyZODZylu2bJlXt++fb2qVat6fsgP1gIAUPFoUQcAVLju3bu7LuWarE3d3NWqGbaQqrVTLZEXX3yxm9itrDQx2fnnn29du3Z13cH9oOValfXcaqlWy7euJa6J43QJtJDGqqtVWo8PJzPT49SKrUW3tY/arpZrXU89uSu8aLyzrtmurtpqjU9u7S0rXa5M15XXa6iLumbE11AAdenWBG9q4dfr6vV1nMnUFV7rNQmc9vn+++93l6pTS7+uvf7444+7bvw6NzpetY7r/JRGx6DZ7dWirPH5uo55Wcd+67z9pzQE4pZbbrFTTjnFvW64rzqnOjZReWicvoYwXHfdde7Y96W0/dJzaEZ/XTddww6Sy17/6jzpfOmygSrfsli7dq27jJ+uw673OAAA+0vaSF1EFQCACqQg1L59ezdZmcZlawywglHDhg3trLPOctdWV9fuhQsXuq7E6q6uIKUuzgqPorHA//jHP1ywUojWpcd0HfYRI0ZY/fr13XhmhTsFdIXdyy+/3K6//np3vWy9fki3Ncu89kUzz+v+6pavIKfX1Xbtq671rlCo/Up+vKgiQCFSXffV9V1BWo9Ppv1U9/W8vDwXuHNycvaYFVwzzStYq0u2xkjrvOi5Ndb5l7/8pev2rQoOrStJx69wqy7XmvxM46x1HG3btrVBgwa5a8OrS7fG4yvEK4TqvCXT6919992ua7nO5eDBg921zstCww5USaHj1/PqtVUOGoqwt0qBvdFrqmu6uviHQV2LykaVLCqP3/3ud+58qLt8yfOhrv4aJiDaD5Wrzutxxx23e1/CMK5y0HPq/aLhBnoNDUVQeet9qHW6fF14PlUpogqkkt3aVV4aKqDhEnqP6Jr0es8CALA/pPh/WPzn1eMAAJRCIV1BSCE3bMlU6ApbN8PwFNK2MFwqhKv1N2y91v0V6vRYPUZLuE3hTOvD502m1w1ba7XoZ60Lv/50fz1er60lDHolqUJB4VYhWePt1UKeVuK63DoeBT49z95atfX62nedm+RjC89LyedMpn0ueey6vx6rIKkgr1nrNbu9gqhCaUiPUUv6hAkTXHhVa7OCclnp3Cno69+Qju/HTkKnY9E50BK+P6Qs5aH763iTz5/Od8nKk1B4zsJ9D59f99d6lVn4XNoWvs+SaZ4FVRyoRV0VQqocAQBgfyGoAwBQBpodXS3R6oimXgGavE0tsD+VMOCH4TWskNDXuELrc88957r96z6asE9d7MPQr4CqifTuu+8+V8GgngPhTPIShuPwObGnSZMm2cCBA11PhYkTJ7qeDQAA7C/l66sGAMDPlMZTq3u6WqE1nlwzxSe3Lu9vujSbWsFfe+01d+1xtW4roGvmfLWSq7VXPRA0jl3XTU9umdfM9pohXy3I2qbWYQV7Lc8++6zNnTvXVUSgdBpOoGEF6uqvoRmEdADA/kaLOgAAZaRwrJA+a9Ys1zKt1lW1cP8UcnNzXZd1fW0rcGuIgFrBFbAV0BXaNUb7wQcf3OMSaEOGDHGtwLpGvLqqJ29TC7x6CKiVvTxd4X9ONJxAY9MV1DXxX/Ll+wAA2B8I6gAAlJG+MjWeWYFdYVmTlf1U3cXViv7www/b7Nmz3YR1upa6xsRrHLomPtN1xjURnSbsK1l5oIn5NAlcOA675Fe/ZljXZHV7G+P9c6cyV2WIxq2rgoQhAgCA/Y2gDgDAfwF1s9dEdgqMCui6reCt1nFNfqau+QrthEgAAP77EdQBAAAAAIgRJpMDAAAAACBGCOoAAAAAAMQIQR0AAAAAgBghqAMAAAAAECMEdQAAAAAAYoSgDgAAAABAjBDUAQAAAACIEYI6AAAAAAAxQlAHAAAAACBGCOoAAAAAAMQIQR0AAAAAgBghqAMAAAAAECMEdQAAAAAAYoSgDgAAAABAjKS89dZb3spVq82zFP8/RMnzl8z0VEskElZUVGQpKZRI1DIyMiiPGFF5FCaKrMjjN1YcpGekWcL/zaXfXYiWPg3p/u+ohP/ZoDyiF5ZHIaURG2l+URQUFAS3ECX9PZWe7v99VVAYrEFU9I2R6pdHWnqa//cV5RE15Y1DDjnEcnp0d7dTunfP8dZ9PMeaHFbb38gXSpT0QXlzwWpr3irbGjSob57/BxeiNX36dGvbtq3Vrl2b8oiYzv/rr79urbLrW7UDsyiPiOn7YvYby+34yulWJS2VOBIxBfQ52wusQ1aGZaZSiRW1fP/z8c6OAmtpaZZOpWLkvrMiy/OXHqedZmlpacFaROXrr7+2ue/Mto5dmwZrEJUU//tiy6ZvLXfxZ3Z0h4NdcEd01DjYpUM3e+yeKe52SvcePb1Lu6TbOWe1M6NmK1rpqdbxvEdt5D1PW073bsFKRKlNmzb26KOP2vHHHx+sQZSaN29u9/7lTGvZ+lArKiwK1iIKO3cm7NRjbrNnG9SzI7Iq8eUesW2JIuv+Xp693Kap1clMD9YiKl/mJ+y0BZ/avWkNrQqjDCOlapINRfk2un6BrVyzht5xMZCXl2c9T+9k0xcNszQqFiOV5meP+bNW2NWXP2W3vXKeeTTaRqrICu2QKi2txyFXutsuqF98Uqqd16eNeQT1SKX4H5YTL3zcht/1hPXu1TNYiyi1bt3aJkyYYB07dgzWICrqDtSiRQsb+/jp1qLVIfQAipiCeq/sO+2p+nXt8MqZxPSIfVNYZL3e/8Reat3E6mSkUx4R21SQsDMWLrexaUcQ1COmGLjRD+p31iuwjz/91CpXrrxrAyKzZMkHduYvu9q0eUMtNY2gHiUF9QWzV9rgQc/YqKnn0lsxYkVeoR1WraX1OuIqd5tvDwAAAAAAYoSgDgAAAABAjBDUAQAAAACIEYI6AAAAAAAxQlAHAAAAACBGCOoAAAAAAMQIQR0AAAAAgBghqAMAAAAAECMEdQAAAAAAYoSgDgAAAABAjBDUAQAAAACIEYI6AAAAAAAxQlAHAAAAACBGCOoAAAAAAMQIQR0AAAAAgBghqAMAAAAAECMEdQAAAAAAYoSgDgAAAABAjBDUAQAAAACIEYI6AAAAAAAxQlAHAAAAACBGCOoAAAAAAMQIQR0AAAAAgBghqAMAAAAAECMEdQAAAAAAYoSgDgAAAABAjBDUAQAAAACIEYI6AAAAAAAxQlAHAAAAACBGCOoAAAAAAMQIQR0AAAAAgBghqAMAAAAAECMEdQAAAAAAYoSgDgAAAABAjBDUAQAAAACIEYI6AAAAAAAxQlAHAAAAACBGCOoAAAAAAMQIQR0AAAAAgBjZFdRT3P8RGxQIsE8pfEaiRgkApeOzAezbrs+I/38+LPFAOcRWSk6PXt457RJ2Xs9Wll9QGKxGFNLT06zb5U/ZtTdPsNN797SCgoJgC6KQ4ofBjh072tixY92/hYV8PqJUVFRkJ5xwgt36p9PsyKMb+Le9YAuikL8zYf1Ouc8eqVvbDs3KNI/iiNS3hUXWL3eFPXVMQ6uVkR6sRVS+8v+eOnfxCrsl9XDLSqHzYpSUQT4vyrf76iTs3fcWWuXKlXdtQCRSU1Ptgw8+tAH/08eem36VpaaREqOUlpZq789fbTcOfd6GPd3X/y7nyzxKRUWF1rDGsfaLFn9wt1NOP/0M7+23XreDqlfjD62IuS+TTVssPSvLMivxh28cbNu8xWrVrGWVKlXil1cMbNiwwWockOEqtRAtfR6+2LzdaqWnG39nRU+/nb7IT1jtzHTGtMVAkb986ZdHrUoZ/nc7H5CoFfq/rzYnCq1+/TquEh4R8k9/gf/Z2LRpk9Wte2CwEpHxy0MV71u+3mE16xwUrERU1Ejb/dQc++vk593tlJycHK9v3742YMAAy8/PdysRjYyMDOvds5fNrbLBrGEt/5ueYBgpfZm/9IFNm/ySte/QwRKJRLABUVCLuno23Nsky1rUPMD/ePD5iNJOvzx6vpprj7ZrbIdlVXLBBNH51g8hfed8ZJM7HGm1MjNccEc0FAM3+UHkvIWf2lsjTrMDK2fs2oBI6Kt89Zff2tmPzreZs++xSpUojyilpqXa0g9X26UXjbHZf/uDpabqE4OopPvlMXfhCht6xyx7++2Z7m8tRCszM9OqV6/ufk7p3r2795vf/MYFdUTv5M5d7O2q/zZrUpugHjV9d0xZZHNfecs6nNhh1zpERl8eLVq0sD8fVcVa1armWkgQnZ2FRdZh6kKbcsKR1rCqH9Qpjkh94wf1bjM/tFc7tbA6fhChOKKjr44vdhbY6fPyLPfOPlY9i/KIUqqf1Fd8vs263z/Hcj96jKAeMXW1zl28ws7tO9KWzbyRoB6xlPRUmz33E7tixJu2ePGiYC3iwvWQo0tv3FAe8UJ5xIlKgxKJh7Ac+AqJ3u6yCP5FdEqWAWUSreTzz9+70VMJhKXg8emIXlAElEQ8MZQNAAAAAIAYIagDAAAAABAjBHUAAAAAAGKEoA4AAAAAQIwQ1AEAAAAAiBGCOgAAAAAAMUJQBwAAAAAgRgjqAAAAAADECEEdAAAAAIAYIagDAAAAABAjBHUAAAAAAGKEoA4AAAAAQIwQ1AEAAAAAiBGCOgAAAAAAMUJQBwAAAAAgRgjqAAAAAADECEEdAAAAAIAYIagDAAAAABAjBHUAAAAAAGKEoA4AAAAAQIwQ1AEAAAAAiBGCOgAAAAAAMUJQBwAAAAAgRgjqAAAAAADECEEdAAAAAIAYIagDAAAAABAjBHUAAAAAAGKEoA4AAAAAQIwQ1AEAAAAAiBGCOgAAAAAAMUJQBwAAAAAgRgjqAAAAAADECEEdAAAAAIAYIagDAAAAABAjBHUAAAAAAGKEoA4AAAAAQIwQ1AEAAAAAiBGCOgAAAAAAMZLSvXt377LLLrN+/foFqxClriefYm9V/cysaR2zIi9Yi0ik+MvT79nC12dbu+zsXesQqebNm9uTzatY69rVrJCPR6R2FhZZ2xcW2IsdjrKGVSuZR3lEalui0Dq9ucSmd2lpdSplBGsRlS92FliPdz6yj8aeZVWrZAZrEQn/u3zNxm128j2zbNnyJ61yOp+PaKXakmUrrF+fG+zjOSPN0vTHFiKTlmbvzvnYfnf9DFu06P1gJeIipXfv3t6aNeusUcPGVlRUFKxGFFJSU2zO7Fn2VcZ3ZlX9L3b+8o2Y/+Wx/ms7qX1Hq1Gzll8clEeUdP7ffvMNa1XZrFpGunn+f4iO6hHnfLnN2lStbFn8oRW5hF8e727dbh2qV7XMFMojavn+76t3tm23Ts1qWrr/3Y7o6Oxvzy+0+Wu/sU5dWloqv68ileL/t83/bCx6b7l1bt/Q3UZ09HXx1ZbttnT5Vjv51G7BWkQlkUjYcdnZdvOIm9ztlJ49e3tZtT+z405qYoUJgnqU0vwvjwfHzbQemwutZZXKVhisRzT01TFuw5d2walN7Ki6B1ghQT1SCurD/7HUrhxwgh1Wrxr1WBErSBTaDQ/+y4YO+YXVrU15RMr/ZbVjR75dN+pZa3FBa8twFb3BNvz0/PIo+Dbflk360O644y7LyqoSbEAUUvwk8vnnn9uYO0bb6NG3W0YGLepRSklJtbVr19j48eNt9O13WCoVi5FKTUuzvE/ybMItt1g/q8FXR8QKrcBanZJjv3/zBXc7JSenp3faudWt7/+0t4J8omGU0tNT7exTx9v/rs+3nJoHWgF/+UZK3x29l660iX/oYiceWdf/9FCRFSn/43DUjS/b1HvPsRauPPh8RKnQ/75o1v8xe/u1kXZoI788+H0VoRT7but2a5g9xHo+1Meq1MwiqEfJ/+7Y/tUO+78rXrNVn66yypUrBxsQlfXr11vnzp1t+fLlLrgjWh9//LGdeeaZ7l9Eb8F771nf7PY2zprw1RGxIktYg5wu1uW1x93tlB5+UO/Wr5r9YsDxBPWIpaen2a96TbAr/KDezQ/qCf7wjZS+ys/6aKU9cnVn69K0jiWYMyBSRf7nodVN0+y5sX2tdbO6VkR5ROo7//ui5XmP24xXhlvjhnVdjwdEZ+u2HXbkidfZaQ/0tqwaflBHpHZs3mH/vGq65S3Ns+rVqwdrEZWVK1dat27dbNmyZVScxMCSJUvs7LPPduWRlpYWrEVU5s57x/p36GxjrDFBPWIK6gfnnGzdgqDOrO8AAAAAAMQIQR0AAAAAgBghqAMAAAAAECMEdQAAAAAAYoSgDgAAAABAjBDUAQAAAACIEYI6AAAAAAAxQlAHAAAAACBGCOoAAAAAAMQIQR0AAAAAgBghqAMAAAAAECMEdQAAAAAAYoSgDgAAAABAjBDUAQAAAACIEYI6AAAAAAAxQlAHAAAAACBGCOoAAAAAAMQIQR0AAAAAgBghqAMAAAAAECMEdQAAAAAAYoSgDgAAAABAjBDUAQAAAACIEYI6AAAAAAAxQlAHAAAAACBGCOoAAAAAAMQIQR0AAAAAgBghqAMAAAAAECMEdQAAAAAAYoSgDgAAAABAjBDUAQAAAACIEYI6AAAAAAAxQlAHAAAAACBGCOoAAAAAAMQIQR0AAAAAgBghqAMAAAAAECMEdQAAAAAAYoSgDgAAAABAjBDUAQAAAACIEYI6AAAAAAAxklpQkLDCwoR5VuQvhSwRLwUFBVZYkG/+D+axRL4U5Oeb538+rMhf9C9LZIvKocD/bHhFhebfYIl68T8T+fqc6Gf/+4Ml4sUrcr+vEn65FHoJ9y9LNEt4/vP98kA8eJ5HecSIykN/7yIeior88rCE/01SwBL54v+d62fzUMpNN43yjj0xy9p3aeb/Law/uBCV1LRUGztqmvX6KmHHHlDFRXdEJ8Vfblv3uV3Z52g7usGB7hcZoqPTf/WUhXbtRSdaowbV3Rc9opOfKLJB42bYzTf2t/r1KI+o7diRb1cMnWRtLs22SgdUCtYiKju/2WmLHl1sE8Y/aFWqVAnWIiobN2604cOH2/jx4y0zMzNYi6isXr3a7rzzTlceqal07o3aR3l5NnbIMLswtb6fPPguj5JXWGg1s4+xViMHudsp/h9XlAgAAAAAALFg9v8ARbX2YuOnN3IAAAAASUVORK5CYII=;" vertex="1" parent="WIyWlLk6GJQsqaUBKTNV-1">
          <mxGeometry x="2.51" width="691.03" height="120" as="geometry" />
        </mxCell>
        <mxCell id="a62uRSst5NXsYXS5A3J3-52" value="" style="shape=curlyBracket;whiteSpace=wrap;html=1;rounded=1;flipH=1;labelPosition=right;verticalLabelPosition=middle;align=left;verticalAlign=middle;" vertex="1" parent="WIyWlLk6GJQsqaUBKTNV-1">
          <mxGeometry x="693.54" y="29.65" width="10" height="90.69" as="geometry" />
        </mxCell>
        <mxCell id="a62uRSst5NXsYXS5A3J3-53" value="&lt;h2&gt;CONDITIONS&lt;/h2&gt;" style="text;html=1;align=center;verticalAlign=middle;resizable=0;points=[];autosize=1;strokeColor=none;fillColor=none;" vertex="1" parent="WIyWlLk6GJQsqaUBKTNV-1">
          <mxGeometry x="693.54" y="45" width="140" height="60" as="geometry" />
        </mxCell>
        <mxCell id="a62uRSst5NXsYXS5A3J3-55" value="" style="shape=curlyBracket;whiteSpace=wrap;html=1;rounded=1;flipH=1;labelPosition=right;verticalLabelPosition=middle;align=left;verticalAlign=middle;size=0.5;" vertex="1" parent="WIyWlLk6GJQsqaUBKTNV-1">
          <mxGeometry x="690" y="430.18" width="10" height="90.69" as="geometry" />
        </mxCell>
        <mxCell id="a62uRSst5NXsYXS5A3J3-56" value="&lt;h2&gt;CONDITIONS&lt;/h2&gt;" style="text;html=1;align=center;verticalAlign=middle;resizable=0;points=[];autosize=1;strokeColor=none;fillColor=none;" vertex="1" parent="WIyWlLk6GJQsqaUBKTNV-1">
          <mxGeometry x="693.54" y="445.53" width="140" height="60" as="geometry" />
        </mxCell>
        <mxCell id="a62uRSst5NXsYXS5A3J3-57" value="" style="shape=image;verticalLabelPosition=bottom;labelBackgroundColor=default;verticalAlign=top;aspect=fixed;imageAspect=0;image=data:image/png,iVBORw0KGgoAAAANSUhEUgAAA+cAAACvCAYAAACfHa8gAAAAAXNSR0IArs4c6QAAAARnQU1BAACxjwv8YQUAAAAJcEhZcwAADsMAAA7DAcdvqGQAADHnSURBVHhe7d0HgB1V2bjxd7PpJJEWggJSpIOAAn5I7wmEJuWjKoICUgRBqh8oIIIKqAhIEVBAEJUmRVGUItKRXqQGFTUUpQQJyZb5z3NyZ5m93N0E/p+efOzz0yG7986dcs6Zu/POec9MW1EKSZKkd2D69Olx5513xne+853o6upKr40YMSJOOOGE+OAHPxiDBg1Kr0mSpFljcC5pwPvb3/4Wp556akyaNKnxytsNHjw45phjjnj/+98fyy67bKy99tox//zzN96dvbz++utx//33x4svvhhtbW3R3d0dSy21VCy99NLR3t7emOud+de//hXf/va347HHHusJxJqxbIKzcePGpfWttdZaseiiizbe1f8Fzz77bDz00EOpjjk9GDNmTCyzzDLxgQ98oDHHW6ZOnRpXXHFF7Lzzzo1XIoYOHZoC9g9/+MPvuq3NTiiHhx9+OG699dZ4+umn4x//+Ed6jXY+atSomHPOOWPBBReMhRdeOBZbbLFYZJFF0jEnSdK7YXAuacD74x//GNttt106Ce8PPYEEKwTlBLoEJZtuummMHDmyMcfs4U9/+lMcffTRcccdd6SLCtOmTYu999479tlnnxg2bFhjrnfmn//8Z2y11VZxyy23NF7p2+jRo1OAvvjii8c222wTW2+9dcw999yNdzU7++lPfxonnnhiCry5qLPEEkvEfvvtFxtttFFjjrcwz+WXXx677LJL45WIIUOGxF133fWeCM7/+te/xiWXXBJXXXVVunD30ksvpX0GATjHEkE6ATrte7nlloszzzwzvSZJ0rvRXp7AHd34WZIGJHrDrrzyyvj73//eeKU1rmW++eab6SSdgP6RRx5J6bv0mhGUzC6ef/75+OEPfxj33ntvvPDCCymwJlhab731UrD+brDfl112Wfz5z39O5dAf0p1Z51NPPRUPPvhgCl6WXHLJGD58eGMOza5+97vfxfnnnx+TJ09O7ZwAfY011kiBZzMCVNr9AgsskNrW+uuvn4L4NddcM/Uq/1/uQX755Zfj3HPPjZNPPjkeffTReO2116Kzs7Px7gz8znHxyiuvpO+OV199Nfbaa693fQFMkiR7ziUNeI8//njstNNOKZitkMJOjyHBB2msBPAELk8++WSvtO5111039ZaRxj27IIDebbfd4oYbbmi8EvE///M/cdxxxzV+e+cIVrbddtu4+eabe/afTAJ64+eaa64UxBGckP7LRQsC9MpKK62UxiWvs846jVc0uzrvvPPi85//fLzxxhvpd4ZwMIZ8iy22SL8PFNdcc00cccQRPdk0ZAF86EMfitVXXz3mnXfedJGL4SME5aS7M9yDbBHmJ3NEkqR3w+Bc0oDXKjjnRJsTblJUCTzpHbvtttvi8MMPTymuvAZO0ul1J729uaeQseyM/X7mmWdST3JHR0cakzvPPPOkE32CVtbTFy4IMH6X9fF50tO5WMCFg/e9732px3KhhRZKY115jZ7qa6+9NgXHv/rVr1KQXllttdXSGHC2l21nG+jpXHnllRtz9K9VcM62MD6ZceW8RrBCGX75y1+Oe+65p6eMcMopp6SgjzKiXH/961/3ZCqw7QTuBD5333133HfffanHn7LaYIMN4r/+67/SfJW//OUvaR7GR1MvlCu9lWPHjk3l+rGPfSwNP2iFuuICQlUODE+YOHFiCr5+//vfxxNPPJH2g6EKpHR//OMfT/cZaMb+EpQ999xzKf2Z+iGgZeKiBe2G7SFj4KMf/Wjax/4wFIHtoq65sMEFD3qrWT+9tgTNjPsH20bdUV5Vm6MXl/qnbGh3lAvzk4bN9vCZ+eabL11Eot01D8Wgvdx4442pvf72t7/t6SWmnXB/BcadU16cMjDGmgtXzEOvMqnwvM5EPdB7TLtu1XPOxS3aDPvLxRyWSUYFZUVdrLjiii3rjnlpe5QR+8O6aPv77rtvaitcOKM+2GfKmiEV9Oa/2+EUxx57bBxzzDE9bZjMky984Qux4YYbpkwQ2gt1zbopczJpyDTgIlh/ae20fcqMY3PKlCmpDJmf7WS8Ouuh7FoNCeAzHF+UHfXLZyk7LhbQzj7ykY+kbWtGe+JiA8cMn6FeKLtPfepT6TuG4S+0O8qY9ZP9wDIrZAdw0YHvFTIqKGPqgHXx3cN6WV5f2E+GOtA+KSOWx/7RBqlr7mdQfY/xe6t2I0kDRvkHTpIGtPLEuigDKC5U9kzzzz9/UZ58N+aYoTxRL/77v/+7KE+Ie8171llnFeUJa2OuoiiDu+LnP/958ZnPfKYoT1yLMtDqmbc88SzKE/FilVVWKT73uc8VZTBdlEF345MzlCfTRXkSXuyzzz5pu5i/vr7yZD5tH8vefPPNizIwKcoAtSgDrKIMTnvN29dUnhAX3//+9xtrnLky+CzKgLAoT6p7llEG50UZIDfmeMuBBx5YlCfZvdZ3xBFHFOXJf3r/iiuuKMrAt+e90aNHp30955xzinXXXbcoA8L0ennyX5x66qnpM6BcL7744qIMKooyiOi1Dsq1DPCKMpAv9t9//6IM5IoyCGh88i277757z2eYygAurfeLX/xiUQbDPXU7dOjQogxIi89//vPF3Xff3fj0W8rgqNhtt92KMnguFl544bQtZcDfs1zKpgzqi7XWWqs4/PDDizK4KcrAqPHpt5RBfnHTTTcVn/70p4tFF120KIOe9PlRo0YVq666anH88ccXF1xwQSqjatllUFOceOKJ6bOgXZZBT7HTTjsVH/vYx4oy0Enz1+uK/VlggQVS+R511FGpzdex/9W8M5uWX3759BmOjx/96Ee93qMMyiDwbftaBoHFueeeW2y//fapXNm/6jNsJ+2Zsjr00EOLMljs2bdKGZAWe+yxR6910YaYd8899yzKwD7tI69XdXfQQQcVZUD7tmXNDPNT7/V1cZz99a9/bczRGnXQ17qee+651Ja33nrrtK31/afMaLscz2effXbx8ssvNz41A2VHu995551TG623e9oLn6UdctzdcMMNjU+9heOGY6b6DBPfK9QdZUc5VmX3iU98olfbePDBB4uvfvWrRRmwp3ZVzcdEG6MtcBzwfdd8vNEGnnjiieKQQw4pVltttbSdVftmGjZsWHqNY3nChAnpe4FtlaSBzOBc0oDXKjgfN25cr4C7sssuu6TguD7vGWec0XNSOXXq1BSEcBJdn6evqTpJrgczf/vb39JFgFbzt5oILlnvr3/9615Bb3/TggsumD43q/oKzidNmtSY4y0EWATW9fURoFZBx1VXXZVOyKv3OMmnvAhy65+Zd955i9NPPz19ZsqUKcUpp5wyyxcfCPSuu+66VC51e+21V6/5KK+VV165V9BQn9hH6uLpp59uLGGG559/vtdFl/4mlk27IVBpduuttxYbb7xxy88xEYitvfbavYJzLl58+9vf7hWcE4QStNc/29fEPlEO9X06+OCDW87baqLuQHD+4x//uFebIOi8//77e7Vn6v3YY49NF4Tqy2k1sSwCteYgk/3jAk59Xi5a9Vd2BJIElu804KNcDzjggF7LWnLJJYtvfOMbxT333FNMnjw5lfmsqOqGC0bNx0Srab/99ut1EYDAnHa/2GKLtZy/PnGBap111imuueaaxqdnYP+5UEgwXM3Hsbbiiiumn+vL2HbbbYvHH388fe7OO+8sdthhh1lqV7SJ888/v1e9s+2UY1/HVvN09NFHpwsckjSQeUM4SQMeqZ3c7Kx+Q7gyGIrDDjusJ8WS9ODbb789pReT2ll+f6bX8dnPfjaWX375NC/p2oztrt/5fezYsSk9edVVV03pouXJcs9dn1knaaorrLBCSu0sA4N0EzXGu5Yn9mke0j9JSSc1nbTfMqBMd4wvg4+U8rz55pun9fNZJlKiq7TmCu+XgUxKQWVdLIu0aG5mNytIRSV9mW2t9r0MpOKLX/xizxjb8sQ8bfsPfvCDlL5cLyPu9E7qenminlLHGQ9PSjBIu+Wxb6yDMuIGZIx1Jl2etHv2l5RmhhSw/grlSsr1Rz/60VSuLI9tACnA1BPLqw8dIL33D3/4Q+O3GXehZ92ke7N9pENThrwO6oBlsa+k2FftgZTmCy+8MKW8kyZOmVZlyzJIrWYZLItyICWYfaIeSKkHKb7f/e53e9LCQZ2yLaStk+ZNOyGVmdT9Cu2B/Sbdv9oeUocvuuiilHJebQ/lUgZNKdWf5dIm2B72iTTsKo2cOiGlmZR0lk2brLaH4RO0FVLEmZflUT/ca4GyZkgId2yvb//uu++eUuhZLi644IIoA9tUHxVSuFkO20pZsX72keWQ/kzbZX1VejXtnGEHDHuoUDaksrOflAfHD22gut8B+8mQEp4YQAp2VVYzw3wPPPBAWl/VnviOIOWflPQqxbsarsL8LL8VhqJ861vfSo9qrB+PHL+UKxPDF/id92lDfFeMaaT2U7Zf//rX07oqtOeq3bNetq1qH6TYM/F9wfcA28Z71113XTo2qX9Q3tw4kmOMG/itssoqqfzYFtoVZch6f/KTn6R9AOtl23ifNko7Zt3UGeXOsUn74CaZYNjJgQce2HP/AtpG9b3DfpKKz/FDWj/tl33ieKUNStKAVX6pStKA1qrnnB7L0047LaWZ0jNODxy9sfQ61ucrg4uiPJFPy6En8ZOf/GSvniLSNkmvpTeRHre77rqr2HfffXultdIzRcou6OktT4h73iPllfTmMqBMPZBlkJJ61lgOqa70Ut9yyy0ppbQ88U6fJ624POHuWQYTKa/0SpENQE8a/5IKP6ta9ZzzM2nXpMeT2k/P4iabbFKUwVavddPr94tf/KKxpLf3nDPxmTKISine5Yl+UQaIKaWW3l3KjfeqecuAI/VaH3fccSldnPdvv/32Yscdd3zbukklrvecNvecM1FWl156aUo9LoOg9JnmDAR69usp/CyT/S0D6+Khhx5KdULvPuVKrzo9v/RilgFJzzLoPX/yyScbSyhSKnBzOTDcgfpnGWwP7Y9e2/o8rXrOaRtlMFVcdtllqUzIvqjqmbJkyAOpz/W2ybCKMpBLy2BoBe2BXtp6ZkgZhBUXXnhhalcsj4l2jlnpOWc/SLWvr7cMzIuTTz459dCynb/97W+LLbfcsqdnl4le8TKoTctAq55zjsUy2Etti/XQXjiO6scoxw/7zlCRd6IMzNOQh/r6mieyGagveqV/8IMfFE899VTj0zNQBhyLZAzQZqvPcTxw3FBO9C6/+OKLaT6+b6i/qveYVH6GAdTXSWo5PcyPPfZYavcMadl11117lS/fXRwbVfugzuo959W0+OKLp3XSJtkO6oMypK7J/qlnspBp8+Uvfzl9V7I8tpFtLQPqnnloNwwboT2ybo7J6j22j2EbbC/fJRwrtEv2+2c/+1lx5JFHFldffXV6XZIGMoNzSQNeq+B8VibG8BKUMv4YpIESiNTn2W677d6WzswJ6QYbbNBrPtbPyTZBBMFGdTJPcFEFIJzMk0bOyW0dJ8NMFdbH2OL68g877LCWY7BnVavgfFYmgiwubLBvlVbBOWPFOZlvheC3nkJO8LXZZpulwLOOoJTxvPXlkpJepemiOTgn0CUgrSPQ/cpXvtJrPsaPczGkXs4gKKTeqR8C9YsuuihNl1xySTFx4sReKcGrr756mrdCudTvX0Cwd8wxxzTenaFKCa/mYWoOzusIdilH7mVQ3x5+pv7qFwu4kMK9DerOPPPMXsE5Y7e5cNHKzIJzyooUa8aTV+8zMcShOX35yiuvTOOX6/MxTpqLUWgVnLNcjr8K6yPtvL79tBUuHjW3lZnhQgUXSbhw03zBp9VEQLz33nuni0lVGyHI/eY3v9lrewhSea2v7aFOqwsbl19+ecsyqe7dUGGf6xeTqI811lij53hvFZxX28F7rRBk1y8okAL/ta99LbVrhuFwLHDhiDHq1TzVfFVaPm2rat+sj22knnmdCxm0gfrxxL43H1+SNNDMyDmTJM2S8sQ3paCSmnnIIYdEGfyl1F+QYlsGU+nnCmmipGXXkXrMHcXrypP1lCJcBhMpLZr0Z5BWy92UuTs2afbcRZo0WdLrr7/++p40c9JXK/zOVNfqtX8XtoV0ZFLSDzjggNh11117pZa3Qoo1Ka/NSMktT/ZTSnaFMiLFvDzhb7wyA2VN2VJHFVKk659tRlmTbl5HqjBpvnWk9pKqXykDr3SH8zJgif333z8+/elPx4477hg777xzmnbYYYd05/wqpRekElcpwpg8eXJK5a+Q6k06eh3bQhpxf6jXMshKKftlwJ/uik+Zsw3V9tBOGUpQpXyDVPH69uF/s93wuebH6oFjZ5555mn8NgP73XycMNyAFO2+zD333OnO4hXaHen09WMB7GMZ9DV+mzWkbPN0ghNPPDHdfZ60ftoJy+e9ZpTlD3/4w/je977XkzrOsUsKfPU7+K7YbLPN+kzdpk1X7ZcnAdBGKqS6k05epbxXONZIN6+wPsqNberLqFGjYsKECS2fIkCqPuut1ztp/tyJnja1yy67pKdb7LnnnnHFFVc05piBsuZ7DBzzDF0A5c/xw931+d7ke+ykk06KMsCPX/7ylz3DYJrrTpIGGoNzSWqB8ZGMq2XsLxOPUNpkk03SielBBx0UZ5xxRgqC6mNNCZCaAxFOgpuNGDHibSfYnMhXJ9M8WohAnACecdWcsDLmlGCQ8dyMaf/MZz6TxvYSHDKGunm9/wlsF4EWgXJVRpzwE6RSNoyzZZw4Y1n7Q6DSV/BOoEFQW0cAQ0DSHJyDgI3gvUKdEOD3hXX3VUeMwa6wHYyLBWXN48b22WefNGacx90x5rYehLXC56p5+LkeqINtaW4X4HUemdUX2g6B+ec+97nULnmM3UsvvTTTgJRymdk2//8g2KJNN6+j1T7yGmVex4ULLlr1hWO0+TF31H09wGMb3mlgXqF9ccHo5JNPToH38ccfnx6nxncAwTqP/qqviws2P//5z3suBrFu2m4V5DIv7bx5P/tCoFu/eEMg3arsKAfGl9exz5R9te46toMLjNW9IprRzt/t9wnbW12g5AIMgThjyVkfFx240Maxc8EFF6Qx7bRZLiTx+EUeh1ffX0kaiAzOJakFgu4f/ehHcemll6aJGzMRAHGSzgknPX3NwSGBQb3XFq0CQ4Kp5pNflsVJNjgJJ8CtLgB84hOfSDd4oieaHmZOxJmfnrXvf//7ccIJJ6RnW/+nsa/0FFZlxE31rr766nRjMk626c2r9qk/BJ6tAmQQSDQvg4CDQKhV4MHJfT0Yo05aBfEV6qKvOmKq1LeD4IseVZ4NXSGApmeVXm56C7nJFhclWvWygteb20qrdoHmbWlGTyeBDjdyqxB4kUlAcMn20H646NO8zn+nqsz4t67VPvJa8z6yrX2VH3i/+aJFf3X9/4ObnG255ZbpRo1cIONGaVx4oie7josJ9FrTNtlvLvDU95+Ae1YviDS3Edppq7Jjea2C2vrFpWbVd0grrb7HyBjgZm20674m2hntrbpQwPq5CSXfUdw4kkwEbrpIVgrPzefCI9tAhsQll1ySeubJdJGkgczgXJJa4KSRXlhONJkIdmZ24k8vXnOQSQBN8FTHHY5Jga8jyFhggQXSz9WJPXdjPuqoo1LQe9VVV6XeJlLauTt8fT1cNKin//LZ5oDo34F1kKbLhQzKiF69/oKpvrCc/gIFet3qATrByEMPPfS2HlF67OiZqwcw1Emr1N0K6bvUUR2f5w7t9SCK9RPcgt5Q7hpeXRwgkCFz4Dvf+U668zq9p0xkEfTVS8r+1rMuQJDSalu4CNBXcM42UvcENVV5sGxSp6s7wbMtV155ZcoEoTz787/ddghqm9dJCnNzOj3DM+op3KB8CApzeP7551O59pV1QWDJRTOelNCsahfUA09DqNo2r3MBhTvl91WfzFN9nnXwHVTholAV+NfR012lkoP641jkmOyrLvurZ3q8q6E6Fe6cTxo6QzWq9l1NfDcx0da4aFWlslf7wl3ZDz744BSA813FRU/aJlkI9f3jaRi0jVm9eCFJ70UG55LUQv0keVbxGKHmFO5bbrklPcaIE2h6twjsSN+88cYbG3PMOInnc1UvHPMwPpgTVdKlSc2mZ5aTXAIs0kDrKakEEKSwVsEZgWRzzxcXCEh15sSXwIB/3+n+/bv0tx2UDUExvcAVAlZO8hkHS1lRruzbxRdf3OsiBcg26G+8O0EtabYExfTGEzTeddddKeio42IIy6KM6R2tXxiognMuplQXElgeFxD6S8tmjHW9vXBBgHbBv2wL+8Vj1JrH9daxHZRBHUFX9dg89p3gmP0kgGvVw1rHxZV6MM120AZpY7Qbpvq+94ftYGhG1ZNaIQuFixuUDcvnYhX1yfjsCmXKI+CqC1b/aVwQO/LII9N4aB79x4UDjmGGItD+2HYumtSzJ8BFtuqCAuVIxkL9Ag3lSEYMbYxgm2WxTH7meGf4CmUCMjEogwplzxCK3/zmN+k7gbrkgg6PfLvtttsac83YBjI4mrMKZhU93vRs1wN02jLBM9vGcvn+4aIX7YXXOO64Nwb1Wl1I41i66aabUruj/PiOokzYJ8qF77Fq2E6FtjazNipJ72U+51zSgEdwwMl4PS2YYIybmTX3+vWHE1Z6bnmecBWU0QNHLzm/8zM9TOecc06vnnN617i5UnUTMp6lzI2uGEvOyT/L5OSXE3dOfs8888x0slz1vrGN9KbzzGIQ0BLs1HvTOIFmfk7qWTeBBkHTrO4fJ8z0jFU3oAMBVPO4+1nR/JxzghdS4Bmb2gon72z7rbfemoIb1s+JPmOruchA+bC/9FxTxhUCO+4PUL/JGvPVn3MOypiyZR28x8326CGsUEb0BtLTRzBCWZDFUPX+sj0MK6DcCUK4+ML4ZNpBveeVHkl6WrnxGwiCHnvssV71RPkSSLNM6phhFPR61wMYLtRQVgRgrJO6vfDCC3uCOtCW+QzbRcDP9nBztnpgTfkQxNefdU/b4IJSFfCzr0xsKxccaIcsg32hvNj2/p5zzr0BCLqZj0AUlDfLovzYX7adXtWqPYAUapbDDftAfTc/55yLNhw3dRxnp5xySk+5sw3sIxdOqqBxVnCccs8E9o3y4JndtDMm6odtoQ1QN/V9p51wLLJejg8ujjAvF1yqsicIpy44FvnuqY4Hep3J/uBmkPR8E7hSPgTk1bHO+mkztHvKkO+t0047rWecO2hfpNwTBNMGKIv6c855jRsnbrfddm/rIa9wTPI9xH6DbeXzHCd8d9AO2AfaOin+ZPRQj2z3xIkT02eYhwwO9o3Psb1M1P99992XjjMC/qpdgPH8XIhrvrgoSQNG+UdFkga0Vo9SK0+q+3zcUX94dm8ZMPR6jnl/09xzz50eEVWe/DaWUKRnmreat9VUBgFFGcj3en42eLb68NpjuponHvNVnjA35p65Vo9SK4PW9Gi3d6oMfHo9So0y4LnM/SmDkmLrrbee5XKdc845izLYSc9vrmt+lBrzlYFkKsf669VUBjJFGdwXv/zlLxtLmFEWu+66a6/HkjVPZdCTnmddrwMeJVUGyo2lzHDOOef0ep5081QGxakt8m/1WhkY93qUWhm4pkfLUR/1z9anMkhOz8iubw+P/bv55pvTMio8P3/8+PG9PlufWDfP2UYZXM/0OecoA/PURvtrj9VEefOIQvavDNoaS2j9KLWVV1658e5beLTdHLVHnw0ePDgtqwwoG3PMmqOOOqrXumY2sd3LLrtsenRcVS+gHMrgPj1irL/6qaYDDjig51Fk4PGAPB+/Xv99TVXZfelLX+pV/ny31B+lxnw8npEy7Q+PSuNRen0dG83T6NGji/3337/x6SI9Lm2u2iMQZzbx2LgHHnig8WlJGphMa5ekUvl92PhphubfZxVpzaTD7rHHHqlHkt50el7LE+L0Pv/Sw0YPE2nNzHfMMcf0GhfN+/RsMR6TXlI+T09chZ9JLeV9egS5SVW99xOMh6V3lc//b/VCUSb1cmn+/Z14p8th7HgZZKVHglE2rcqV3l16ArmLNjek22233XqNaW2FtGvqgHKkDqqy4l/Kjl5MHv/E+PEKdccYWtLcyRqoxtlX9UKvcfUZMjAqrfaTR1PxKDZ6O+mtrOqZZbIe7gpOj309NZp9ZT0VtpP9ZVwwn6n2gWXxOXpvDz300DQkgjKqtCpzsgzo+eQzzFuVb6XVZ+qvtXqf4RjUHVkD9HZTJlWZge1kXZQlQ0O4MRi9z9Rvf1qtCzPbnlnBdtLzTO81ZUp5Nx9H/E750sYYQkAZb7rppj11COYhK4Tebcqf74cqHbwq22r/qUfKpr4eepE5vj/1qU+lz/J+vd1Xn6Xdk4pOu+P7p3lbKYeqLKqfZ1Y2ZC5wzwueyMA+sq/15bJuvqvYJjIkKK/64/DYR7IzeI99Zt7mz1f1zrbzPdj8OD1JGmhMa5c04JEyS3omYz85yWUiGORxZTMLEFrh84xBrk5qOSnlJJSAkpN+gihSSkk9/eQnP9krMAfBAIE1J6wEepy8MnHyTjox6evcFZkTdk5oCSDrwQ64ERcn9nyGVNbqJJpt47WVVlopPQKN32cFqaeMHyWllf3gc6TFU0azuowK6a6kyJIuzb4SdFBW/T3Pm2CE9YwfPz4F1GwD+0TAwM8E7ATLlCuPl2sOjCvNae0EA6Tmcydp6pr0YZZJsLzFFlvEl770pfRvPUglqCDgIF26+gzbQiDCfvAYPJ57TkoyaeLMw35SJ2xXfZw5n2M4A/VB2jN1xbzUKfVLwAfS2yu8z0UK7tzPdrE9lCFtjnbAMmhvlAntiACLiwDciIz0at6jbAiaCf6Zr8LnaXcsm3Rolk17oYxZL0E7bY+J9bA8UpOrNkG58Axs/q2XGUEu5VilbFMmBLy0a8qDOmV/CcypY7axjnR10uNJKafdsf2kvPMM9zpS+0n1ZpurNsoj/gj6KetZRVvaeuut00Ub6o3jju3mWGVf2R8uApHGznYTEFPWlFczXmMfWR7lynaxf7Qz9p/lsx7e32qrrdKFtnoQy7qoW8qc/WY/+Dzbw3L5LGVO2fH55v2kfTLGnSEOfJ510u65WMK+9IXtptxos7QVtpc6q7abdsPFHOqLZ8HTVinrqt6pA8qEsfO0T+qi+h7jZ/ab4Qvbb799ej4/x39zvUvSQNNWzOzSqSS9x/E1yAlsfTwuJ5jv5GS+FZbH1NxLxbKZOAGvBzB19c81fx58jpNnpr6WwWcIoKr9qi+Dz9V772YFwVpzGRFkvZNlgGXUt4vPUxb1gKQ/fK6a6lhOtay+tonnKp911lmN3yIFFjyGjOC4uQ1U5cvUSnP5olo/n+E9pqrceY8yry+PMq2ed15/r9p+LmQwhpq7W1cIrH7xi1/0jCmuzGx7qv2rtofXqveaMV+17dX8qJbHBOarxneD9/trE8xfTXXMz3YwtfpstW9MFeZlXXXMx/bUt5lyrbb3naj2nW2tfq5er7ZxZtvdrL/9Z2I7+1pOf5+d2Ta0qvtZPf6rMqh/vsLnq/VXP9dVn+XfaqqrPtvftkvSQGJwLkkaMPoLznPgxljcdIweWXod6TUlaCIIpVeax06dffbZPTcYpNdxm222Sc/afjcBpyRJmn217g6QJEn/dvTycgdy0qJJMSftm5Rqhj6ss846cfrpp/cE5vQS8/4hhxxiYC5J0nuQwbkkSZlUab30lDNemue1M1adR6ERlJOOTE8644t5vB43FmMMryRJeu8xOJckDRgEuuDGVgTF3Fcg51hXbrS19957xz777JNuJseN6LhpFjfu4uaB3CyOu8mff/756bna3BXcXnNJkt6bHHMuSRowXnnllXj99ddTQM6fP4J07p7dfGOx/xS2gTvhc+d6/qUHvbqBFhcPCMS5gzXb6Z2sJUl6bzM4lyRJkiQpM9PaJUmSJEnKzOBckiRJkqTMDM4lSZIkScrM4FySJEmSpMwMziVJkiRJyszgXJIkSZKkzAzOJUmSJEnKzOBckiRJkqTMDM4lSZIkScrM4FySJEmSpMwMziVJkiRJyszgXJIkSZKkzAzOJUmSJEnKzOBckiRJkqTM2q699prij48/xY8zXlFWQ4e0x6CiiPL/mg20tbdFZ2d3FN1WSG58Q7UPbY+Oji7rY3bQ1hZDqQ+/r2YbQwe1xXQqw/rIr/zCGloeIx1WxmyhrfzfYH4o/55rNlAeG1GeX02f1lX+4jGS26Dyb8fgwe3RWZ5fKa/u7u5o22CDDYuXn7s3lvnQuPIFD5Cc2sovq2tvfjxenWNIxJhhfl/lRjT49Gux8MpjY/Q8Iw1AMivKCnj0hj/H6usuFnPORX1YITl1dRVx/VWPxvpjhseo8o96GaI33lEOHeXf7+tenhobzTkihreTFGd95NMW08oTrF+V9bF6DJkRFCqjtpga3XF3dMaglcaWkYidUTkRl3e9Pj3an34lNtx82XTuq3wo/3+8MCXuvuNPsdIGCzdeVS4dnR3RtuFGE4q9xo+MbbdZNWJ6Z+MtZVGe4K633Vlx08KjYsiS80Z4sSSv8u9Fx3l/iM9/a3wsuvIHorsMRpQPFw9P3PLiOP9nn41lVvhACg6Vz/RpHbHxh78eVy75wVhkjmGGgplN6eiKNX/3cPxmzWVj7LAhjVeVy4vl8bHeTY/EuWMWiTnaHEGYE73mf++aHp+OyTHuG+OjbUh74x1lMagtpv35lRh+/n1x3b2HxqBBHh85DR48KO7+/TNx0D4/jmOu3TEKk0uy6o6uMjjfeEKx23rDYqetVo7CdIas2soDZJ2dz43fLTRHDFnC4Dw7gvPz7429v7lxLPKR95fBud9YOZHK/q3tfhLnXLRbLLV8WR8eH1lNn9YZm616Yvx08YVi4ZEG57lN6eyKDW95NK5dfekUnFsfeb00vTMm3PxonDFmYYPzzOiXndzVEXuUwfl8X9vI4Dy3Kjj/0YNx1R0HpZRq5dNexh5/uG1SHHbAT+Ooy7c3KzGz7qLLG8JJkiRJkpSbwbkkSZIkSZkZnEuSJEmSlJnBuSRJkiRJmRmcS5IkSZKUmcG5JEmSJEmZGZxLkiRJkpSZwbkkSZIkSZkZnEuSJEmSlJnBuSRJkiRJmRmcS5IkSZKUmcG5JEmSJEmZGZxLkiRJkpSZwbkkSZIkSZkZnEuSJEmSlJnBuSRJkiRJmRmcS5IkSZKUmcG5JEmSJEmZGZxLkiRJkpSZwbkkSZIkSZkZnEuSJEmSlJnBuSRJkiRJmRmcS5IkSZKUmcG5JEmSJEmZGZxLkiRJkpSZwbkkSZIkSZkZnEuSJEmSlJnBuSRJkiRJmRmcS5IkSZKUmcG5JEmSJEmZGZxLkiRJkpSZwbkkSZIkSZkZnEuSJEmSlJnBuSRJkiRJmRmcS5IkSZKUmcG5JEmSJEmZGZxLkiRJkpSZwbkkSZIkSZkZnEuSJEmSlNmM4LytLU2Nf5wyTTP+U9XHjB+V04xK6Kkap/wTyn/bygpJh4lTtqmqj/Qjr1U/O2WbklQ5b3/P6T8/odXrTv/5qYdfVvknVPVQ/eiUb0p1wH/5wWl2mNo22niTYouVu2P7TVaI6R1d5avKZcjgQbHlvj+OOz4wMoYsNncUXUXjHeXAd1XHzx6KXY9cOxZcflx0Wx9ZFUURZ+95VZx02vbxoaXni+5u6yOn6dO7YtdNzoizFnl/LDhyWFgbeb3e2RXb3/lEXLDqEjHP0MGNV5XLP6d3xk53PBHfGLVgjGgzSTEnzndf6OqMQ9peiHkPWzvaBrfPeEN5lBUy/W+vxdDLH4sfXr1nDBpEDSmX9vZB8dAf/hLHHXVVfOHcLTjZaryjHLq6u6Jt4mabFTdcc02MGTa8PLmyQvJqi5enT4+O4eUfjjJQtzpmA29Mj2FjhkX7kHarI7eyAt58eWqMnWNoDCn/mCgv/n4//9rUmHfokPR1pby4VvXCmx0xdviQaPdcNzuu5b5Y1sd8o4eHsUd+neUB8lL593yu+ca81UuobDo7umLKy/+KcePK+mi8pnymTe+MV8r6GDvXCGPzzDo7O6Jt/GYTi4WuuT3Winmi0/Ajq/byK+r4+Es8MWGhiIXmnHG2pXz4A37Zw/HhfVeL0UuNjcL6yKss//uP+FX8cq2lYrl5R6WTX+Uzras71rzkrrhoraVj4VFe3M1tSnmyu/GvHoyrN1w+5i0DdOX1UhmYb3HzY3HnSZvHmJHWR04E488+PyUmnvz7+P3d345hw4Y23lEO7YPa4uGH/xSf/eRJcc/1R6aeW+VD+d9611Nx4AHnxq3HbGJwnlt354zgfLFr7ox1Dc6zIzg/Ov4Uf9xs4YgPzmVwnhuXc3/yYKx44JoxZpkyODcazIqLI/cedG3cvO6y8eGxo8vg3PrIieD8IxfeHpevt2wsMroMzq2OrAjO17r2/rh+wgoxXxmcWx358KeDLIaNb3g4Hjp1a4PzzAjOJ01+LdY74ea495HvxfDhBuc5DSKN+oFJscu2x8ejtx1bBusG5zm1DS6D89ufjL33OjPu//rmZejhX4+suru8W7uk/3v80yFJmlX+zZiNWBmzLatm9mBwLkmSJElSZgbnkiRJkiRlZnAuSZIkSVJmBueSJEmSJGVmcC5JkiRJUmYG55IkSZIkZWZwLkmSJElSZgbnkiRJkiRlZnAuSZIkSVJmBueSJEmSJGVmcC5JkiRJUmYG55IkSZIkZWZwLkmSJElSZgbnkiRJkiRlZnAuSZIkSVJmBueSJEmSJGVmcC5JkiRJUmYG55IkSZIkZWZwLkmSJElSZgbnkiRJkiRlZnAuSZIkSVJmBueSJEmSJGVmcC5JkiRJUmYG55IkSZIkZWZwLkmSJElSZgbnkiRJkiRlZnAuSZIkSVJmBueSJEmSJGVmcC5JkiRJUmYG55IkSZIkZWZwLkmSJElSZgbnkiRJkiRlZnAuSZIkSVJmBueSJEmSJGVmcC5JkiRJUmYG55IkSZIkZWZwLkmSJElSZgbnkiRJkiRlZnAuSZIkSVJmBueSJEmSJGXWNn6zicUS19wZ68e80RlF42Xl0B5tcVQ8G49usWjEwnNFdFsfWbWV08UPxEoHrxXvW26+KLqsj5yK8ni4Z/+r4/b1l40Vxo6JrsL6yGlaV3csd/6tcfX6y8eio4f71yOzKR2d8bGr7oubN10xxo0Yan1kxJ+OF6ZOj3V/81A8fua2MWLk0BlvKI+yQp6bPCXW/OqN8fCT34/hQ4c03lAO7TEoHnhkUmy/5THx+D0nRAyynzCrwYPi7tueiM/uflo8cNKW5clW43Xl0d0VbRM326y495prYr7w5Co3/qA/FdPjX+NGRowY7AGSGxXy1ykxYtG5YtCo8uTK+sirDManPvZirDbnyBg9dHD5qxWSE9cOb538anzkfSNiZPsgD4/MOsvj4c5/vhGrzzMqhg1qsz4y4k/HtPIAue2Vf8Vay88fg8vjQ/m0lRXyxpudcedT/4g11lqujAWtj5yojymvTY0H7ns61vn4kul4UT5tZYX8o/yueviRP8fay41rvKpcOjs7o23C+E2L4e+fHKussXh0dXY33lIOg9rb4qxv3hibvlHEh8eMtGcws7byf9+YNDl232TpWPr9Y8pgxPrIifI//Cf3xz67rBYfTPXReENZdHR2xf9894Y49JBtY76x7+PaiTKa+ub0OPzLF8YSO68QQ+awpza3jjc64olz74mjP7JIjBhsMJjbS1M74pSnX4hjj98thgxpb7yqHAgGn/vLS3Ha6VfGF46aEIOMzrPiYtWzz7wUl550U+zUPo8XdjPr6iqD8403mlCsv/3o2GrnVaNjelfjLeUwuPwDvv2GZ8TBUyLGj5szOjzbzWpQGZxvcMcf47wj1o/VlhnnMIPcyvJf6sAr4srTd45llp6//N2LiTl1T+uKxbc4PW757QmxwGJlffh9ldW0196IhVfcLzY4bWKMmHuEmT45lcHG1H9Ojet3uywe2XbVGDN0cOMN5UDsN+m1qTH+d0/FY8+cF8MHe/Eqp7by7OrBR5+JLbc8Mq6/97AYZGZJVu1l+d99+6Q4ZL0z4ow5FvVPR2bdHY3gfO2tR8YWO65icJ4Zwfkum54dB74WsZHBeXb8Qd/krifi7EPXjbWWni+6HHOeVXcZnC93yFVx6Sk7xApLjUtj0JXPm9M7Y9mtz4wbrjsuFl10nMF5Zq9NmRpLrHJArPedTWLEXGVwrqymvjI1btjjyrj3EysbnGdGGvWzr06NzX//dNz/x7Nj+HCD85wIxh96YFJss81X4hd3HhKD7DrPqr2MPe6549k4YuOz4lSD8+wIzr1cJUmSJElSZgbnkiRJkiRlZnAuSZIkSVJmBueSJEmSJGVmcC5JkiRJUmYG55IkSZIkZWZwLkmSJElSZgbnkiRJkiRlZnAuSZIkSVJmBueSJEmSJGVmcC5JkiRJUmYG55IkSZIkZWZwLkmSJElSZgbnkiRJkiRlZnAuSZIkSVJmBueSJEmSJGVmcC5JkiRJUmYG55IkSZIkZWZwLkmSJElSZgbnkiRJkiRlZnAuSZIkSVJmBueSJEmSJGVmcC5JkiRJUmYG55IkSZIkZWZwLkmSJElSZgbnkiRJkiRlZnAuSZIkSVJmBueSJEmSJGVmcC5JkiRJUmYG55IkSZIkZWZwLkmSJElSZgbnkiRJkiRlZnAuSZIkSVJmBueSJEmSJGVmcC5JkiRJUmYG55IkSZIkZWZwLkmSJElSZgbnkiRJkiRlZnAuSZIkSVJmbeutu2Gx7nYjY6udV42OaV2Nl5XD4CHtscNG34svvtYW4+efMzq6i8Y7ymFQW8QGdzwe5x2xfqyz9Ljo6u5uvKMcusrjYamDrowrTtspVlp6/ig8PrJ6c1pnLL7l9+KW3xwfiy02f0RhfeT06mtvxCIr7hcbnDYxRsw9oqyPxhv6zyv/dkx9eWr8ZrfL4+FtVo0xQ9sbbyiHtra2mPTqGzHhlqfi0afPi+HDhzbeUQ6D2gfFA/c/E1ttcVT8+t7Dyt/LA0bZtJf1cfcdk+LQ8WfG94Ys6p+OzLo7OuL/AVix3urk5lsjAAAAAElFTkSuQmCC;" vertex="1" parent="WIyWlLk6GJQsqaUBKTNV-1">
          <mxGeometry y="400" width="690" height="120.87" as="geometry" />
        </mxCell>
      </root>
    </mxGraphModel>
  </diagram>
</mxfile>
